<svg width="262" height="362" viewBox="0 0 262 362" fill="none" xmlns="http://www.w3.org/2000/svg">
<g filter="url(#filter0_d)">
<rect width="254" height="354" rx="20" fill="#E32730"/>
</g>
<rect x="16" y="14" width="222" height="326" rx="20" fill="#FBFBFB"/>
<mask id="mask0" mask-type="alpha" maskUnits="userSpaceOnUse" x="16" y="14" width="222" height="326">
<rect x="16" y="14" width="222" height="326" rx="20" fill="#E32730"/>
</mask>
<g mask="url(#mask0)">
<path d="M27.8873 46.7141C27.8873 50.8271 27.8873 54.9347 27.8873 59.045C28.9199 56.5674 30.0087 54.117 31.1829 51.7073C34.4586 44.9836 38.5733 38.7869 42.2764 32.3212C45.2658 27.1025 48.2112 20.3027 47.8129 14H42.921C40.9237 17.2654 38.2489 20.0419 36.2133 23.2829C31.7789 30.3435 29.6365 38.5668 27.8873 46.7141Z" fill="#E32730"/>
<path d="M27.8873 35.4834C29.7781 29.3682 32.3325 23.5328 36.2348 18.3793C37.3358 16.9231 38.4842 15.4915 39.5154 14H32.6048C30.8422 16.953 29.0497 19.887 27.8873 23.1552C27.8873 27.2655 27.8873 31.3758 27.8873 35.4834" fill="#E32730"/>
<path d="M29.3907 14H27.7577C27.7979 14.8666 27.8438 15.7332 27.9 16.5999C28.3831 15.7278 28.8851 14.8612 29.3907 14" fill="#E32730"/>
<path d="M24.875 14H23.242C23.7476 14.8612 24.2496 15.7278 24.7326 16.5999C24.7889 15.7332 24.8348 14.8666 24.875 14Z" fill="#E32730"/>
<path d="M26.3312 62.8973H26.317L26.2945 62.9L26.313 62.9462L26.3312 62.8973" fill="#E32730"/>
<path d="M24.7455 35.4834C24.7455 31.3758 24.7455 27.2655 24.7455 23.1552C23.5833 19.887 21.7911 16.953 20.0282 14H13.1173C14.1486 15.4915 15.2969 16.9231 16.398 18.3793C20.3002 23.5328 22.8547 29.3682 24.7455 35.4834" fill="#E32730"/>
<path d="M5.20715 19.7865C6.19113 24.9699 8.74941 29.6344 11.3862 34.0871C13.3273 37.3634 15.3349 40.5989 17.2526 43.8888C20.1051 48.7869 22.5468 53.8807 24.7454 59.1021C24.7454 54.9755 24.7454 50.8462 24.7454 46.7196C23.7753 42.2017 22.6916 37.7056 21.1695 33.3508C19.7484 29.2867 17.9038 25.372 15.4775 21.8485C13.6405 19.1807 11.4145 16.7656 9.71247 14H4.88495C4.72467 15.937 4.85018 17.9066 5.20715 19.7865Z" fill="#E32730"/>
<path d="M59.5405 19.7865C60.5245 24.9699 63.0828 29.6344 65.7196 34.0871C67.6606 37.3634 69.6683 40.5989 71.586 43.8888C74.4385 48.7869 76.8802 53.8807 79.0788 59.1021C79.0788 54.9755 79.0788 50.8462 79.0788 46.7196C78.1087 42.2017 77.025 37.7056 75.5028 33.3508C74.082 29.2867 72.2371 25.372 69.8109 21.8485C67.9739 19.1807 65.7478 16.7656 64.0458 14H59.2183C59.058 15.937 59.1836 17.9066 59.5405 19.7865Z" fill="#E32730"/>
<path d="M79.0788 35.4834C79.0788 31.3758 79.0788 27.2655 79.0788 23.1552C77.9166 19.887 76.1244 16.953 74.3615 14H67.4506C68.4819 15.4915 69.6302 16.9231 70.7315 18.3793C74.6335 23.5328 77.188 29.3682 79.0788 35.4834" fill="#E32730"/>
<path d="M79.2084 14H77.5754C78.081 14.8612 78.583 15.7278 79.066 16.5999C79.1223 15.7332 79.1682 14.8666 79.2084 14" fill="#E32730"/>
<path d="M83.724 14H82.091C82.1312 14.8666 82.1771 15.7332 82.2334 16.5999C82.7164 15.7278 83.2184 14.8612 83.724 14Z" fill="#E32730"/>
<path d="M82.2206 46.7141C82.2206 50.8271 82.2206 54.9347 82.2206 59.045C83.2532 56.5674 84.342 54.117 85.5162 51.7073C88.7919 44.9836 92.9066 38.7869 96.6097 32.3212C99.5988 27.1025 102.545 20.3027 102.146 14H97.2543C95.257 17.2654 92.5822 20.0419 90.5466 23.2829C86.1122 30.3435 83.9698 38.5668 82.2206 46.7141" fill="#E32730"/>
<path d="M80.6645 62.8973H80.6504L80.6278 62.9L80.6463 62.9462L80.6645 62.8973" fill="#E32730"/>
<path d="M82.2206 35.4834C84.1114 29.3682 86.6659 23.5328 90.5678 18.3793C91.6691 16.9231 92.8175 15.4915 93.8487 14H86.9381C85.1755 16.953 83.383 19.887 82.2206 23.1552C82.2206 27.2655 82.2206 31.3758 82.2206 35.4834" fill="#E32730"/>
<path d="M136.554 35.4834C138.445 29.3682 140.999 23.5328 144.901 18.3793C146.003 16.9231 147.151 15.4915 148.182 14H141.271C139.509 16.953 137.716 19.887 136.554 23.1552C136.554 27.2655 136.554 31.3758 136.554 35.4834" fill="#E32730"/>
<path d="M136.554 46.7141C136.554 50.8271 136.554 54.9347 136.554 59.045C137.587 56.5674 138.675 54.117 139.85 51.7073C143.125 44.9836 147.24 38.7869 150.943 32.3212C153.932 27.1025 156.878 20.3027 156.48 14H151.588C149.59 17.2654 146.916 20.0419 144.88 23.2829C140.446 30.3435 138.303 38.5668 136.554 46.7141" fill="#E32730"/>
<path d="M138.057 14H136.424C136.465 14.8666 136.51 15.7332 136.567 16.5999C137.05 15.7278 137.552 14.8612 138.057 14Z" fill="#E32730"/>
<path d="M133.542 14H131.909C132.414 14.8612 132.916 15.7278 133.399 16.5999C133.456 15.7332 133.501 14.8666 133.542 14Z" fill="#E32730"/>
<path d="M133.412 35.4834C133.412 31.3758 133.412 27.2655 133.412 23.1552C132.25 19.887 130.458 16.953 128.695 14H121.784C122.815 15.4915 123.964 16.9231 125.065 18.3793C128.967 23.5328 131.521 29.3682 133.412 35.4834" fill="#E32730"/>
<path d="M134.998 62.8973H134.984L134.961 62.9L134.98 62.9462L134.998 62.8973" fill="#E32730"/>
<path d="M113.874 19.7865C114.858 24.9699 117.416 29.6344 120.053 34.0871C121.994 37.3634 124.002 40.5989 125.919 43.8888C128.772 48.7869 131.213 53.8807 133.412 59.1021C133.412 54.9755 133.412 50.8462 133.412 46.7196C132.442 42.2017 131.358 37.7056 129.836 33.3508C128.415 29.2867 126.57 25.372 124.144 21.8485C122.307 19.1807 120.081 16.7656 118.379 14H113.552C113.391 15.937 113.517 17.9066 113.874 19.7865" fill="#E32730"/>
<path d="M187.745 35.4834C187.745 31.3758 187.745 27.2655 187.745 23.1552C186.583 19.887 184.791 16.953 183.028 14H176.117C177.149 15.4915 178.297 16.9231 179.398 18.3793C183.3 23.5328 185.855 29.3682 187.745 35.4834" fill="#E32730"/>
<path d="M187.875 14H186.242C186.748 14.8612 187.25 15.7278 187.733 16.5999C187.789 15.7332 187.835 14.8666 187.875 14Z" fill="#E32730"/>
<path d="M189.331 62.8973H189.317L189.294 62.9L189.313 62.9462L189.331 62.8973" fill="#E32730"/>
<path d="M168.207 19.7865C169.191 24.9699 171.749 29.6344 174.386 34.0871C176.327 37.3634 178.335 40.5989 180.253 43.8888C183.105 48.7869 185.547 53.8807 187.745 59.1021C187.745 54.9755 187.745 50.8462 187.745 46.7196C186.775 42.2017 185.692 37.7056 184.169 33.3508C182.749 29.2867 180.904 25.372 178.477 21.8485C176.64 19.1807 174.414 16.7656 172.712 14H167.885C167.725 15.937 167.85 17.9066 168.207 19.7865" fill="#E32730"/>
<path d="M192.391 14H190.758C190.798 14.8666 190.844 15.7332 190.9 16.5999C191.383 15.7278 191.885 14.8612 192.391 14Z" fill="#E32730"/>
<path d="M190.887 46.7141C190.887 50.8271 190.887 54.9347 190.887 59.045C191.92 56.5674 193.009 54.117 194.183 51.7073C197.459 44.9836 201.573 38.7869 205.276 32.3212C208.266 27.1025 211.211 20.3027 210.813 14H205.921C203.924 17.2654 201.249 20.0419 199.213 23.2829C194.779 30.3435 192.637 38.5668 190.887 46.7141" fill="#E32730"/>
<path d="M190.887 35.4834C192.778 29.3682 195.333 23.5328 199.234 18.3793C200.336 16.9231 201.484 15.4915 202.515 14H195.605C193.842 16.953 192.05 19.887 190.887 23.1552C190.887 27.2655 190.887 31.3758 190.887 35.4834" fill="#E32730"/>
<path d="M222.541 19.7865C223.524 24.9699 226.083 29.6344 228.72 34.0871C230.661 37.3634 232.668 40.5989 234.586 43.8888C237.438 48.7869 239.88 53.8807 242.079 59.1021C242.079 54.9755 242.079 50.8462 242.079 46.7196C241.109 42.2017 240.025 37.7056 238.503 33.3508C237.082 29.2867 235.237 25.372 232.811 21.8485C230.974 19.1807 228.748 16.7656 227.046 14H222.218C222.058 15.937 222.184 17.9066 222.541 19.7865" fill="#E32730"/>
<path d="M242.079 35.4834C242.079 31.3758 242.079 27.2655 242.079 23.1552C240.917 19.887 239.124 16.953 237.362 14H230.451C231.482 15.4915 232.63 16.9231 233.732 18.3793C237.634 23.5328 240.188 29.3682 242.079 35.4834" fill="#E32730"/>
<path d="M216.516 236.77L216.539 236.767L216.521 236.721L216.502 236.769L216.516 236.77Z" fill="#E32730"/>
<path d="M211.424 320.796C211.317 326.523 213.795 331.744 216.517 336.604C219.239 331.744 221.717 326.523 221.61 320.796C221.505 315.167 218.852 309.81 216.517 304.702C214.182 309.81 211.529 315.167 211.424 320.796" fill="#E32730"/>
<path d="M231.447 265.579C229.506 262.303 227.498 259.068 225.581 255.777C222.728 250.88 220.286 245.785 218.088 240.564C218.088 244.692 218.088 248.82 218.088 252.949C219.058 257.464 220.142 261.962 221.664 266.315C223.085 270.379 224.93 274.294 227.356 277.818C229.704 281.228 232.691 284.221 234.402 288.068C235.087 289.611 235.525 291.187 235.749 292.768C238.047 289.014 238.447 284.206 237.626 279.88C236.642 274.696 234.084 270.032 231.447 265.579Z" fill="#E32730"/>
<path d="M214.946 276.512C214.946 272.402 214.946 268.292 214.946 264.182C213.055 270.297 210.501 276.134 206.599 281.288C203.52 285.355 200.067 289.255 199.856 294.708C199.679 299.293 201.462 303.521 204.226 306.971C204.027 304.045 204.211 301.084 204.806 298.185C205.606 294.276 207.274 290.717 209.254 287.313C211.304 283.792 213.568 280.387 214.946 276.512" fill="#E32730"/>
<path d="M215.093 286.025C215.05 285.039 214.997 284.052 214.933 283.066C212.322 287.794 209.161 292.233 207.797 297.566C206.209 303.776 206.793 310.418 209.189 316.3C210.269 311.212 212.77 306.37 214.835 301.676C215.171 296.479 214.98 291.236 215.093 286.025" fill="#E32730"/>
<path d="M214.946 252.951C214.946 248.841 214.946 244.731 214.946 240.62C213.913 243.098 212.825 245.55 211.65 247.959C208.375 254.682 204.26 260.878 200.557 267.344C196.38 274.639 192.284 285.019 197.287 292.814C197.596 290.654 198.284 288.56 199.362 286.607C201.395 282.922 204.392 279.933 206.62 276.385C211.054 269.324 213.197 261.099 214.946 252.951Z" fill="#E32730"/>
<path d="M218.101 283.066C218.037 284.052 217.984 285.039 217.941 286.025C218.055 291.236 217.863 296.479 218.199 301.676C220.265 306.373 222.765 311.212 223.845 316.3C226.241 310.418 226.825 303.776 225.237 297.566C223.873 292.233 220.713 287.794 218.101 283.066Z" fill="#E32730"/>
<path d="M226.435 281.288C222.533 276.134 219.979 270.297 218.088 264.182C218.088 268.292 218.088 272.402 218.088 276.512C219.466 280.387 221.729 283.792 223.78 287.313C225.76 290.714 227.428 294.276 228.228 298.185C228.823 301.084 229.007 304.045 228.808 306.971C231.572 303.521 233.355 299.293 233.178 294.708C232.967 289.255 229.514 285.355 226.435 281.288Z" fill="#E32730"/>
<path d="M160.76 286.025C160.717 285.039 160.664 284.052 160.6 283.066C157.988 287.794 154.828 292.233 153.463 297.566C151.875 303.776 152.459 310.418 154.855 316.3C155.935 311.212 158.436 306.37 160.502 301.676C160.838 296.479 160.646 291.236 160.76 286.025" fill="#E32730"/>
<path d="M160.613 276.512C160.613 272.402 160.613 268.292 160.613 264.182C158.722 270.297 156.167 276.134 152.266 281.288C149.187 285.355 145.734 289.255 145.523 294.708C145.346 299.293 147.129 303.521 149.893 306.971C149.694 304.045 149.878 301.084 150.472 298.185C151.273 294.276 152.941 290.717 154.921 287.313C156.971 283.792 159.235 280.387 160.613 276.512" fill="#E32730"/>
<path d="M162.183 236.77L162.206 236.767L162.187 236.721L162.169 236.769L162.183 236.77Z" fill="#E32730"/>
<path d="M163.767 283.066C163.703 284.052 163.651 285.039 163.607 286.025C163.721 291.236 163.529 296.479 163.865 301.676C165.931 306.373 168.432 311.212 169.512 316.3C171.908 310.418 172.492 303.776 170.904 297.566C169.54 292.233 166.379 287.794 163.767 283.066Z" fill="#E32730"/>
<path d="M172.102 281.288C168.2 276.134 165.645 270.297 163.755 264.182C163.755 268.292 163.755 272.402 163.755 276.512C165.132 280.387 167.396 283.792 169.446 287.313C171.426 290.714 173.094 294.276 173.895 298.185C174.489 301.084 174.674 304.045 174.475 306.971C177.238 303.521 179.021 299.293 178.844 294.708C178.633 289.255 175.18 285.355 172.102 281.288" fill="#E32730"/>
<path d="M160.613 252.951C160.613 248.841 160.613 244.731 160.613 240.62C159.58 243.098 158.491 245.55 157.317 247.959C154.041 254.682 149.927 260.878 146.224 267.344C142.046 274.639 137.951 285.019 142.953 292.814C143.262 290.654 143.95 288.56 145.029 286.607C147.062 282.922 150.058 279.933 152.287 276.385C156.721 269.324 158.863 261.099 160.613 252.951" fill="#E32730"/>
<path d="M177.114 265.579C175.173 262.303 173.165 259.068 171.247 255.777C168.395 250.88 165.953 245.785 163.755 240.564C163.755 244.692 163.755 248.82 163.755 252.949C164.725 257.464 165.808 261.962 167.331 266.315C168.751 270.379 170.596 274.294 173.022 277.818C175.37 281.228 178.358 284.221 180.068 288.068C180.754 289.611 181.192 291.187 181.415 292.768C183.714 289.014 184.114 284.206 183.293 279.88C182.309 274.696 179.751 270.032 177.114 265.579Z" fill="#E32730"/>
<path d="M157.091 320.796C156.984 326.523 159.461 331.744 162.184 336.604C164.906 331.744 167.383 326.523 167.277 320.796C167.172 315.167 164.518 309.81 162.184 304.702C159.849 309.81 157.196 315.167 157.091 320.796" fill="#E32730"/>
<path d="M117.768 281.288C113.866 276.134 111.312 270.297 109.421 264.182C109.421 268.292 109.421 272.402 109.421 276.512C110.799 280.387 113.063 283.792 115.113 287.313C117.093 290.714 118.761 294.276 119.562 298.185C120.156 301.084 120.34 304.045 120.141 306.971C122.905 303.521 124.688 299.293 124.511 294.708C124.3 289.255 120.847 285.355 117.768 281.288" fill="#E32730"/>
<path d="M109.434 283.066C109.37 284.052 109.318 285.039 109.274 286.025C109.388 291.236 109.196 296.479 109.532 301.676C111.598 306.373 114.099 311.212 115.179 316.3C117.575 310.418 118.159 303.776 116.571 297.566C115.206 292.233 112.046 287.794 109.434 283.066Z" fill="#E32730"/>
<path d="M106.279 276.512C106.279 272.402 106.279 268.292 106.279 264.182C104.389 270.297 101.834 276.134 97.9322 281.288C94.8537 285.355 91.4005 289.255 91.1897 294.708C91.0126 299.293 92.7955 303.521 95.5595 306.971C95.3606 304.045 95.5448 301.084 96.1389 298.185C96.9398 294.276 98.6078 290.717 100.588 287.313C102.637 283.792 104.902 280.387 106.279 276.512" fill="#E32730"/>
<path d="M107.85 236.77L107.872 236.767L107.854 236.721L107.836 236.769L107.85 236.77Z" fill="#E32730"/>
<path d="M106.279 252.951C106.279 248.841 106.279 244.731 106.279 240.62C105.247 243.098 104.158 245.55 102.984 247.959C99.7081 254.682 95.5934 260.878 91.8903 267.344C87.7129 274.639 83.6175 285.019 88.62 292.814C88.9291 290.654 89.617 288.56 90.6958 286.607C92.7284 282.922 95.7251 279.933 97.9533 276.385C102.388 269.324 104.53 261.099 106.279 252.951" fill="#E32730"/>
<path d="M122.78 265.579C120.839 262.303 118.832 259.068 116.914 255.777C114.062 250.88 111.62 245.785 109.421 240.564C109.421 244.692 109.421 248.82 109.421 252.949C110.391 257.464 111.475 261.962 112.997 266.315C114.418 270.379 116.263 274.294 118.689 277.818C121.037 281.228 124.024 284.221 125.735 288.068C126.42 289.611 126.858 291.187 127.082 292.768C129.381 289.014 129.781 284.206 128.959 279.88C127.975 274.696 125.417 270.032 122.78 265.579Z" fill="#E32730"/>
<path d="M102.757 320.796C102.65 326.523 105.128 331.744 107.85 336.604C110.573 331.744 113.05 326.523 112.943 320.796C112.838 315.167 110.185 309.81 107.85 304.702C105.516 309.81 102.862 315.167 102.757 320.796" fill="#E32730"/>
<path d="M106.427 286.025C106.383 285.039 106.331 284.052 106.267 283.066C103.655 287.794 100.494 292.233 99.13 297.566C97.5421 303.776 98.1259 310.418 100.522 316.3C101.602 311.212 104.103 306.37 106.169 301.676C106.505 296.479 106.313 291.236 106.427 286.025" fill="#E32730"/>
<path d="M53.5163 236.77L53.5389 236.767L53.5204 236.721L53.5022 236.769L53.5163 236.77Z" fill="#E32730"/>
<path d="M51.9461 252.951C51.9461 248.841 51.9461 244.731 51.9461 240.62C50.9135 243.098 49.8246 245.55 48.6505 247.959C45.3747 254.682 41.2601 260.878 37.557 267.344C33.3796 274.639 29.2842 285.019 34.2867 292.814C34.5958 290.654 35.2837 288.56 36.3625 286.607C38.3951 282.922 41.3918 279.933 43.62 276.385C48.0544 269.324 50.1968 261.099 51.9461 252.951Z" fill="#E32730"/>
<path d="M51.9461 276.512C51.9461 272.402 51.9461 268.292 51.9461 264.182C50.0553 270.297 47.5008 276.134 43.5988 281.288C40.5203 285.355 37.0671 289.255 36.8563 294.708C36.6792 299.293 38.4622 303.521 41.2261 306.971C41.0272 304.045 41.2111 301.084 41.8056 298.185C42.6064 294.276 44.2745 290.717 46.2544 287.313C48.3041 283.792 50.5682 280.387 51.9461 276.512" fill="#E32730"/>
<path d="M55.1007 283.066C55.0366 284.052 54.9844 285.039 54.9407 286.025C55.0545 291.236 54.8627 296.479 55.1988 301.676C57.2648 306.373 59.7655 311.212 60.8453 316.3C63.2414 310.418 63.8253 303.776 62.2374 297.566C60.8731 292.233 57.7128 287.794 55.1007 283.066Z" fill="#E32730"/>
<path d="M68.4471 265.579C66.506 262.303 64.4984 259.068 62.5807 255.777C59.7282 250.88 57.2865 245.785 55.0879 240.564C55.0879 244.692 55.0879 248.82 55.0879 252.949C56.058 257.464 57.1417 261.962 58.6638 266.315C60.0847 270.379 61.9295 274.294 64.3558 277.818C66.7038 281.228 69.6911 284.221 71.4017 288.068C72.0872 289.611 72.5251 291.187 72.7487 292.768C75.0472 289.014 75.4474 284.206 74.6262 279.88C73.6422 274.696 71.0839 270.032 68.4471 265.579" fill="#E32730"/>
<path d="M52.0933 286.025C52.0498 285.039 51.9974 284.052 51.9333 283.066C49.3212 287.794 46.1609 292.233 44.7966 297.566C43.2087 303.776 43.7925 310.418 46.1886 316.3C47.2688 311.212 49.7694 306.37 51.8352 301.676C52.1713 296.479 51.9795 291.236 52.0933 286.025" fill="#E32730"/>
<path d="M48.4239 320.796C48.3172 326.523 50.7948 331.744 53.5171 336.604C56.2392 331.744 58.7168 326.523 58.6101 320.796C58.5049 315.167 55.8516 309.81 53.5171 304.702C51.1824 309.81 48.5291 315.167 48.4239 320.796" fill="#E32730"/>
<path d="M63.4351 281.288C59.5332 276.134 56.9787 270.297 55.0879 264.182C55.0879 268.292 55.0879 272.402 55.0879 276.512C56.4658 280.387 58.7293 283.792 60.7796 287.313C62.7598 290.714 64.4278 294.276 65.2284 298.185C65.8228 301.084 66.007 304.045 65.8079 306.971C68.5718 303.521 70.3547 299.293 70.1776 294.708C69.9668 289.255 66.5136 285.355 63.4351 281.288Z" fill="#E32730"/>
<path d="M9.10208 281.288C5.19986 276.134 2.64538 270.297 0.754578 264.182C0.754578 268.292 0.754578 272.402 0.754578 276.512C2.13247 280.387 4.396 283.792 6.44627 287.313C8.42644 290.714 10.0942 294.276 10.8951 298.185C11.4895 301.084 11.6737 304.045 11.4745 306.971C14.2388 303.521 16.0217 299.293 15.8443 294.708C15.6338 289.255 12.1803 285.355 9.10208 281.288" fill="#E32730"/>
<path d="M14.1138 265.579C12.1727 262.303 10.1651 259.068 8.24742 255.777C5.39492 250.88 2.95318 245.785 0.754578 240.564C0.754578 244.692 0.754578 248.82 0.754578 252.949C1.7247 257.464 2.80838 261.962 4.33053 266.315C5.75161 270.379 7.59623 274.294 10.0228 277.818C12.3702 281.228 15.3577 284.221 17.0684 288.068C17.7538 289.611 18.1918 291.187 18.4154 292.768C20.7139 289.014 21.1141 284.206 20.2928 279.88C19.3089 274.696 16.7506 270.032 14.1138 265.579" fill="#E32730"/>
<path d="M27.9981 106.658C27.6621 111.855 27.8539 117.097 27.7401 122.307C27.7838 123.295 27.8359 124.281 27.9001 125.268C30.5121 120.541 33.6724 116.1 35.0367 110.767C36.6246 104.558 36.0408 97.9146 33.6447 92.0338C32.5648 97.1219 30.0639 101.962 27.9981 106.658Z" fill="#E32730"/>
<path d="M26.317 171.563L26.2945 171.566L26.313 171.612L26.3312 171.565L26.317 171.563" fill="#E32730"/>
<path d="M43.4709 121.728C41.4383 125.412 38.4418 128.4 36.2133 131.948C31.7789 139.009 29.6365 147.234 27.8873 155.382C27.8873 159.492 27.8873 163.603 27.8873 167.713C28.9199 165.235 30.0087 162.783 31.1829 160.374C34.4586 153.651 38.5733 147.455 42.2764 140.989C46.4538 133.694 50.5492 123.314 45.5467 115.518C45.2375 117.678 44.5497 119.772 43.4709 121.728" fill="#E32730"/>
<path d="M27.8873 131.822C27.8873 135.932 27.8873 140.041 27.8873 144.151C29.7781 138.036 32.3325 132.199 36.2348 127.045C39.313 122.979 42.7664 119.079 42.977 113.627C43.1544 109.039 41.3714 104.812 38.6072 101.362C38.8061 104.29 38.6222 107.249 38.0278 110.149C37.2269 114.058 35.5589 117.617 33.579 121.02C31.5292 124.541 29.2652 127.946 27.8873 131.822Z" fill="#E32730"/>
<path d="M31.4094 87.5385C31.5162 81.8112 29.0386 76.5903 26.3165 71.7291C23.5941 76.5903 21.1165 81.8112 21.2233 87.5385C21.3284 93.1664 23.9818 98.5239 26.3165 103.632C28.6509 98.5239 31.3043 93.1661 31.4094 87.5385Z" fill="#E32730"/>
<path d="M7.08462 115.566C4.78605 119.321 4.38589 124.127 5.20713 128.453C6.19111 133.638 8.7494 138.302 11.3862 142.754C13.3273 146.031 15.3349 149.265 17.2526 152.557C20.1051 157.453 22.5468 162.548 24.7454 167.769C24.7454 163.641 24.7454 159.513 24.7454 155.385C23.7753 150.869 22.6916 146.371 21.1695 142.018C19.7484 137.954 17.9037 134.04 15.4775 130.515C13.1298 127.105 10.1422 124.113 8.43155 120.265C7.74613 118.722 7.3082 117.147 7.08462 115.566Z" fill="#E32730"/>
<path d="M24.8927 122.307C24.7788 117.097 24.9706 111.855 24.6346 106.658C22.5686 101.961 20.0679 97.1219 18.988 92.0338C16.5919 97.9146 16.0081 104.558 17.596 110.767C18.9603 116.1 22.1206 120.541 24.7326 125.268C24.7968 124.281 24.8489 123.295 24.8927 122.307" fill="#E32730"/>
<path d="M9.65571 113.627C9.86653 119.079 13.3197 122.979 16.3979 127.045C20.3002 132.199 22.8546 138.036 24.7454 144.151C24.7454 140.041 24.7454 135.932 24.7454 131.822C23.3675 127.946 21.104 124.541 19.0538 121.02C17.0736 117.618 15.4058 114.057 14.6049 110.149C14.0105 107.249 13.8263 104.29 14.0255 101.362C11.2615 104.812 9.47859 109.039 9.65571 113.627" fill="#E32730"/>
<path d="M80.6504 171.563L80.6278 171.566L80.6463 171.612L80.6645 171.565L80.6504 171.563Z" fill="#E32730"/>
<path d="M85.7428 87.5385C85.8495 81.8112 83.3719 76.5903 80.6498 71.7291C77.9274 76.5903 75.4498 81.8112 75.5566 87.5385C75.6617 93.1664 78.3151 98.5239 80.6498 103.632C82.9843 98.5239 85.6376 93.1661 85.7428 87.5385Z" fill="#E32730"/>
<path d="M82.3314 106.658C81.9954 111.855 82.1872 117.097 82.0734 122.307C82.1168 123.295 82.1693 124.281 82.2334 125.268C84.8454 120.541 88.0058 116.1 89.3701 110.767C90.958 104.558 90.3741 97.9146 87.978 92.0338C86.8982 97.1219 84.3972 101.962 82.3314 106.658Z" fill="#E32730"/>
<path d="M61.418 115.566C59.1194 119.321 58.7193 124.127 59.5405 128.453C60.5245 133.638 63.0828 138.302 65.7196 142.754C67.6606 146.031 69.6682 149.265 71.5859 152.557C74.4384 157.453 76.8802 162.548 79.0788 167.769C79.0788 163.641 79.0788 159.513 79.0788 155.385C78.1087 150.869 77.025 146.371 75.5028 142.018C74.082 137.954 72.2371 134.04 69.8109 130.515C67.4631 127.105 64.4756 124.113 62.7649 120.265C62.0795 118.722 61.6416 117.147 61.418 115.566" fill="#E32730"/>
<path d="M79.226 122.307C79.1122 117.097 79.304 111.855 78.968 106.658C76.9019 101.961 74.4012 97.1219 73.3214 92.0338C70.9253 97.9146 70.3414 104.558 71.9293 110.767C73.2936 116.1 76.454 120.541 79.066 125.268C79.1301 124.281 79.1826 123.295 79.226 122.307" fill="#E32730"/>
<path d="M82.2206 131.822C82.2206 135.932 82.2206 140.041 82.2206 144.151C84.1114 138.036 86.6659 132.199 90.5678 127.045C93.6463 122.979 97.0995 119.079 97.3103 113.627C97.4874 109.039 95.7045 104.812 92.9405 101.362C93.1394 104.29 92.9555 107.249 92.3611 110.149C91.5602 114.058 89.8922 117.617 87.9123 121.02C85.8625 124.541 83.5985 127.946 82.2206 131.822Z" fill="#E32730"/>
<path d="M63.989 113.627C64.1998 119.079 67.653 122.979 70.7315 127.045C74.6335 132.199 77.1879 138.036 79.0787 144.151C79.0787 140.041 79.0787 135.932 79.0787 131.822C77.7009 127.946 75.4373 124.541 73.3871 121.02C71.4069 117.618 69.7388 114.057 68.9382 110.149C68.3441 107.249 68.1596 104.29 68.3588 101.362C65.5948 104.812 63.8119 109.039 63.989 113.627" fill="#E32730"/>
<path d="M97.8042 121.728C95.7719 125.412 92.7748 128.4 90.5466 131.948C86.1122 139.009 83.9698 147.234 82.2206 155.382C82.2206 159.492 82.2206 163.603 82.2206 167.713C83.2532 165.235 84.342 162.783 85.5162 160.374C88.7919 153.651 92.9066 147.455 96.6097 140.989C100.787 133.694 104.882 123.314 99.88 115.518C99.5709 117.678 98.883 119.772 97.8042 121.728" fill="#E32730"/>
<path d="M118.322 113.627C118.533 119.079 121.986 122.979 125.065 127.045C128.967 132.199 131.521 138.036 133.412 144.151C133.412 140.041 133.412 135.932 133.412 131.822C132.034 127.946 129.771 124.541 127.72 121.02C125.74 117.618 124.072 114.057 123.272 110.149C122.677 107.249 122.493 104.29 122.692 101.362C119.928 104.812 118.145 109.039 118.322 113.627" fill="#E32730"/>
<path d="M134.984 171.563L134.961 171.566L134.98 171.612L134.998 171.565L134.984 171.563Z" fill="#E32730"/>
<path d="M133.559 122.307C133.446 117.097 133.637 111.855 133.301 106.658C131.235 101.961 128.735 97.1219 127.655 92.0338C125.259 97.9146 124.675 104.558 126.263 110.767C127.627 116.1 130.787 120.541 133.399 125.268C133.463 124.281 133.516 123.295 133.559 122.307" fill="#E32730"/>
<path d="M115.751 115.566C113.453 119.321 113.053 124.127 113.874 128.453C114.858 133.638 117.416 138.302 120.053 142.754C121.994 146.031 124.002 149.265 125.919 152.557C128.772 157.453 131.214 162.548 133.412 167.769C133.412 163.641 133.412 159.513 133.412 155.385C132.442 150.869 131.358 146.371 129.836 142.018C128.415 137.954 126.57 134.04 124.144 130.515C121.796 127.105 118.809 124.113 117.098 120.265C116.413 118.722 115.975 117.147 115.751 115.566Z" fill="#E32730"/>
<path d="M136.665 106.658C136.329 111.855 136.521 117.097 136.407 122.307C136.45 123.295 136.503 124.281 136.567 125.268C139.179 120.541 142.339 116.1 143.703 110.767C145.291 104.558 144.707 97.9146 142.311 92.0338C141.231 97.1219 138.731 101.962 136.665 106.658Z" fill="#E32730"/>
<path d="M152.138 121.728C150.105 125.412 147.108 128.4 144.88 131.948C140.446 139.009 138.303 147.234 136.554 155.382C136.554 159.492 136.554 163.603 136.554 167.713C137.587 165.235 138.675 162.783 139.85 160.374C143.125 153.651 147.24 147.455 150.943 140.989C155.12 133.694 159.216 123.314 154.213 115.518C153.904 117.678 153.216 119.772 152.138 121.728" fill="#E32730"/>
<path d="M136.554 131.822C136.554 135.932 136.554 140.041 136.554 144.151C138.445 138.036 140.999 132.199 144.901 127.045C147.98 122.979 151.433 119.079 151.644 113.627C151.821 109.039 150.038 104.812 147.274 101.362C147.473 104.29 147.289 107.249 146.694 110.149C145.894 114.058 144.226 117.617 142.246 121.02C140.196 124.541 137.932 127.946 136.554 131.822Z" fill="#E32730"/>
<path d="M140.076 87.5385C140.183 81.8112 137.705 76.5903 134.983 71.7291C132.261 76.5903 129.783 81.8112 129.89 87.5385C129.995 93.1664 132.648 98.5239 134.983 103.632C137.318 98.5239 139.971 93.1661 140.076 87.5385Z" fill="#E32730"/>
<path d="M206.471 121.728C204.439 125.412 201.442 128.4 199.213 131.948C194.779 139.009 192.637 147.234 190.887 155.382C190.887 159.492 190.887 163.603 190.887 167.713C191.92 165.235 193.009 162.783 194.183 160.374C197.459 153.651 201.573 147.455 205.276 140.989C209.454 133.694 213.549 123.314 208.547 115.518C208.238 117.678 207.55 119.772 206.471 121.728" fill="#E32730"/>
<path d="M189.317 171.563L189.294 171.566L189.313 171.612L189.331 171.565L189.317 171.563Z" fill="#E32730"/>
<path d="M187.893 122.307C187.779 117.097 187.971 111.855 187.635 106.658C185.569 101.961 183.068 97.1219 181.988 92.0338C179.592 97.9146 179.008 104.558 180.596 110.767C181.96 116.1 185.121 120.541 187.733 125.268C187.797 124.281 187.849 123.295 187.893 122.307" fill="#E32730"/>
<path d="M190.887 131.822C190.887 135.932 190.887 140.041 190.887 144.151C192.778 138.036 195.333 132.199 199.234 127.045C202.313 122.979 205.766 119.079 205.977 113.627C206.154 109.039 204.371 104.812 201.607 101.362C201.806 104.29 201.622 107.249 201.028 110.149C200.227 114.058 198.559 117.617 196.579 121.02C194.529 124.541 192.265 127.946 190.887 131.822Z" fill="#E32730"/>
<path d="M172.656 113.627C172.867 119.079 176.32 122.979 179.398 127.045C183.3 132.199 185.855 138.036 187.745 144.151C187.745 140.041 187.745 135.932 187.745 131.822C186.368 127.946 184.104 124.541 182.054 121.02C180.074 117.618 178.406 114.057 177.605 110.149C177.011 107.249 176.826 104.29 177.025 101.362C174.262 104.812 172.479 109.039 172.656 113.627" fill="#E32730"/>
<path d="M190.998 106.658C190.662 111.855 190.854 117.097 190.74 122.307C190.783 123.295 190.836 124.281 190.9 125.268C193.512 120.541 196.672 116.1 198.037 110.767C199.625 104.558 199.041 97.9146 196.645 92.0338C195.565 97.1219 193.064 101.962 190.998 106.658" fill="#E32730"/>
<path d="M170.085 115.566C167.786 119.321 167.386 124.127 168.207 128.453C169.191 133.638 171.749 138.302 174.386 142.754C176.327 146.031 178.335 149.265 180.253 152.557C183.105 157.453 185.547 162.548 187.745 167.769C187.745 163.641 187.745 159.513 187.745 155.385C186.775 150.869 185.692 146.371 184.17 142.018C182.749 137.954 180.904 134.04 178.478 130.515C176.13 127.105 173.142 124.113 171.432 120.265C170.746 118.722 170.308 117.147 170.085 115.566Z" fill="#E32730"/>
<path d="M194.409 87.5385C194.516 81.8112 192.039 76.5903 189.317 71.7291C186.594 76.5903 184.117 81.8112 184.223 87.5385C184.328 93.1664 186.982 98.5239 189.317 103.632C191.651 98.5239 194.304 93.1661 194.409 87.5385Z" fill="#E32730"/>
<path d="M226.989 113.627C227.2 119.079 230.653 122.979 233.732 127.045C237.633 132.199 240.188 138.036 242.079 144.151C242.079 140.041 242.079 135.932 242.079 131.822C240.701 127.946 238.437 124.541 236.387 121.02C234.407 117.618 232.739 114.057 231.938 110.149C231.344 107.249 231.16 104.29 231.359 101.362C228.595 104.812 226.812 109.039 226.989 113.627" fill="#E32730"/>
<path d="M224.418 115.566C222.119 119.321 221.719 124.127 222.541 128.453C223.524 133.638 226.083 138.302 228.72 142.754C230.661 146.031 232.668 149.265 234.586 152.557C237.438 157.453 239.88 162.548 242.079 167.769C242.079 163.641 242.079 159.513 242.079 155.385C241.109 150.869 240.025 146.371 238.503 142.018C237.082 137.954 235.237 134.04 232.811 130.515C230.463 127.105 227.476 124.113 225.765 120.265C225.08 118.722 224.642 117.147 224.418 115.566Z" fill="#E32730"/>
<path d="M242.226 122.307C242.112 117.097 242.304 111.855 241.968 106.658C239.902 101.961 237.401 97.1219 236.321 92.0338C233.925 97.9146 233.341 104.558 234.929 110.767C236.294 116.1 239.454 120.541 242.066 125.268C242.13 124.281 242.183 123.295 242.226 122.307" fill="#E32730"/>
<path d="M216.517 196.035C214.182 201.143 211.529 206.501 211.424 212.128C211.317 217.855 213.795 223.076 216.517 227.938C219.239 223.076 221.717 217.855 221.61 212.128C221.505 206.5 218.852 201.143 216.517 196.035" fill="#E32730"/>
<path d="M225.237 188.9C223.873 183.566 220.713 179.126 218.101 174.399C218.037 175.385 217.984 176.372 217.941 177.36C218.055 182.569 217.863 187.812 218.199 193.008C220.265 197.705 222.765 202.545 223.845 207.633C226.241 201.752 226.825 195.108 225.237 188.9Z" fill="#E32730"/>
<path d="M233.178 186.04C232.967 180.587 229.514 176.688 226.435 172.622C222.533 167.468 219.979 161.63 218.088 155.516C218.088 159.625 218.088 163.735 218.088 167.845C219.466 171.72 221.729 175.126 223.78 178.647C225.76 182.049 227.428 185.61 228.228 189.518C228.823 192.418 229.007 195.377 228.808 198.305C231.572 194.855 233.355 190.628 233.178 186.04Z" fill="#E32730"/>
<path d="M216.516 128.104L216.539 128.101L216.521 128.055L216.502 128.102L216.516 128.104Z" fill="#E32730"/>
<path d="M218.088 144.282C219.058 148.797 220.142 153.295 221.664 157.648C223.085 161.712 224.93 165.627 227.356 169.151C229.704 172.561 232.691 175.554 234.402 179.402C235.087 180.944 235.525 182.52 235.749 184.101C238.047 180.346 238.447 175.54 237.626 171.213C236.642 166.029 234.084 161.365 231.447 156.913C229.506 153.636 227.498 150.401 225.581 147.11C222.728 142.213 220.286 137.118 218.088 131.898C218.088 136.026 218.088 140.154 218.088 144.282Z" fill="#E32730"/>
<path d="M215.093 177.36C215.05 176.372 214.997 175.385 214.933 174.399C212.322 179.126 209.161 183.566 207.797 188.9C206.209 195.108 206.793 201.752 209.189 207.633C210.269 202.545 212.77 197.705 214.835 193.008C215.171 187.812 214.98 182.569 215.093 177.36Z" fill="#E32730"/>
<path d="M214.946 167.845C214.946 163.735 214.946 159.625 214.946 155.516C213.055 161.63 210.501 167.468 206.599 172.622C203.52 176.688 200.067 180.587 199.856 186.04C199.679 190.628 201.462 194.855 204.226 198.305C204.027 195.377 204.211 192.418 204.806 189.518C205.606 185.609 207.274 182.049 209.254 178.647C211.304 175.125 213.568 171.72 214.946 167.845Z" fill="#E32730"/>
<path d="M197.287 184.149C197.596 181.989 198.284 179.894 199.362 177.939C201.395 174.255 204.392 171.266 206.62 167.718C211.054 160.658 213.197 152.433 214.946 144.285C214.946 140.174 214.946 136.064 214.946 131.954C213.913 134.431 212.825 136.883 211.65 139.292C208.375 146.015 204.26 152.212 200.557 158.678C196.38 165.972 192.284 176.352 197.287 184.149Z" fill="#E32730"/>
<path d="M162.183 128.104L162.206 128.101L162.187 128.055L162.169 128.102L162.183 128.104Z" fill="#E32730"/>
<path d="M163.755 144.282C164.725 148.797 165.808 153.295 167.331 157.648C168.751 161.712 170.596 165.627 173.022 169.151C175.37 172.561 178.358 175.554 180.068 179.402C180.754 180.944 181.192 182.52 181.415 184.101C183.714 180.346 184.114 175.54 183.293 171.213C182.309 166.029 179.751 161.365 177.114 156.913C175.173 153.636 173.165 150.401 171.247 147.11C168.395 142.213 165.953 137.118 163.755 131.898C163.755 136.026 163.755 140.154 163.755 144.282Z" fill="#E32730"/>
<path d="M178.844 186.04C178.633 180.587 175.18 176.688 172.102 172.622C168.2 167.468 165.645 161.63 163.755 155.516C163.755 159.625 163.755 163.735 163.755 167.845C165.132 171.72 167.396 175.126 169.446 178.647C171.426 182.049 173.094 185.61 173.895 189.518C174.489 192.418 174.674 195.377 174.475 198.305C177.238 194.855 179.021 190.628 178.844 186.04" fill="#E32730"/>
<path d="M162.184 196.035C159.849 201.143 157.196 206.501 157.091 212.128C156.984 217.855 159.461 223.076 162.184 227.938C164.906 223.076 167.383 217.855 167.277 212.128C167.172 206.5 164.518 201.143 162.184 196.035" fill="#E32730"/>
<path d="M170.904 188.9C169.54 183.566 166.379 179.126 163.767 174.399C163.703 175.385 163.651 176.372 163.607 177.36C163.721 182.569 163.529 187.812 163.865 193.008C165.931 197.705 168.432 202.545 169.512 207.633C171.908 201.752 172.492 195.108 170.904 188.9Z" fill="#E32730"/>
<path d="M142.953 184.149C143.262 181.989 143.95 179.894 145.029 177.939C147.062 174.255 150.058 171.266 152.287 167.718C156.721 160.658 158.863 152.433 160.613 144.285C160.613 140.174 160.613 136.064 160.613 131.954C159.58 134.431 158.491 136.883 157.317 139.292C154.041 146.015 149.927 152.212 146.224 158.678C142.046 165.972 137.951 176.352 142.953 184.149" fill="#E32730"/>
<path d="M160.76 177.36C160.717 176.372 160.664 175.385 160.6 174.399C157.988 179.126 154.828 183.566 153.463 188.9C151.875 195.108 152.459 201.752 154.855 207.633C155.935 202.545 158.436 197.705 160.502 193.008C160.838 187.812 160.646 182.569 160.76 177.36Z" fill="#E32730"/>
<path d="M160.613 167.845C160.613 163.735 160.613 159.625 160.613 155.516C158.722 161.63 156.167 167.468 152.266 172.622C149.187 176.688 145.734 180.587 145.523 186.04C145.346 190.628 147.129 194.855 149.893 198.305C149.694 195.377 149.878 192.418 150.472 189.518C151.273 185.609 152.941 182.049 154.921 178.647C156.971 175.125 159.235 171.72 160.613 167.845" fill="#E32730"/>
<path d="M106.427 177.36C106.383 176.372 106.331 175.385 106.267 174.399C103.655 179.126 100.494 183.566 99.13 188.9C97.5421 195.108 98.1259 201.752 100.522 207.633C101.602 202.545 104.103 197.705 106.169 193.008C106.505 187.812 106.313 182.569 106.427 177.36Z" fill="#E32730"/>
<path d="M109.421 144.282C110.391 148.797 111.475 153.295 112.997 157.648C114.418 161.712 116.263 165.627 118.689 169.151C121.037 172.561 124.024 175.554 125.735 179.402C126.42 180.944 126.858 182.52 127.082 184.101C129.381 180.346 129.781 175.54 128.959 171.213C127.975 166.029 125.417 161.365 122.78 156.913C120.839 153.636 118.832 150.401 116.914 147.11C114.062 142.213 111.62 137.118 109.421 131.898C109.421 136.026 109.421 140.154 109.421 144.282Z" fill="#E32730"/>
<path d="M124.511 186.04C124.3 180.587 120.847 176.688 117.768 172.622C113.866 167.468 111.312 161.63 109.421 155.516C109.421 159.625 109.421 163.735 109.421 167.845C110.799 171.72 113.063 175.126 115.113 178.647C117.093 182.049 118.761 185.61 119.562 189.518C120.156 192.418 120.34 195.377 120.141 198.305C122.905 194.855 124.688 190.628 124.511 186.04" fill="#E32730"/>
<path d="M116.571 188.9C115.206 183.566 112.046 179.126 109.434 174.399C109.37 175.385 109.318 176.372 109.274 177.36C109.388 182.569 109.196 187.812 109.532 193.008C111.598 197.705 114.099 202.545 115.179 207.633C117.575 201.752 118.159 195.108 116.571 188.9Z" fill="#E32730"/>
<path d="M107.85 196.035C105.516 201.143 102.862 206.501 102.757 212.128C102.65 217.855 105.128 223.076 107.85 227.938C110.573 223.076 113.05 217.855 112.943 212.128C112.838 206.5 110.185 201.143 107.85 196.035" fill="#E32730"/>
<path d="M107.85 128.104L107.872 128.101L107.854 128.055L107.836 128.102L107.85 128.104Z" fill="#E32730"/>
<path d="M88.62 184.149C88.9291 181.989 89.617 179.894 90.6958 177.939C92.7284 174.255 95.7251 171.266 97.9533 167.718C102.388 160.658 104.53 152.433 106.279 144.285C106.279 140.174 106.279 136.064 106.279 131.954C105.247 134.431 104.158 136.883 102.984 139.292C99.7081 146.015 95.5934 152.212 91.8903 158.678C87.7129 165.972 83.6175 176.352 88.62 184.149" fill="#E32730"/>
<path d="M106.279 167.845C106.279 163.735 106.279 159.625 106.279 155.516C104.389 161.63 101.834 167.468 97.9322 172.622C94.8537 176.688 91.4005 180.587 91.1897 186.04C91.0126 190.628 92.7955 194.855 95.5595 198.305C95.3606 195.377 95.5448 192.418 96.1389 189.518C96.9398 185.609 98.6078 182.049 100.588 178.647C102.637 175.125 104.902 171.72 106.279 167.845" fill="#E32730"/>
<path d="M53.5163 128.104L53.5389 128.101L53.5204 128.055L53.5022 128.102L53.5163 128.104Z" fill="#E32730"/>
<path d="M70.1776 186.04C69.9668 180.587 66.5136 176.688 63.4351 172.622C59.5332 167.468 56.9787 161.63 55.0879 155.516C55.0879 159.625 55.0879 163.735 55.0879 167.845C56.4658 171.72 58.7293 175.126 60.7796 178.647C62.7598 182.049 64.4278 185.61 65.2284 189.518C65.8228 192.418 66.007 195.377 65.8079 198.305C68.5718 194.855 70.3547 190.628 70.1776 186.04Z" fill="#E32730"/>
<path d="M55.0879 144.282C56.058 148.797 57.1417 153.295 58.6638 157.648C60.0847 161.712 61.9295 165.627 64.3558 169.151C66.7038 172.561 69.6911 175.554 71.4017 179.402C72.0872 180.944 72.5251 182.52 72.7487 184.101C75.0472 180.346 75.4474 175.54 74.6262 171.213C73.6422 166.029 71.0839 161.365 68.4471 156.913C66.506 153.636 64.4984 150.401 62.5807 147.11C59.7282 142.213 57.2865 137.118 55.0879 131.898C55.0879 136.026 55.0879 140.154 55.0879 144.282" fill="#E32730"/>
<path d="M53.5171 196.035C51.1824 201.143 48.5291 206.501 48.4239 212.128C48.3172 217.855 50.7948 223.076 53.5171 227.938C56.2392 223.076 58.7168 217.855 58.6101 212.128C58.5049 206.5 55.8516 201.143 53.5171 196.035" fill="#E32730"/>
<path d="M51.9461 167.845C51.9461 163.735 51.9461 159.625 51.9461 155.516C50.0553 161.63 47.5008 167.468 43.5988 172.622C40.5203 176.688 37.0671 180.587 36.8563 186.04C36.6792 190.628 38.4622 194.855 41.2261 198.305C41.0272 195.377 41.2111 192.418 41.8056 189.518C42.6064 185.609 44.2745 182.049 46.2544 178.647C48.3041 175.125 50.5682 171.72 51.9461 167.845Z" fill="#E32730"/>
<path d="M62.2374 188.9C60.8731 183.566 57.7128 179.126 55.1007 174.399C55.0366 175.385 54.9844 176.372 54.9407 177.36C55.0545 182.569 54.8627 187.812 55.1988 193.008C57.2648 197.705 59.7655 202.545 60.8453 207.633C63.2414 201.752 63.8253 195.108 62.2374 188.9Z" fill="#E32730"/>
<path d="M52.0933 177.36C52.0498 176.372 51.9974 175.385 51.9333 174.399C49.3212 179.126 46.1609 183.566 44.7966 188.9C43.2087 195.108 43.7925 201.752 46.1886 207.633C47.2688 202.545 49.7694 197.705 51.8352 193.008C52.1713 187.812 51.9795 182.569 52.0933 177.36Z" fill="#E32730"/>
<path d="M34.2867 184.149C34.5958 181.989 35.2837 179.894 36.3625 177.939C38.3951 174.255 41.3918 171.266 43.62 167.718C48.0544 160.658 50.1968 152.433 51.9461 144.285C51.9461 140.174 51.9461 136.064 51.9461 131.954C50.9135 134.431 49.8246 136.883 48.6505 139.292C45.3747 146.015 41.2601 152.212 37.557 158.678C33.3796 165.972 29.2842 176.352 34.2867 184.149Z" fill="#E32730"/>
<path d="M0.754578 144.282C1.7247 148.797 2.80838 153.295 4.33053 157.648C5.75161 161.712 7.59623 165.627 10.0228 169.151C12.3702 172.561 15.3577 175.554 17.0684 179.402C17.7538 180.944 18.1918 182.52 18.4154 184.101C20.7139 180.346 21.1141 175.54 20.2928 171.213C19.3089 166.029 16.7506 161.365 14.1138 156.913C12.1727 153.636 10.1651 150.401 8.24742 147.11C5.39492 142.213 2.95318 137.118 0.754578 131.898C0.754578 136.026 0.754578 140.154 0.754578 144.282" fill="#E32730"/>
<path d="M15.8443 186.04C15.6338 180.587 12.1803 176.688 9.10208 172.622C5.19986 167.468 2.64538 161.63 0.754578 155.516C0.754578 159.625 0.754578 163.735 0.754578 167.845C2.13247 171.72 4.396 175.126 6.44627 178.647C8.42644 182.049 10.0942 185.61 10.8951 189.518C11.4895 192.418 11.6737 195.377 11.4745 198.305C14.2388 194.855 16.0217 190.628 15.8443 186.04" fill="#E32730"/>
<path d="M42.2764 249.656C46.4538 242.361 50.5492 231.981 45.5467 224.185C45.2375 226.344 44.5497 228.439 43.4709 230.394C41.4383 234.078 38.4418 237.067 36.2133 240.615C31.7789 247.676 29.6365 255.901 27.8873 264.049C27.8873 268.159 27.8873 272.269 27.8873 276.38C28.9199 273.902 30.0087 271.45 31.1829 269.041C34.4586 262.318 38.5733 256.122 42.2764 249.656Z" fill="#E32730"/>
<path d="M11.3862 251.421C13.3273 254.698 15.3349 257.932 17.2526 261.223C20.1051 266.12 22.5468 271.215 24.7454 276.436C24.7454 272.308 24.7454 268.18 24.7454 264.052C23.7753 259.536 22.6916 255.038 21.1695 250.685C19.7484 246.621 17.9037 242.706 15.4775 239.182C13.1298 235.772 10.1422 232.779 8.43155 228.931C7.74613 227.389 7.3082 225.814 7.08462 224.233C4.78605 227.987 4.38589 232.794 5.20713 237.12C6.19111 242.304 8.7494 246.968 11.3862 251.421" fill="#E32730"/>
<path d="M26.313 280.279L26.3312 280.231L26.317 280.23L26.2945 280.233L26.313 280.279" fill="#E32730"/>
<path d="M26.3165 180.396C23.5941 185.257 21.1165 190.478 21.2233 196.205C21.3284 201.833 23.9818 207.191 26.3165 212.298C28.6509 207.191 31.3043 201.833 31.4094 196.205C31.5162 190.478 29.0386 185.257 26.3165 180.396" fill="#E32730"/>
<path d="M24.6346 215.325C22.5686 210.628 20.0679 205.789 18.988 200.7C16.5919 206.581 16.0081 213.225 17.596 219.433C18.9603 224.767 22.1206 229.207 24.7326 233.934C24.7968 232.948 24.8489 231.961 24.8927 230.973C24.7788 225.764 24.9706 220.522 24.6346 215.325" fill="#E32730"/>
<path d="M35.0367 219.433C36.6246 213.225 36.0408 206.581 33.6447 200.7C32.5648 205.789 30.0639 210.629 27.9981 215.325C27.6621 220.522 27.8539 225.764 27.7401 230.973C27.7838 231.961 27.8359 232.948 27.9001 233.934C30.5121 229.207 33.6724 224.767 35.0367 219.433Z" fill="#E32730"/>
<path d="M33.579 229.686C31.5292 233.208 29.2652 236.613 27.8873 240.488C27.8873 244.598 27.8873 248.708 27.8873 252.818C29.7781 246.703 32.3325 240.866 36.2348 235.711C39.313 231.645 42.7664 227.746 42.977 222.293C43.1544 217.705 41.3714 213.478 38.6072 210.029C38.8061 212.956 38.6222 215.915 38.0278 218.815C37.2269 222.724 35.5589 226.284 33.579 229.686" fill="#E32730"/>
<path d="M24.7454 240.488C23.3675 236.613 21.104 233.208 19.0538 229.686C17.0736 226.284 15.4058 222.724 14.6049 218.815C14.0105 215.915 13.8263 212.956 14.0255 210.029C11.2615 213.478 9.47859 217.705 9.65571 222.293C9.86653 227.746 13.3197 231.645 16.3979 235.711C20.3002 240.866 22.8546 246.703 24.7454 252.818C24.7454 248.708 24.7454 244.598 24.7454 240.488" fill="#E32730"/>
<path d="M80.6463 280.279L80.6645 280.231L80.6504 280.23L80.6278 280.233L80.6463 280.279Z" fill="#E32730"/>
<path d="M79.0787 240.488C77.7009 236.613 75.4373 233.208 73.3871 229.686C71.4069 226.284 69.7388 222.724 68.9382 218.815C68.3441 215.915 68.1596 212.956 68.3588 210.029C65.5948 213.478 63.8119 217.705 63.989 222.293C64.1998 227.746 67.653 231.645 70.7315 235.711C74.6335 240.866 77.1879 246.703 79.0787 252.818C79.0787 248.708 79.0787 244.598 79.0787 240.488" fill="#E32730"/>
<path d="M65.7196 251.421C67.6606 254.698 69.6682 257.932 71.5859 261.223C74.4384 266.12 76.8802 271.215 79.0788 276.436C79.0788 272.308 79.0788 268.18 79.0788 264.052C78.1087 259.536 77.025 255.038 75.5028 250.685C74.082 246.621 72.2371 242.706 69.8109 239.182C67.4631 235.772 64.4756 232.779 62.7649 228.931C62.0795 227.389 61.6416 225.814 61.418 224.233C59.1194 227.987 58.7193 232.794 59.5405 237.12C60.5245 242.304 63.0828 246.968 65.7196 251.421" fill="#E32730"/>
<path d="M80.6498 180.396C77.9274 185.257 75.4498 190.478 75.5566 196.205C75.6617 201.833 78.3151 207.191 80.6498 212.298C82.9843 207.191 85.6376 201.833 85.7428 196.205C85.8495 190.478 83.3719 185.257 80.6498 180.396" fill="#E32730"/>
<path d="M96.6097 249.656C100.787 242.361 104.882 231.981 99.88 224.185C99.5709 226.344 98.883 228.439 97.8042 230.394C95.7719 234.078 92.7748 237.067 90.5466 240.615C86.1122 247.676 83.9698 255.901 82.2206 264.049C82.2206 268.159 82.2206 272.269 82.2206 276.38C83.2532 273.902 84.342 271.45 85.5162 269.041C88.7919 262.318 92.9066 256.122 96.6097 249.656" fill="#E32730"/>
<path d="M87.9123 229.686C85.8625 233.208 83.5985 236.613 82.2206 240.488C82.2206 244.598 82.2206 248.708 82.2206 252.818C84.1114 246.703 86.6659 240.866 90.5678 235.711C93.6463 231.645 97.0995 227.746 97.3103 222.293C97.4874 217.705 95.7045 213.478 92.9405 210.029C93.1394 212.956 92.9555 215.915 92.3611 218.815C91.5602 222.724 89.8922 226.284 87.9123 229.686" fill="#E32730"/>
<path d="M89.3701 219.433C90.958 213.225 90.3741 206.581 87.978 200.7C86.8982 205.789 84.3972 210.629 82.3314 215.325C81.9954 220.522 82.1872 225.764 82.0734 230.973C82.1168 231.961 82.1693 232.948 82.2334 233.934C84.8454 229.207 88.0058 224.767 89.3701 219.433Z" fill="#E32730"/>
<path d="M78.968 215.325C76.9019 210.628 74.4012 205.789 73.3214 200.7C70.9253 206.581 70.3414 213.225 71.9293 219.433C73.2936 224.767 76.454 229.207 79.066 233.934C79.1301 232.948 79.1826 231.961 79.226 230.973C79.1122 225.764 79.304 220.522 78.968 215.325Z" fill="#E32730"/>
<path d="M142.246 229.686C140.196 233.208 137.932 236.613 136.554 240.488C136.554 244.598 136.554 248.708 136.554 252.818C138.445 246.703 140.999 240.866 144.901 235.711C147.98 231.645 151.433 227.746 151.644 222.293C151.821 217.705 150.038 213.478 147.274 210.029C147.473 212.956 147.289 215.915 146.694 218.815C145.894 222.724 144.226 226.284 142.246 229.686" fill="#E32730"/>
<path d="M134.983 180.396C132.261 185.257 129.783 190.478 129.89 196.205C129.995 201.833 132.648 207.191 134.983 212.298C137.318 207.191 139.971 201.833 140.076 196.205C140.183 190.478 137.705 185.257 134.983 180.396Z" fill="#E32730"/>
<path d="M143.703 219.433C145.291 213.225 144.707 206.581 142.311 200.7C141.231 205.789 138.731 210.629 136.665 215.325C136.329 220.522 136.521 225.764 136.407 230.973C136.45 231.961 136.503 232.948 136.567 233.934C139.179 229.207 142.339 224.767 143.703 219.433Z" fill="#E32730"/>
<path d="M133.412 240.488C132.034 236.613 129.771 233.208 127.72 229.686C125.74 226.284 124.072 222.724 123.272 218.815C122.677 215.915 122.493 212.956 122.692 210.029C119.928 213.478 118.145 217.705 118.322 222.293C118.533 227.746 121.986 231.645 125.065 235.711C128.967 240.866 131.521 246.703 133.412 252.818C133.412 248.708 133.412 244.598 133.412 240.488" fill="#E32730"/>
<path d="M133.301 215.325C131.235 210.628 128.735 205.789 127.655 200.7C125.259 206.581 124.675 213.225 126.263 219.433C127.627 224.767 130.787 229.207 133.399 233.934C133.463 232.948 133.516 231.961 133.559 230.973C133.446 225.764 133.637 220.522 133.301 215.325Z" fill="#E32730"/>
<path d="M150.943 249.656C155.12 242.361 159.216 231.981 154.213 224.185C153.904 226.344 153.216 228.439 152.138 230.394C150.105 234.078 147.108 237.067 144.88 240.615C140.446 247.676 138.303 255.901 136.554 264.049C136.554 268.159 136.554 272.269 136.554 276.38C137.587 273.902 138.675 271.45 139.85 269.041C143.125 262.318 147.24 256.122 150.943 249.656" fill="#E32730"/>
<path d="M120.053 251.421C121.994 254.698 124.002 257.932 125.919 261.223C128.772 266.12 131.214 271.215 133.412 276.436C133.412 272.308 133.412 268.18 133.412 264.052C132.442 259.536 131.358 255.038 129.836 250.685C128.415 246.621 126.57 242.706 124.144 239.182C121.796 235.772 118.809 232.779 117.098 228.931C116.413 227.389 115.975 225.814 115.751 224.233C113.453 227.987 113.053 232.794 113.874 237.12C114.858 242.304 117.416 246.968 120.053 251.421Z" fill="#E32730"/>
<path d="M134.98 280.279L134.998 280.231L134.984 280.23L134.961 280.233L134.98 280.279Z" fill="#E32730"/>
<path d="M198.037 219.433C199.625 213.225 199.041 206.581 196.645 200.7C195.565 205.789 193.064 210.629 190.998 215.325C190.662 220.522 190.854 225.764 190.74 230.973C190.783 231.961 190.836 232.948 190.9 233.934C193.512 229.207 196.672 224.767 198.037 219.433Z" fill="#E32730"/>
<path d="M205.276 249.656C209.454 242.361 213.549 231.981 208.547 224.185C208.238 226.344 207.55 228.439 206.471 230.394C204.439 234.078 201.442 237.067 199.213 240.615C194.779 247.676 192.637 255.901 190.887 264.049C190.887 268.159 190.887 272.269 190.887 276.38C191.92 273.902 193.009 271.45 194.183 269.041C197.459 262.318 201.573 256.122 205.276 249.656Z" fill="#E32730"/>
<path d="M196.579 229.686C194.529 233.208 192.265 236.613 190.887 240.488C190.887 244.598 190.887 248.708 190.887 252.818C192.778 246.703 195.333 240.866 199.234 235.711C202.313 231.645 205.766 227.746 205.977 222.293C206.154 217.705 204.371 213.478 201.607 210.029C201.806 212.956 201.622 215.915 201.028 218.815C200.227 222.724 198.559 226.284 196.579 229.686" fill="#E32730"/>
<path d="M187.635 215.325C185.569 210.628 183.068 205.789 181.988 200.7C179.592 206.581 179.008 213.225 180.596 219.433C181.96 224.767 185.121 229.207 187.733 233.934C187.797 232.948 187.849 231.961 187.893 230.973C187.779 225.764 187.971 220.522 187.635 215.325Z" fill="#E32730"/>
<path d="M174.386 251.421C176.327 254.698 178.335 257.932 180.253 261.223C183.105 266.12 185.547 271.215 187.745 276.436C187.745 272.308 187.745 268.18 187.745 264.052C186.775 259.536 185.692 255.038 184.17 250.685C182.749 246.621 180.904 242.706 178.478 239.182C176.13 235.772 173.142 232.779 171.432 228.931C170.746 227.389 170.308 225.814 170.085 224.233C167.786 227.987 167.386 232.794 168.207 237.12C169.191 242.304 171.749 246.968 174.386 251.421Z" fill="#E32730"/>
<path d="M187.745 240.488C186.368 236.613 184.104 233.208 182.054 229.686C180.074 226.284 178.406 222.724 177.605 218.815C177.011 215.915 176.826 212.956 177.025 210.029C174.262 213.478 172.479 217.705 172.656 222.293C172.867 227.746 176.32 231.645 179.398 235.711C183.3 240.866 185.855 246.703 187.745 252.818C187.745 248.708 187.745 244.598 187.745 240.488" fill="#E32730"/>
<path d="M189.317 180.396C186.594 185.257 184.117 190.478 184.223 196.205C184.328 201.833 186.982 207.191 189.317 212.298C191.651 207.191 194.304 201.833 194.409 196.205C194.516 190.478 192.039 185.257 189.317 180.396Z" fill="#E32730"/>
<path d="M189.313 280.279L189.331 280.231L189.317 280.23L189.294 280.233L189.313 280.279Z" fill="#E32730"/>
<path d="M242.079 240.488C240.701 236.613 238.437 233.208 236.387 229.686C234.407 226.284 232.739 222.724 231.938 218.815C231.344 215.915 231.16 212.956 231.359 210.029C228.595 213.478 226.812 217.705 226.989 222.293C227.2 227.746 230.653 231.645 233.732 235.711C237.633 240.866 240.188 246.703 242.079 252.818C242.079 248.708 242.079 244.598 242.079 240.488" fill="#E32730"/>
<path d="M228.72 251.421C230.661 254.698 232.668 257.932 234.586 261.223C237.438 266.12 239.88 271.215 242.079 276.436C242.079 272.308 242.079 268.18 242.079 264.052C241.109 259.536 240.025 255.038 238.503 250.685C237.082 246.621 235.237 242.706 232.811 239.182C230.463 235.772 227.476 232.779 225.765 228.931C225.08 227.389 224.642 225.814 224.418 224.233C222.119 227.987 221.719 232.794 222.541 237.12C223.524 242.304 226.083 246.968 228.72 251.421Z" fill="#E32730"/>
<path d="M241.968 215.325C239.902 210.628 237.401 205.789 236.321 200.7C233.925 206.581 233.341 213.225 234.929 219.433C236.294 224.767 239.454 229.207 242.066 233.934C242.13 232.948 242.183 231.961 242.226 230.973C242.112 225.764 242.304 220.522 241.968 215.325Z" fill="#E32730"/>
<path d="M207.797 80.2334C206.209 86.4415 206.793 93.0854 209.189 98.9662C210.269 93.8781 212.77 89.0381 214.835 84.3416C215.171 79.1451 214.98 73.9028 215.093 68.6933C215.05 67.7058 214.997 66.7196 214.933 65.7335C212.322 70.4594 209.161 74.8998 207.797 80.2334" fill="#E32730"/>
<path d="M211.424 103.461C211.317 109.189 213.795 114.41 216.517 119.271C219.239 114.41 221.717 109.189 221.61 103.461C221.505 97.8336 218.852 92.4761 216.517 87.3682C214.182 92.4761 211.529 97.8339 211.424 103.461Z" fill="#E32730"/>
<path d="M199.362 69.2725C201.395 65.5895 204.392 62.5984 206.62 59.0505C211.054 51.9898 213.197 43.7665 214.946 35.6165C214.946 31.5062 214.946 27.3959 214.946 23.2883C213.913 25.7659 212.825 28.2163 211.65 30.626C208.375 37.3497 204.26 43.5464 200.557 50.0121C196.38 57.3063 192.284 67.6867 197.287 75.4819C197.596 73.3222 198.284 71.2277 199.362 69.2725Z" fill="#E32730"/>
<path d="M216.539 19.4333L216.521 19.3871L216.502 19.436H216.516L216.539 19.4333" fill="#E32730"/>
<path d="M223.845 98.9662C226.241 93.0854 226.825 86.4415 225.237 80.2334C223.873 74.8998 220.713 70.4594 218.101 65.7335C218.037 66.7196 217.984 67.7058 217.941 68.6933C218.055 73.9028 217.863 79.1451 218.199 84.3416C220.265 89.0387 222.765 93.8781 223.845 98.9662" fill="#E32730"/>
<path d="M209.254 69.9805C211.304 66.4589 213.568 63.0549 214.946 59.1782C214.946 55.0679 214.946 50.9576 214.946 46.85C213.055 52.9625 210.501 58.8006 206.599 63.9541C203.52 68.0209 200.067 71.9207 199.856 77.3733C199.679 81.9612 201.462 86.1884 204.226 89.638C204.027 86.7105 204.211 83.7515 204.806 80.8515C205.606 76.9425 207.274 73.3828 209.254 69.9805Z" fill="#E32730"/>
<path d="M228.228 80.8515C228.823 83.7515 229.007 86.7105 228.808 89.638C231.572 86.1884 233.355 81.9612 233.178 77.3733C232.967 71.9207 229.514 68.0209 226.435 63.9541C222.533 58.8006 219.979 52.9625 218.088 46.85C218.088 50.9576 218.088 55.0679 218.088 59.1782C219.466 63.0549 221.729 66.4589 223.78 69.9805C225.76 73.3823 227.428 76.943 228.228 80.8515Z" fill="#E32730"/>
<path d="M227.356 60.4849C229.704 63.8943 232.691 66.8881 234.402 70.7354C235.087 72.2776 235.525 73.853 235.749 75.4341C238.047 71.6794 238.447 66.8718 237.626 62.5468C236.642 57.3634 234.084 52.6989 231.447 48.2463C229.506 44.97 227.498 41.7344 225.581 38.4418C222.728 33.5464 220.286 28.4527 218.088 23.2312C218.088 27.3578 218.088 31.4872 218.088 35.6138C219.058 40.1316 220.142 44.6277 221.664 48.9825C223.085 53.0466 224.93 56.9613 227.356 60.4849Z" fill="#E32730"/>
<path d="M169.512 98.9662C171.908 93.0854 172.492 86.4415 170.904 80.2334C169.54 74.8998 166.379 70.4594 163.767 65.7335C163.703 66.7196 163.651 67.7058 163.607 68.6933C163.721 73.9028 163.529 79.1451 163.865 84.3416C165.931 89.0387 168.432 93.8781 169.512 98.9662" fill="#E32730"/>
<path d="M157.091 103.461C156.984 109.189 159.461 114.41 162.184 119.271C164.906 114.41 167.383 109.189 167.277 103.461C167.172 97.8336 164.518 92.4761 162.184 87.3682C159.849 92.4761 157.196 97.8339 157.091 103.461Z" fill="#E32730"/>
<path d="M154.921 69.9805C156.971 66.4589 159.235 63.0549 160.613 59.1782C160.613 55.0679 160.613 50.9576 160.613 46.85C158.722 52.9625 156.167 58.8006 152.266 63.9541C149.187 68.0209 145.734 71.9207 145.523 77.3733C145.346 81.9612 147.129 86.1884 149.893 89.638C149.694 86.7105 149.878 83.7515 150.472 80.8515C151.273 76.9425 152.941 73.3828 154.921 69.9805" fill="#E32730"/>
<path d="M173.022 60.4849C175.37 63.8943 178.358 66.8881 180.068 70.7354C180.754 72.2776 181.192 73.853 181.415 75.4341C183.714 71.6794 184.114 66.8718 183.293 62.5468C182.309 57.3634 179.751 52.6989 177.114 48.2463C175.173 44.97 173.165 41.7344 171.247 38.4418C168.395 33.5464 165.953 28.4527 163.755 23.2312C163.755 27.3578 163.755 31.4872 163.755 35.6138C164.725 40.1316 165.808 44.6277 167.331 48.9825C168.751 53.0466 170.596 56.9613 173.022 60.4849Z" fill="#E32730"/>
<path d="M173.895 80.8515C174.489 83.7515 174.674 86.7105 174.475 89.638C177.238 86.1884 179.021 81.9612 178.844 77.3733C178.633 71.9207 175.18 68.0209 172.102 63.9541C168.2 58.8006 165.645 52.9625 163.755 46.85C163.755 50.9576 163.755 55.0679 163.755 59.1782C165.132 63.0549 167.396 66.4589 169.446 69.9805C171.426 73.3823 173.094 76.943 173.895 80.8515" fill="#E32730"/>
<path d="M162.206 19.4333L162.187 19.3871L162.169 19.436H162.183L162.206 19.4333" fill="#E32730"/>
<path d="M145.029 69.2725C147.062 65.5895 150.058 62.5984 152.287 59.0505C156.721 51.9898 158.863 43.7665 160.613 35.6165C160.613 31.5062 160.613 27.3959 160.613 23.2883C159.58 25.7659 158.491 28.2163 157.317 30.626C154.041 37.3497 149.927 43.5464 146.224 50.0121C142.046 57.3063 137.951 67.6867 142.953 75.4819C143.262 73.3222 143.95 71.2277 145.029 69.2725" fill="#E32730"/>
<path d="M153.463 80.2334C151.875 86.4415 152.459 93.0854 154.855 98.9662C155.935 93.8781 158.436 89.0381 160.502 84.3416C160.838 79.1451 160.646 73.9028 160.76 68.6933C160.717 67.7058 160.664 66.7196 160.6 65.7335C157.988 70.4594 154.828 74.8998 153.463 80.2334" fill="#E32730"/>
<path d="M115.179 98.9662C117.575 93.0854 118.159 86.4415 116.571 80.2334C115.206 74.8998 112.046 70.4594 109.434 65.7335C109.37 66.7196 109.318 67.7058 109.274 68.6933C109.388 73.9028 109.196 79.1451 109.532 84.3416C111.598 89.0387 114.099 93.8781 115.179 98.9662" fill="#E32730"/>
<path d="M99.13 80.2334C97.5421 86.4415 98.1259 93.0854 100.522 98.9662C101.602 93.8781 104.103 89.0381 106.169 84.3416C106.505 79.1451 106.313 73.9028 106.427 68.6933C106.383 67.7058 106.331 66.7196 106.267 65.7335C103.655 70.4594 100.494 74.8998 99.13 80.2334" fill="#E32730"/>
<path d="M107.872 19.4333L107.854 19.3871L107.836 19.436H107.85L107.872 19.4333" fill="#E32730"/>
<path d="M90.6958 69.2725C92.7284 65.5895 95.7251 62.5984 97.9533 59.0505C102.388 51.9898 104.53 43.7665 106.279 35.6165C106.279 31.5062 106.279 27.3959 106.279 23.2883C105.247 25.7659 104.158 28.2163 102.984 30.626C99.7081 37.3497 95.5934 43.5464 91.8903 50.0121C87.7129 57.3063 83.6175 67.6867 88.62 75.4819C88.9291 73.3222 89.617 71.2277 90.6958 69.2725" fill="#E32730"/>
<path d="M118.689 60.4849C121.037 63.8943 124.024 66.8881 125.735 70.7354C126.42 72.2776 126.858 73.853 127.082 75.4341C129.381 71.6794 129.781 66.8718 128.959 62.5468C127.975 57.3634 125.417 52.6989 122.78 48.2463C120.839 44.97 118.832 41.7344 116.914 38.4418C114.062 33.5464 111.62 28.4527 109.421 23.2312C109.421 27.3578 109.421 31.4872 109.421 35.6138C110.391 40.1316 111.475 44.6277 112.997 48.9825C114.418 53.0466 116.263 56.9613 118.689 60.4849Z" fill="#E32730"/>
<path d="M119.562 80.8515C120.156 83.7515 120.34 86.7105 120.141 89.638C122.905 86.1884 124.688 81.9612 124.511 77.3733C124.3 71.9207 120.847 68.0209 117.768 63.9541C113.866 58.8006 111.312 52.9625 109.421 46.85C109.421 50.9576 109.421 55.0679 109.421 59.1782C110.799 63.0549 113.063 66.4589 115.113 69.9805C117.093 73.3823 118.761 76.943 119.562 80.8515" fill="#E32730"/>
<path d="M102.757 103.461C102.65 109.189 105.128 114.41 107.85 119.271C110.573 114.41 113.05 109.189 112.943 103.461C112.838 97.8336 110.185 92.4761 107.85 87.3682C105.516 92.4761 102.862 97.8339 102.757 103.461Z" fill="#E32730"/>
<path d="M100.588 69.9805C102.637 66.4589 104.902 63.0549 106.279 59.1782C106.279 55.0679 106.279 50.9576 106.279 46.85C104.389 52.9625 101.834 58.8006 97.9322 63.9541C94.8537 68.0209 91.4005 71.9207 91.1897 77.3733C91.0126 81.9612 92.7955 86.1884 95.5595 89.638C95.3606 86.7105 95.5448 83.7515 96.1389 80.8515C96.9398 76.9425 98.6078 73.3828 100.588 69.9805" fill="#E32730"/>
<path d="M44.7966 80.2334C43.2087 86.4415 43.7925 93.0854 46.1886 98.9662C47.2688 93.8781 49.7694 89.0381 51.8352 84.3416C52.1713 79.1451 51.9795 73.9028 52.0933 68.6933C52.0498 67.7058 51.9974 66.7196 51.9333 65.7335C49.3212 70.4594 46.1609 74.8998 44.7966 80.2334" fill="#E32730"/>
<path d="M53.5389 19.4333L53.5204 19.3871L53.5022 19.436H53.5163L53.5389 19.4333" fill="#E32730"/>
<path d="M65.2284 80.8515C65.8228 83.7515 66.007 86.7105 65.8079 89.638C68.5718 86.1884 70.3547 81.9612 70.1776 77.3733C69.9668 71.9207 66.5136 68.0209 63.4351 63.9541C59.5332 58.8006 56.9787 52.9625 55.0879 46.85C55.0879 50.9576 55.0879 55.0679 55.0879 59.1782C56.4658 63.0549 58.7293 66.4589 60.7796 69.9805C62.7598 73.3823 64.4278 76.943 65.2284 80.8515" fill="#E32730"/>
<path d="M60.8453 98.9662C63.2414 93.0854 63.8253 86.4415 62.2374 80.2334C60.8731 74.8998 57.7128 70.4594 55.1007 65.7335C55.0366 66.7196 54.9844 67.7058 54.9407 68.6933C55.0545 73.9028 54.8627 79.1451 55.1988 84.3416C57.2648 89.0387 59.7655 93.8781 60.8453 98.9662" fill="#E32730"/>
<path d="M48.4239 103.461C48.3172 109.189 50.7948 114.41 53.5171 119.271C56.2392 114.41 58.7168 109.189 58.6101 103.461C58.5049 97.8336 55.8516 92.4761 53.5171 87.3682C51.1824 92.4761 48.5291 97.8339 48.4239 103.461Z" fill="#E32730"/>
<path d="M64.3558 60.4849C66.7038 63.8943 69.6911 66.8881 71.4017 70.7354C72.0872 72.2776 72.5251 73.853 72.7487 75.4341C75.0472 71.6794 75.4474 66.8718 74.6262 62.5468C73.6422 57.3634 71.0839 52.6989 68.4471 48.2463C66.506 44.97 64.4984 41.7344 62.5807 38.4418C59.7282 33.5464 57.2865 28.4527 55.0879 23.2312C55.0879 27.3578 55.0879 31.4872 55.0879 35.6138C56.058 40.1316 57.1417 44.6277 58.6638 48.9825C60.0847 53.0466 61.9295 56.9613 64.3558 60.4849" fill="#E32730"/>
<path d="M46.2544 69.9805C48.3041 66.4589 50.5682 63.0549 51.9461 59.1782C51.9461 55.0679 51.9461 50.9576 51.9461 46.85C50.0553 52.9625 47.5008 58.8006 43.5988 63.9541C40.5203 68.0209 37.0671 71.9207 36.8563 77.3733C36.6792 81.9612 38.4622 86.1884 41.2261 89.638C41.0272 86.7105 41.2111 83.7515 41.8056 80.8515C42.6064 76.9425 44.2745 73.3828 46.2544 69.9805Z" fill="#E32730"/>
<path d="M36.3625 69.2725C38.3951 65.5895 41.3918 62.5984 43.62 59.0505C48.0544 51.9898 50.1968 43.7665 51.9461 35.6165C51.9461 31.5062 51.9461 27.3959 51.9461 23.2883C50.9135 25.7659 49.8246 28.2163 48.6505 30.626C45.3747 37.3497 41.2601 43.5464 37.557 50.0121C33.3796 57.3063 29.2842 67.6867 34.2867 75.4819C34.5958 73.3222 35.2837 71.2277 36.3625 69.2725Z" fill="#E32730"/>
<path d="M10.8951 80.8515C11.4895 83.7515 11.6737 86.7105 11.4745 89.638C14.2388 86.1884 16.0217 81.9612 15.8443 77.3733C15.6338 71.9207 12.1803 68.0209 9.10208 63.9541C5.19986 58.8006 2.64538 52.9625 0.754578 46.85C0.754578 50.9576 0.754578 55.0679 0.754578 59.1782C2.13247 63.0549 4.396 66.4589 6.44627 69.9805C8.42644 73.3823 10.0942 76.943 10.8951 80.8515" fill="#E32730"/>
<path d="M10.0228 60.4849C12.3702 63.8943 15.3577 66.8881 17.0684 70.7354C17.7538 72.2776 18.1918 73.853 18.4154 75.4341C20.7139 71.6794 21.1141 66.8718 20.2928 62.5468C19.3089 57.3634 16.7506 52.6989 14.1138 48.2463C12.1727 44.97 10.1651 41.7344 8.24742 38.4418C5.39492 33.5464 2.95318 28.4527 0.754578 23.2312C0.754578 27.3578 0.754578 31.4872 0.754578 35.6138C1.7247 40.1316 2.80838 44.6277 4.33053 48.9825C5.75161 53.0466 7.59623 56.9613 10.0228 60.4849Z" fill="#E32730"/>
<path d="M38.6072 318.696C38.8061 321.622 38.6221 324.583 38.0277 327.482C37.2269 331.391 35.5588 334.95 33.5789 338.354C33.2581 338.905 32.9321 339.451 32.6047 340H39.5154C41.3679 337.324 42.8417 334.463 42.977 330.959C43.1544 326.373 41.3714 322.146 38.6072 318.696" fill="#E32730"/>
<path d="M33.6447 309.367C32.5648 314.455 30.0639 319.296 27.9981 323.991C27.6621 329.188 27.8539 334.431 27.7401 339.641C27.7455 339.761 27.752 339.881 27.7577 340H29.3907C31.6197 336.202 33.9248 332.448 35.0367 328.101C36.6246 321.891 36.0408 315.248 33.6447 309.367Z" fill="#E32730"/>
<path d="M43.4709 339.06C43.2954 339.381 43.1101 339.69 42.921 340H47.8129C47.6545 337.495 46.9694 335.069 45.5467 332.852C45.2375 335.012 44.5497 337.107 43.4709 339.06" fill="#E32730"/>
<path d="M14.6049 327.482C14.0105 324.583 13.8263 321.622 14.0255 318.696C11.2615 322.146 9.47859 326.373 9.65571 330.959C9.791 334.463 11.2648 337.324 13.1173 340H20.0282C19.7009 339.451 19.3746 338.905 19.0538 338.354C17.0736 334.952 15.4058 331.391 14.6049 327.482" fill="#E32730"/>
<path d="M24.6346 323.991C22.5686 319.294 20.0679 314.455 18.988 309.367C16.5919 315.248 16.0081 321.891 17.596 328.101C18.7079 332.448 21.013 336.202 23.242 340H24.875C24.8807 339.881 24.8872 339.761 24.8927 339.641C24.7788 334.431 24.9706 329.188 24.6346 323.991Z" fill="#E32730"/>
<path d="M21.2233 304.871C21.3284 310.5 23.9818 315.857 26.3165 320.964C28.6509 315.857 31.3043 310.5 31.4094 304.871C31.5162 299.144 29.0386 293.923 26.3165 289.063C23.5941 293.923 21.1165 299.144 21.2233 304.871" fill="#E32730"/>
<path d="M68.9382 327.482C68.3441 324.583 68.1596 321.622 68.3588 318.696C65.5948 322.146 63.8119 326.373 63.989 330.959C64.1243 334.463 65.5981 337.324 67.4506 340H74.3615C74.0342 339.451 73.7079 338.905 73.3871 338.354C71.4069 334.952 69.7388 331.391 68.9382 327.482" fill="#E32730"/>
<path d="M92.9406 318.696C93.1394 321.622 92.9555 324.583 92.3611 327.482C91.5603 331.391 89.8922 334.95 87.9123 338.354C87.5915 338.905 87.2655 339.451 86.9381 340H93.8488C95.7013 337.324 97.175 334.463 97.3103 330.959C97.4875 326.373 95.7045 322.146 92.9406 318.696" fill="#E32730"/>
<path d="M61.418 332.899C60.1184 335.023 59.4264 337.482 59.2183 340H64.0458C63.5723 339.231 63.1374 338.435 62.7649 337.599C62.0795 336.055 61.6416 334.48 61.418 332.899" fill="#E32730"/>
<path d="M97.8043 339.06C97.6288 339.381 97.4435 339.69 97.2544 340H102.146C101.988 337.495 101.303 335.069 99.8801 332.852C99.5709 335.012 98.883 337.107 97.8043 339.06" fill="#E32730"/>
<path d="M87.978 309.367C86.8982 314.455 84.3972 319.296 82.3314 323.991C81.9954 329.188 82.1872 334.431 82.0734 339.641C82.0788 339.761 82.0853 339.881 82.091 340H83.724C85.953 336.202 88.2581 332.448 89.3701 328.101C90.958 321.891 90.3741 315.248 87.978 309.367Z" fill="#E32730"/>
<path d="M75.5566 304.871C75.6617 310.5 78.3151 315.857 80.6498 320.964C82.9843 315.857 85.6376 310.5 85.7428 304.871C85.8495 299.144 83.3719 293.923 80.6498 289.063C77.9274 293.923 75.4498 299.144 75.5566 304.871" fill="#E32730"/>
<path d="M78.968 323.991C76.9019 319.294 74.4012 314.455 73.3214 309.367C70.9253 315.248 70.3414 321.891 71.9293 328.101C73.0413 332.448 75.3464 336.202 77.5754 340H79.2084C79.2141 339.881 79.2206 339.761 79.226 339.641C79.1122 334.431 79.304 329.188 78.968 323.991Z" fill="#E32730"/>
<path d="M142.311 309.367C141.231 314.455 138.731 319.296 136.665 323.991C136.329 329.188 136.521 334.431 136.407 339.641C136.412 339.761 136.419 339.881 136.424 340H138.057C140.286 336.202 142.591 332.448 143.703 328.101C145.291 321.891 144.707 315.248 142.311 309.367Z" fill="#E32730"/>
<path d="M152.138 339.06C151.962 339.381 151.777 339.69 151.588 340H156.48C156.321 337.495 155.636 335.069 154.213 332.852C153.904 335.012 153.216 337.107 152.138 339.06" fill="#E32730"/>
<path d="M133.301 323.991C131.235 319.294 128.735 314.455 127.655 309.367C125.259 315.248 124.675 321.891 126.263 328.101C127.375 332.448 129.68 336.202 131.909 340H133.542C133.547 339.881 133.554 339.761 133.559 339.641C133.446 334.431 133.637 329.188 133.301 323.991Z" fill="#E32730"/>
<path d="M147.274 318.696C147.473 321.622 147.289 324.583 146.694 327.482C145.894 331.391 144.226 334.95 142.246 338.354C141.925 338.905 141.599 339.451 141.271 340H148.182C150.035 337.324 151.508 334.463 151.644 330.959C151.821 326.373 150.038 322.146 147.274 318.696" fill="#E32730"/>
<path d="M115.751 332.899C114.452 335.023 113.76 337.482 113.552 340H118.379C117.906 339.231 117.471 338.435 117.098 337.599C116.413 336.055 115.975 334.48 115.751 332.899Z" fill="#E32730"/>
<path d="M129.89 304.871C129.995 310.5 132.648 315.857 134.983 320.964C137.318 315.857 139.971 310.5 140.076 304.871C140.183 299.144 137.705 293.923 134.983 289.063C132.261 293.923 129.783 299.144 129.89 304.871Z" fill="#E32730"/>
<path d="M123.272 327.482C122.677 324.583 122.493 321.622 122.692 318.696C119.928 322.146 118.145 326.373 118.322 330.959C118.458 334.463 119.931 337.324 121.784 340H128.695C128.368 339.451 128.041 338.905 127.72 338.354C125.74 334.952 124.072 331.391 123.272 327.482" fill="#E32730"/>
<path d="M187.635 323.991C185.569 319.294 183.068 314.455 181.988 309.367C179.592 315.248 179.008 321.891 180.596 328.101C181.708 332.448 184.013 336.202 186.242 340H187.875C187.881 339.881 187.887 339.761 187.893 339.641C187.779 334.431 187.971 329.188 187.635 323.991Z" fill="#E32730"/>
<path d="M196.645 309.367C195.565 314.455 193.064 319.296 190.998 323.991C190.662 329.188 190.854 334.431 190.74 339.641C190.745 339.761 190.752 339.881 190.758 340H192.391C194.62 336.202 196.925 332.448 198.037 328.101C199.625 321.891 199.041 315.248 196.645 309.367" fill="#E32730"/>
<path d="M184.223 304.871C184.328 310.5 186.982 315.857 189.317 320.964C191.651 315.857 194.304 310.5 194.409 304.871C194.516 299.144 192.039 293.923 189.317 289.063C186.594 293.923 184.117 299.144 184.223 304.871Z" fill="#E32730"/>
<path d="M170.085 332.899C168.785 335.023 168.093 337.482 167.885 340H172.713C172.239 339.231 171.804 338.435 171.432 337.599C170.746 336.055 170.308 334.48 170.085 332.899Z" fill="#E32730"/>
<path d="M177.605 327.482C177.011 324.583 176.826 321.622 177.025 318.696C174.262 322.146 172.479 326.373 172.656 330.959C172.791 334.463 174.265 337.324 176.117 340H183.028C182.701 339.451 182.375 338.905 182.054 338.354C180.074 334.952 178.406 331.391 177.605 327.482" fill="#E32730"/>
<path d="M206.471 339.06C206.295 339.381 206.11 339.69 205.921 340H210.813C210.655 337.495 209.969 335.069 208.547 332.852C208.238 335.012 207.55 337.107 206.471 339.06" fill="#E32730"/>
<path d="M201.607 318.696C201.806 321.622 201.622 324.583 201.028 327.482C200.227 331.391 198.559 334.95 196.579 338.354C196.258 338.905 195.932 339.451 195.605 340H202.515C204.368 337.324 205.842 334.463 205.977 330.959C206.154 326.373 204.371 322.146 201.607 318.696" fill="#E32730"/>
<path d="M224.418 332.899C223.118 335.023 222.426 337.482 222.218 340H227.046C226.572 339.231 226.137 338.435 225.765 337.599C225.08 336.055 224.642 334.48 224.418 332.899" fill="#E32730"/>
<path d="M241.968 323.991C239.902 319.294 237.401 314.455 236.321 309.367C233.925 315.248 233.341 321.891 234.929 328.101C236.041 332.448 238.346 336.202 240.575 340H242.208C242.214 339.881 242.221 339.761 242.226 339.641C242.112 334.431 242.304 329.188 241.968 323.991Z" fill="#E32730"/>
<path d="M231.938 327.482C231.344 324.583 231.16 321.622 231.359 318.696C228.595 322.146 226.812 326.373 226.989 330.959C227.124 334.463 228.598 337.324 230.451 340H237.362C237.034 339.451 236.708 338.905 236.387 338.354C234.407 334.952 232.739 331.391 231.938 327.482" fill="#E32730"/>
</g>
<defs>
<filter id="filter0_d" x="0" y="0" width="262" height="362" filterUnits="userSpaceOnUse" color-interpolation-filters="sRGB">
<feFlood flood-opacity="0" result="BackgroundImageFix"/>
<feColorMatrix in="SourceAlpha" type="matrix" values="0 0 0 0 0 0 0 0 0 0 0 0 0 0 0 0 0 0 127 0"/>
<feOffset dx="4" dy="4"/>
<feGaussianBlur stdDeviation="2"/>
<feColorMatrix type="matrix" values="0 0 0 0 0 0 0 0 0 0 0 0 0 0 0 0 0 0 0.25 0"/>
<feBlend mode="normal" in2="BackgroundImageFix" result="effect1_dropShadow"/>
<feBlend mode="normal" in="SourceGraphic" in2="effect1_dropShadow" result="shape"/>
</filter>
</defs>
</svg>
