<svg width="172" height="203" viewBox="0 0 172 203" fill="none" xmlns="http://www.w3.org/2000/svg">
<g filter="url(#filter0_d)">
<path d="M106.326 154.069C105.279 148.785 108.419 143.906 113.35 142.265C119.337 140.27 125.91 143.419 130.451 147.316C137.512 153.377 146.503 166.92 138.065 175.511C136.245 177.365 132.868 178.959 130.241 179.07C123.757 179.344 118.521 175.095 114.842 170.236C111.407 165.703 107.443 159.724 106.326 154.069ZM99.6992 162.372C104.771 175.162 115.573 195.6 132.759 190.681C139.753 188.681 147.068 182.081 150.32 175.753C159.934 157.058 135.729 138.852 121.751 130.359C115.76 126.718 108.993 123.551 104.582 117.903C101.973 114.567 99.0626 110.149 96.2782 105.587L80.2013 115.637C83.1229 120.654 86.0913 125.652 88.3052 131.026C92.5442 141.309 95.6006 152.037 99.6992 162.372" fill="#E32730"/>
<path d="M116.424 187.512C108.489 181.707 102.993 170.638 99.7665 162.543C102.99 170.638 108.489 181.707 116.424 187.512Z" fill="#FABFAA"/>
<path d="M126.064 191.36C122.522 191.04 119.311 189.626 116.424 187.512C119.311 189.623 122.522 191.04 126.064 191.36Z" fill="#D3A18F"/>
<path d="M99.74 162.476C99.7255 162.442 99.7135 162.408 99.6992 162.372C97.0423 155.674 94.8193 148.815 92.4376 142.017L92.4401 142.017C94.8242 148.816 97.0421 155.677 99.6992 162.372C99.7135 162.408 99.7255 162.442 99.74 162.476Z" fill="#FABFAA"/>
<path d="M126.069 191.36L126.064 191.36C122.523 191.04 119.311 189.623 116.424 187.512C108.489 181.707 102.99 170.638 99.7665 162.543C99.7586 162.52 99.7482 162.497 99.74 162.476C99.7255 162.442 99.7135 162.408 99.6992 162.372C97.042 155.677 94.8242 148.816 92.4401 142.017C92.5952 142.189 92.7611 142.355 92.9162 142.527C96.341 146.336 99.616 150.915 101.488 155.709C103.064 159.748 104.169 163.814 106.215 167.675C108.258 171.527 110.648 175.231 113.503 178.536C115.796 181.194 118.328 183.828 121.672 185.111C123.166 185.688 124.73 186.055 126.316 186.198C127.579 186.312 128.855 186.284 130.119 186.104C143.824 184.16 151.659 169.763 145.861 157.402C144.17 153.794 141.6 149.746 138.746 146.938C135.289 143.537 131.553 140.34 127.576 137.561C119.432 131.875 110.13 127.588 102.802 120.79C98.7149 117.004 95.7105 112.432 92.9695 107.668L94.0736 106.979L94.067 106.969L96.2782 105.587C99.0626 110.149 101.973 114.567 104.582 117.903C108.993 123.551 115.76 126.718 121.751 130.359C133.935 137.763 153.887 152.542 152.443 168.594C152.232 170.96 151.554 173.352 150.32 175.753C147.068 182.081 139.753 188.681 132.759 190.681C130.411 191.353 128.183 191.551 126.071 191.361L126.069 191.36" fill="#E32730"/>
<path d="M94.0736 106.979L33.7102 10.4368C33.7102 10.4368 23.0332 17.7961 29.3758 33.4505L71.5908 100.963L78.1559 106.976L82.6079 114.119L94.0736 106.979" fill="#AEACAC"/>
<path d="M32.5766 11.3965C32.5766 11.3965 32.5766 11.3965 32.5742 11.3963C32.9339 11.0547 33.2301 10.8052 33.4326 10.6477C33.2301 10.8052 32.9339 11.0547 32.5766 11.3965Z" fill="#E7E6E7"/>
<path d="M82.6079 114.119L81.3252 112.058L78.1559 106.976L76.5397 105.495L77.4531 104.638C78.7124 105.513 79.8554 106.562 80.824 107.875C81.6896 109.05 82.7627 111.181 84.4288 111.331C84.5907 111.346 84.7569 111.341 84.9298 111.316C85.7719 111.194 86.5695 110.59 87.2427 110.114C88.1784 109.455 89.3054 108.791 90.0191 107.866C91.5113 105.937 89.797 103.93 88.7262 102.218C87.4163 100.124 86.1089 98.0303 84.7993 95.9337L85.9666 94.0154L94.0736 106.979L92.9695 107.668L88.0215 110.749L84.2785 113.08L82.6079 114.119V114.119ZM75.4023 80.8497C71.1933 74.1578 66.9256 67.5033 62.6025 60.879C56.6163 51.7068 50.4837 42.6268 44.636 33.3667C40.165 26.2947 36.6672 18.6777 32.5766 11.3965C32.9339 11.0546 33.2301 10.8052 33.4326 10.6477C33.6059 10.5077 33.7075 10.439 33.7102 10.4368L76.5546 78.9602L75.4023 80.8497" fill="#9E9D9D"/>
<path d="M102.35 149.859C101.299 149.764 100.186 144.989 99.6932 143.94C98.0943 140.542 95.6138 137.453 93.8185 134.173C92.3701 131.526 91.5038 128.829 90.1282 126.184C88.4463 122.954 85.9895 120.076 84.1317 116.931C83.9046 116.554 90.4329 112.016 91.3494 111.875C91.5683 111.843 91.7748 111.836 91.974 111.854C93.9265 112.03 94.9383 114.534 96.118 115.929C97.8811 118.009 99.5948 120.024 101.295 122.186C104.614 126.395 107.793 130.224 112.595 132.689C114.07 133.447 122.167 135.865 120.732 138.081C120.143 138.992 118.173 138.924 116.442 138.768C116.183 138.745 115.929 138.719 115.685 138.695C115.442 138.67 115.21 138.647 114.994 138.627C114.605 138.592 114.27 138.572 114.021 138.58C112.181 138.637 110.728 138.709 109.144 139.626C105.472 141.75 104.3 144.941 103.219 148.609C102.944 149.533 102.649 149.886 102.35 149.859" fill="#E32730"/>
<path d="M39.78 169.946C36.1616 174.847 30.9745 179.157 24.4872 178.958C21.8583 178.876 18.4635 177.322 16.6202 175.491C8.08688 167 16.9164 153.35 23.9034 147.207C28.4024 143.26 34.9353 140.033 40.9481 141.957C45.8941 143.543 49.0877 148.383 48.1052 153.677C47.0536 159.347 43.1631 165.371 39.78 169.946ZM65.8583 130.426C68.0103 125.026 70.9177 119.991 73.7811 114.945L57.5858 105.082C54.8587 109.676 51.9939 114.128 49.4306 117.492C45.0819 123.195 38.3568 126.437 32.4079 130.149C18.5278 138.808 -5.45861 157.294 4.36822 175.876C7.69475 182.165 15.0908 188.68 22.1058 190.598C39.3507 195.313 49.9088 174.752 54.8347 161.902C58.8123 151.52 61.7396 140.758 65.8583 130.426" fill="#E32730"/>
<path d="M56.72 156.76C58.5057 151.691 60.131 146.563 61.8513 141.468C61.854 141.466 61.854 141.466 61.8542 141.463C60.1362 146.561 58.5059 151.689 56.72 156.76Z" fill="#D3A18F"/>
<path d="M25.4821 191.217C24.3863 191.118 23.2599 190.913 22.1058 190.598C15.0908 188.68 7.69473 182.165 4.3682 175.876C2.46376 172.275 1.8296 168.675 2.14519 165.151C3.4604 150.496 21.2176 137.13 32.4078 130.149C38.3568 126.437 45.0819 123.195 49.4306 117.492C51.9939 114.128 54.8587 109.676 57.5858 105.082L59.8157 106.441L59.8098 106.45L60.9191 107.123C58.2365 111.92 55.2849 116.526 51.2429 120.362C43.9933 127.245 34.7413 131.64 26.6647 137.421C22.7241 140.244 19.0243 143.488 15.6055 146.928C12.7831 149.769 10.2658 153.847 8.61501 157.477C2.96165 169.902 10.9676 184.207 24.6909 185.991C24.8995 186.017 25.1107 186.041 25.3199 186.06C27.9747 186.3 30.651 185.884 33.1251 184.899C36.4533 183.575 38.9586 180.909 41.2217 178.229C44.0363 174.89 46.3793 171.157 48.3761 167.282C50.3814 163.396 51.4374 159.318 52.9661 155.261C54.7793 150.443 58.0052 145.831 61.3831 141.981C61.537 141.806 61.6954 141.637 61.8512 141.468C60.131 146.563 58.5056 151.691 56.7199 156.76C56.1125 158.483 55.4856 160.199 54.8347 161.902C50.2374 173.893 40.741 192.594 25.4821 191.217" fill="#E32730"/>
<path d="M59.8098 106.45L119.038 9.20546C119.038 9.20546 129.799 16.4385 123.639 32.1646L82.2202 100.167L75.7249 106.26L71.357 113.455L59.8098 106.45" fill="#AEACAC"/>
<path d="M71.3571 113.455L66.4797 110.497L71.3571 113.455L75.725 106.26L76.5397 105.495L75.725 106.26L71.3571 113.455Z" fill="#C3C2C3"/>
<path d="M77.4531 104.638L80.7444 101.553C80.7471 101.551 80.7471 101.551 80.7496 101.551L77.4531 104.638Z" fill="#9E9D9D"/>
<path d="M76.5396 105.495L77.453 104.638L76.5396 105.495Z" fill="#918F8F"/>
<path d="M71.357 113.455L66.4796 110.497L60.9191 107.123L59.8098 106.45L119.038 9.20546C119.038 9.20546 119.501 9.521 120.178 10.152C116.177 17.4787 112.767 25.1374 108.383 32.2613C102.642 41.5902 96.6188 50.7429 90.7382 59.9839C84.8602 69.2226 79.0982 78.5119 73.4418 87.8835C70.6726 92.4717 67.8841 97.0507 65.0986 101.625C64.0465 103.35 62.3576 105.372 63.874 107.291C64.595 108.205 65.7367 108.853 66.6773 109.503C67.3558 109.968 68.1606 110.566 69.004 110.68C69.0363 110.682 69.0662 110.685 69.0986 110.688C70.9988 110.86 72.1462 108.467 73.0675 107.19C75.0367 104.455 77.772 102.829 80.7444 101.553L77.453 104.638L76.5396 105.495L75.7249 106.26L71.357 113.455" fill="#9E9D9D"/>
<path d="M51.9692 149.421C51.6928 149.397 51.4166 149.035 51.1523 148.18C50.0232 144.528 48.8188 141.349 45.1248 139.27C44.076 138.679 43.0895 138.454 42.0161 138.357C41.4533 138.306 40.8647 138.291 40.2333 138.277C39.2331 138.259 36.8979 138.734 35.2219 138.582C34.4473 138.513 33.8129 138.31 33.5144 137.861C32.0584 135.661 40.1263 133.148 41.5896 132.373C46.359 129.854 49.4974 125.987 52.7631 121.74C54.4415 119.556 56.1318 117.519 57.8677 115.421C59.1271 113.903 60.1694 111.09 62.4506 111.296C62.4954 111.3 62.5428 111.304 62.5899 111.311C63.5068 111.444 70.0868 115.902 69.8665 116.283C68.0441 119.451 65.6224 122.358 63.9784 125.607C62.6336 128.267 61.8017 130.974 60.3837 133.638C58.6245 136.939 56.1791 140.055 54.6228 143.472C54.1313 144.55 53.0401 149.518 51.9692 149.421" fill="#E32730"/>
<path d="M25.6359 183.894C24.9934 183.836 24.3533 183.696 23.7199 183.453C20.311 182.138 17.7825 180.805 15.0566 178.433C11.3927 175.242 8.45952 169.826 9.23784 164.874C9.45722 163.473 9.76966 162.098 10.1883 160.742C10.6853 159.13 11.7517 157.83 12.282 156.239C12.8692 154.461 13.3514 152.68 14.4813 151.15C15.0567 150.365 16.4956 148.527 17.7533 148.64C17.8031 148.645 17.8527 148.652 17.9018 148.664C19.359 148.986 17.4443 150.784 16.9077 151.499C15.7765 153.016 14.5525 154.533 13.9684 156.358C13.4865 157.859 13.0379 159.38 12.532 160.868C12.1254 162.062 11.36 163.088 11.1351 164.328C10.94 165.432 10.9893 166.888 11.1193 167.952C11.374 170.081 12.2718 172.123 13.5486 173.833C14.9727 175.746 16.6006 177.126 18.5883 178.47C20.2186 179.574 21.4771 180.012 22.9465 180.144C23.7758 180.219 24.6716 180.197 25.7388 180.14C28.95 179.973 31.8888 178.513 34.8406 177.299C35.4299 177.056 36.419 176.751 37.1213 176.814C37.7365 176.87 38.1304 177.206 37.848 178.11C37.489 179.25 36.3415 179.445 35.4844 180.041C34.758 180.55 34.2692 181.237 33.4655 181.656C31.0419 182.916 28.3229 184.14 25.6359 183.894" fill="#E32730"/>
<path d="M79.8136 95.3707C78.8409 96.9676 76.7589 97.4751 75.162 96.5024C73.5626 95.5295 73.0575 93.4477 74.0302 91.8508C75.0006 90.2512 77.0874 89.7466 78.6818 90.7191C80.2812 91.692 80.786 93.7762 79.8136 95.3707Z" fill="#444547"/>
<path d="M79.7529 95.0413C78.9096 96.429 77.1023 96.8684 75.7124 96.0224C74.3273 95.1793 73.8906 93.3698 74.7312 91.9844C75.577 90.597 77.3842 90.1576 78.7718 91.0009C80.1593 91.8467 80.5985 93.6564 79.7529 95.0413Z" fill="#AEACAC"/>
<path d="M77.5635 95.4036C77.2198 95.3726 76.8756 95.236 76.6274 95.0379C75.9735 94.5219 75.3499 93.6697 75.7093 92.7757C75.8768 92.3665 76.3918 91.946 76.7545 91.7101C77.0107 91.5424 77.4873 91.3796 77.836 91.411C77.8808 91.4151 77.9254 91.4216 77.9646 91.4327C78.3688 91.5445 78.5 92.066 78.6163 92.418C78.8597 93.1429 79.1049 94.1267 78.7284 94.8484C78.4946 95.2968 78.0292 95.4456 77.5635 95.4036" fill="#BDBBBC"/>
</g>
<defs>
<filter id="filter0_d" x="0" y="4.68848" width="171.632" height="198.235" filterUnits="userSpaceOnUse" color-interpolation-filters="sRGB">
<feFlood flood-opacity="0" result="BackgroundImageFix"/>
<feColorMatrix in="SourceAlpha" type="matrix" values="0 0 0 0 0 0 0 0 0 0 0 0 0 0 0 0 0 0 127 0"/>
<feOffset dx="10" dy="4"/>
<feGaussianBlur stdDeviation="2"/>
<feColorMatrix type="matrix" values="0 0 0 0 0 0 0 0 0 0 0 0 0 0 0 0 0 0 0.25 0"/>
<feBlend mode="normal" in2="BackgroundImageFix" result="effect1_dropShadow"/>
<feBlend mode="normal" in="SourceGraphic" in2="effect1_dropShadow" result="shape"/>
</filter>
</defs>
</svg>
