<svg width="151" height="124" viewBox="0 0 151 124" fill="none" xmlns="http://www.w3.org/2000/svg">
<path d="M93.4425 15.6704L90.6379 21.7766L83.6919 29.2928L85.0633 68.9652L83.7572 80.632L88.7473 99.9269C89.5142 104.951 90.2816 109.974 91.0485 114.998C91.3638 117.063 91.1514 121.876 93.5131 122.012C95.329 122.118 98.6212 118.474 99.9546 117.446C102.38 115.574 104.805 113.703 107.23 111.833C108.396 110.934 109.579 110.018 110.436 108.82C112.55 105.872 112.491 100.367 113.021 96.8544C113.342 94.7358 113.152 90.9022 114.207 89.0063C114.207 89.0063 126.899 66.1962 126.899 66.1962L137.142 55.1799C137.142 55.1799 134.808 37.0945 131.546 27.9068C128.283 18.719 127.238 16.0382 127.238 16.0382L112.146 17.0878L93.4425 15.6704" fill="#444D56"/>
<path d="M122.542 92.8548L122.103 105.182C122.103 105.182 119.754 122.453 120.096 121.756C120.438 121.059 142.756 104.525 142.756 104.525C142.756 104.525 147.241 89.7748 148.885 81.3272C150.53 72.8795 150.5 66.4999 150.5 66.4999C150.5 66.4999 140.019 73.4734 134.604 78.6825C129.187 83.8916 122.542 92.8548 122.542 92.8548Z" fill="#444D56"/>
<path d="M122.657 93.0276L122.218 105.355C122.218 105.355 119.868 122.626 120.211 121.929C120.553 121.232 142.87 104.697 142.87 104.697C142.87 104.697 147.355 89.9475 149 81.4999C150.645 73.0523 150.729 69.3452 150.615 66.6726C150.5 64 139.62 72.5711 134.718 78.8552C129.302 84.0643 122.657 93.0276 122.657 93.0276Z" fill="#444D56"/>
<path d="M92 123.5C92.0082 123.217 120 123.5 120 123.5L121.165 105.183L121.492 91.8487L114.084 89.8497L111.359 108.061L92 123.5Z" fill="#505C66"/>
<path d="M121.603 92.855C121.981 91.4555 135.539 77.8645 135.907 77.117C136.275 76.3694 146.106 68.6589 146.106 68.6589L149.822 65.7269L137.142 55.1801C137.142 55.1801 130.214 62.2387 124.231 71.0048C118.249 79.7709 114.207 89.0065 114.207 89.0065L121.603 92.855" fill="#697783"/>
<path d="M84.4285 27.9219L90.638 21.7768L93.4426 15.6706L112.147 17.088L127.238 16.0384C127.238 16.0384 121.289 11.4019 111.299 8.50429C101.31 5.60667 86.8411 1.7148 86.8411 1.7148L68.1335 0.707064L49.9762 1.31411L75.6368 10.5736L81.0947 12.8537L84.4285 27.9219" fill="#8C9DAC"/>
<path d="M49.9762 1.31419L41.8772 7.13333L35.8896 14.3953L31.5922 48.8078L16.473 52.5188L6.40639 78.4538L0.148926 101.831L15.7377 120.104L28.9021 122.28L76.1671 122.558L93.5132 122.012L85.9049 87.7327C85.9049 87.7327 85.3792 78.4298 85.0633 68.9655C84.7468 59.5011 82.3171 26.4806 82.8491 25.3996C83.3806 24.3186 81.0947 12.8538 81.0947 12.8538C81.0947 12.8538 56.2231 0.624925 49.9762 1.31419Z" fill="#8595A3"/>
<path d="M16.473 52.5186L36.1641 71.7344L48.005 69.4991L37.6178 55.3953L30.0818 48.6013L16.473 52.5186" fill="#97AABB"/>
<path d="M81.0947 12.8537L93.4426 15.6706L89.1475 24.3335L83.692 29.293L81.0947 12.8537" fill="#97AABB"/>
<path d="M1.82923 95.1365L16.3364 112.878L28.2134 116.033L83.5623 116.257L84.6515 85.6393L88.8613 102.748L93.5132 122.012L78.9127 122.161C78.9127 122.161 29.76 121.626 28.9021 122.28C28.044 122.931 15.7377 120.104 15.7377 120.104L3.36001 106.497L0.148926 101.83L1.82923 95.1365" fill="#697783"/>
<path d="M137.812 56.3518L150.749 66.5667L150.785 66.5966V66.6415C150.762 68.316 150.695 69.9891 150.524 71.6547C150.472 72.4905 150.332 73.3158 150.239 74.1471C150.144 74.9785 150.024 75.8068 149.885 76.6321C149.383 79.9394 148.709 83.2183 147.974 86.4792C146.499 93.0055 144.723 99.4542 142.736 105.847L142.707 105.94L142.624 106.004L119.754 123.561L119.104 122.844L119.208 122.731L119.44 123.529L91.7845 123.995L93.2845 122.844L119.55 122.5L120.469 122.803L119.923 123.389L119.818 123.502L119.104 121L141 104.5H141.5C143.552 98.1561 146.024 92.8785 147.569 86.3865C148.34 83.139 149.05 79.8766 149.588 76.5843C149.736 75.7619 149.865 74.9381 149.968 74.1113C150.069 73.2844 150.22 72.4606 150.281 71.6293C150.471 69.9712 150.556 68.3086 150.596 66.6415L150.632 66.7147L137.812 56.3518Z" fill="#444D56"/>
<path d="M137.241 54.8647C134.808 57.3825 132.624 60.1022 130.456 62.8279C128.31 65.5715 126.323 68.4317 124.39 71.3219C122.474 74.224 120.714 77.2247 119.076 80.2868C117.422 83.3384 115.928 86.4797 114.697 89.7183L114.724 89.6136C114.258 92.7041 113.716 95.7841 113.217 98.8716C112.709 101.956 112.107 105.029 111.558 108.107C111.893 104.997 112.177 101.88 112.554 98.7759C112.94 95.6735 113.283 92.565 113.703 89.4671L113.71 89.4162L113.729 89.3609C114.934 86.0491 116.403 82.845 118.033 79.7306C119.685 76.6252 121.544 73.6394 123.509 70.7313C125.465 67.8157 127.632 65.0467 129.903 62.3763C132.156 59.691 134.654 57.2091 137.241 54.8647" fill="#97AABB"/>
<path d="M92.3955 122.917C92.3955 122.917 91.4913 116.987 89.9003 108.149C89.0758 103.743 88.0822 98.5798 86.6099 93.2107C85.1293 87.8611 82.9601 82.1032 82.7575 75.8191C82.6775 74.2567 82.8271 72.6733 82.8399 71.2678C82.8661 69.8056 82.8433 68.3418 82.7967 66.8855C82.6611 63.9401 82.5286 61.044 82.4 58.2405C82.1577 52.6262 81.9312 47.3857 81.7378 42.8943C81.3494 33.9114 81.0906 27.9233 81.0906 27.9233L85.8757 27.862C85.8757 27.862 85.8361 33.8531 85.7753 42.8419C85.7448 47.3349 85.7093 52.5769 85.6707 58.1942C85.6596 61.0066 85.648 63.9117 85.6357 66.8646C85.6094 68.3553 85.5574 69.8654 85.454 71.3845C85.356 72.9589 85.1462 74.3598 85.1504 75.7952C85.0294 81.5784 86.833 87.3378 88.0776 92.8385C89.3023 98.3765 90.0312 103.569 90.6392 108.031C91.7892 116.957 92.3955 122.917 92.3955 122.917" fill="#97AABB"/>
<path d="M81.2226 28.6335C80.9061 27.4838 80.5743 26.1082 80.3436 24.8822C80.1006 23.6143 79.9091 22.3404 79.77 21.0621C79.4927 18.5069 79.4226 15.9382 79.5628 13.3904L79.7029 14.0752L79.6456 13.9257L80.4278 14.751C75.6531 12.0433 70.8793 9.38193 65.9376 7.05546C61 4.72452 55.868 2.77483 50.5912 1.21837C55.9954 2.23209 61.3482 3.66145 66.5707 5.50796C71.7967 7.3485 76.8866 9.5449 81.9288 11.7622L82.4053 11.973L82.7107 12.5875L82.782 12.7311L82.9034 12.9778L82.9221 13.4174C83.0216 15.7842 83.3152 18.1346 83.7947 20.4356C84.0336 21.5869 84.3192 22.7247 84.6504 23.8476C84.9944 25.0108 85.3337 26.0036 85.784 27.1877L81.2226 28.6335" fill="#97AABB"/>
<path d="M84.4904 28.3884C85.3728 27.4345 86.2472 26.4971 87.0601 25.5147C87.8708 24.5294 88.5984 23.4918 89.2807 22.4437C90.6187 20.3221 91.6261 18.039 92.4696 15.6677L92.7411 14.9021L93.6166 15.0173C99.1077 15.7379 104.689 15.8022 110.308 15.8022C113.118 15.7977 115.941 15.7947 118.773 15.8665C121.602 15.9308 124.444 16.1013 127.265 16.4436L118.825 17.3348C116.014 17.6054 113.196 17.8461 110.362 17.9807C107.529 18.1421 104.678 18.1556 101.821 18.0554C100.391 17.9822 98.963 17.876 97.535 17.7354C96.1064 17.5799 94.6872 17.3407 93.2714 17.0821L94.4179 16.4317C93.3882 18.8463 92.0923 21.2147 90.3868 23.2496C88.6849 25.286 86.6553 26.977 84.4904 28.3884" fill="#97AABB"/>
<path d="M50.4591 1.06743C50.4591 1.06743 52.3212 0.80877 55.6035 0.506748C58.8828 0.219678 63.5914 -0.097288 69.2484 0.0283051C74.9003 0.17184 81.5065 0.657758 88.4823 1.88827C95.4552 3.09636 102.801 4.97576 109.928 7.48762C113.476 8.83625 116.968 10.0593 120.458 11.4707C122.178 12.2049 123.871 13.0556 125.391 14.1112C126.952 15.2026 128.258 16.6559 129.046 18.3335C129.844 19.9976 130.28 21.7006 130.755 23.3213C131.228 24.9526 131.691 26.5479 132.142 28.0999C133.02 31.2173 133.79 34.1836 134.422 36.9392C135.703 42.4504 136.324 47.1362 136.622 50.4151C136.915 53.6984 136.937 55.5808 136.937 55.5808C136.937 55.5808 136.842 53.6999 136.421 50.4375C136.024 47.1736 135.141 42.555 133.768 37.0977C133.078 34.369 132.248 31.4326 131.305 28.3466C130.821 26.8051 130.323 25.2217 129.815 23.6039C129.292 21.9876 128.867 20.3056 128.115 18.7925C126.695 15.6841 123.36 13.9108 120.024 12.4994C116.639 11.1567 113.019 9.91726 109.528 8.61348C95.4289 3.47164 80.4569 1.18107 69.2263 0.699631C62.5 1.06743 60.5 1.06743 55 1.06743C51.7166 1.24237 50.4591 1.06743 50.4591 1.06743Z" fill="#97AABB"/>
<path d="M117.72 121.415C118.413 119.007 118.88 116.722 119.264 114.27C119.639 111.854 119.899 109.409 120.095 106.954C120.489 102.043 120.622 97.0877 120.886 92.1238L120.908 91.6887L121.288 91.5273L122.037 91.2103L121.8 91.3882C130.179 81.7714 139.621 73.1084 149.906 65.6461C139.886 73.4628 130.794 82.4158 122.815 92.2449L122.727 92.3541L122.577 92.4228L121.839 92.7667L122.241 92.1717C122.151 97.1176 122.191 102.083 121.966 107.071C121.853 109.565 121.677 112.063 121.377 114.56C121.087 117.02 120.64 119.618 120.04 121.999L117.72 121.415" fill="#97AABB"/>
<path d="M121.82 92.7175L114 89.8872L114.408 88.7643L122.227 91.5947L121.82 92.7175Z" fill="#97AABB"/>
<path d="M31.7978 47.4291C31.7978 47.4291 36.1892 52.728 40.1578 58.3243C42.1518 61.1173 44.0721 63.9596 45.4481 66.132C46.8305 68.3015 47.6909 69.7832 47.6909 69.7832C47.6909 69.7832 46.7663 68.3404 45.2928 66.2367C43.825 64.1285 41.7866 61.3774 39.6789 58.6831C35.475 53.2722 30.8896 48.2066 30.8896 48.2066L31.7978 47.4291" fill="#97AABB"/>
<path d="M112.364 107.73C112.241 107.425 111.908 107.573 111.737 107.744C111.542 107.916 111.367 108.112 111.198 108.312L110.213 109.559C109.885 109.997 109.419 110.342 109.027 110.664L107.798 111.67L102.882 115.694L92.9334 123.583L92.3393 121.951L93.1979 121.883L93.2592 123.742C90.0703 123.818 86.8808 123.812 83.6908 123.838L74.1206 123.844C67.7404 123.845 61.3599 123.752 54.9809 123.666C48.6014 123.564 42.2241 123.382 35.8498 123.151C32.6674 123.021 29.4604 122.852 26.278 122.42C23.099 121.999 19.9236 121.384 16.9238 120.273C20.0345 121.001 23.1906 121.38 26.358 121.525C29.5269 121.644 32.6977 121.682 35.8884 121.647C42.2657 121.508 48.6394 121.417 55.0107 121.408C61.3814 121.412 67.7522 121.411 74.1224 121.504L83.6785 121.649C86.8645 121.719 90.0498 121.759 93.2364 121.88L93.2977 123.74L92.4362 123.764L89.4256 123.85L91.8423 122.132L102.19 114.773L107.423 111.171L108.731 110.272C109.184 109.96 109.599 109.702 109.951 109.321L111.068 108.191C111.263 108.007 111.462 107.828 111.684 107.674C111.866 107.506 112.29 107.407 112.364 107.73" fill="#444D56"/>
<path d="M16.9607 119.974C13.5347 117.589 10.3948 114.781 7.5628 111.682C4.71675 108.593 2.21353 105.174 0.124986 101.507L0 101.288L0.050228 101.026C0.239458 100.035 0.362692 98.9522 0.52272 97.9191L1.02967 94.7748C1.3912 92.6815 1.79594 90.6003 2.2404 88.522C3.11121 84.3655 4.26294 80.2703 5.53734 76.2169C6.82048 72.1665 8.27183 68.167 9.88672 64.2347C11.515 60.3084 13.252 56.4195 15.2476 52.6637L15.1296 53.021L15.201 52.5904L15.3224 51.8533L16.0572 51.638L30.507 47.4052L29.9697 47.7416L30.5269 47.1077L30.2693 47.6863C31.1893 42.0406 32.0372 36.3829 33.0423 30.7522L35.9585 13.8539L36.7119 14.5552L36.6261 14.5761L35.2588 14.908L35.9328 13.7074C37.5453 10.8352 39.7975 8.45942 42.2299 6.38115C44.6748 4.30588 47.3707 2.54606 50.2396 1.17052C47.5021 2.78678 44.9622 4.70957 42.6715 6.87157C40.402 9.04552 38.3724 11.5065 37.0103 14.2681L36.317 13.4009L36.4024 13.377L37.2843 13.1288L37.1558 14.0767L34.8588 31.0318C34.1257 36.6835 33.2363 42.3112 32.418 47.948L32.3689 48.2844L32.1605 48.5281L31.6109 49.168L31.4105 49.4013L31.0729 49.5044L16.6704 53.9122L17.5267 52.9612L17.4606 53.3918L17.4332 53.5728L17.342 53.7522C15.4485 57.4841 13.61 61.2489 11.9858 65.1124C10.3487 68.9669 8.87106 72.8917 7.55755 76.8703C6.23526 80.8489 5.12266 84.8918 4.07022 88.9511C3.55801 90.9845 3.08318 93.0314 2.65332 95.0813L2.04065 98.1673C1.83974 99.2139 1.69081 100.225 1.44726 101.301L1.37251 100.82C3.30745 104.456 5.59632 107.913 8.19299 111.139C10.8037 114.355 13.7583 117.301 16.9607 119.974" fill="#697783"/>
<path d="M48.7631 90.9473C49.7641 83.787 49.5352 76.3351 47.7953 69.3034C47.5616 68.3585 46.0835 68.7607 46.3351 69.7056C48.2222 76.7822 49.0254 83.6001 48.5061 90.9129C48.4961 91.0579 48.7426 91.0938 48.7631 90.9473" fill="#97AABB"/>
<path d="M72.3492 94.4667C73.3398 91.6124 73.9986 88.8554 74.3139 85.8411C74.3613 85.3896 73.6399 85.3851 73.6031 85.8411C73.3736 88.6984 72.9431 91.6513 72.2586 94.4413C72.2446 94.5011 72.3294 94.5235 72.3492 94.4667" fill="#97AABB"/>
<path d="M74.0329 86.3138C77.6616 84.7304 80.9715 82.3396 84.054 79.8816C84.9517 79.1654 83.6744 77.8781 82.7849 78.6122C79.7986 81.0762 76.6389 83.3728 73.7555 85.9534C73.5459 86.1403 73.8128 86.4095 74.0329 86.3138" fill="#97AABB"/>
<path d="M69.5352 46.9552C70.1684 45.3389 70.7763 43.7062 71.2482 42.0346C71.3709 41.601 70.7313 41.438 70.5812 41.8507C69.9867 43.4789 69.5247 45.155 69.0936 46.8341C69.0183 47.1256 69.4294 47.2243 69.5352 46.9552" fill="#97AABB"/>
<path d="M71.4538 42.2874C75.9276 38.7738 79.9213 34.6337 83.5623 30.2739C84.415 29.2542 82.9606 27.7739 82.0887 28.8011C78.3976 33.1445 74.5913 37.4027 70.9784 41.812C70.6997 42.1514 71.1145 42.5551 71.4538 42.2874" fill="#97AABB"/>
<path d="M75.0602 15.1384C76.7505 15.572 78.6102 15.5779 80.3143 15.2356C81.3101 15.0352 80.8885 13.5131 79.8943 13.712C78.2818 14.0364 76.6156 14.4745 75.0602 15.0038C74.9977 15.0247 74.9902 15.1204 75.0602 15.1384Z" fill="#97AABB"/>
<path d="M32.2353 101.697C32.0255 97.0954 31.41 92.5336 31.257 87.9226C31.2418 87.4606 30.5316 87.4576 30.5374 87.9226C30.5941 92.5052 30.8165 97.2837 32.0245 101.726C32.0554 101.841 32.2411 101.822 32.2353 101.697Z" fill="#97AABB"/>
<path d="M31.3878 88.3186C33.8543 82.3634 36.146 76.3364 37.7119 70.0732C38.0085 68.8875 36.1798 68.3822 35.8826 69.5678C34.3185 75.8026 32.8846 82.0614 31.0275 88.2184C30.9562 88.4561 31.299 88.5339 31.3878 88.3186Z" fill="#97AABB"/>
<path d="M16.4736 112.675C20.5461 113.919 24.5609 115.272 28.6047 116.598C29.1684 116.783 29.5743 115.865 29.0155 115.625C25.0824 113.923 20.7646 112.868 16.5046 112.444C16.369 112.431 16.3521 112.637 16.4736 112.675" fill="#97AABB"/>
<path d="M29.3758 116.486C46.629 117.529 64.2801 116.541 81.531 115.64C82.4812 115.59 82.4906 114.112 81.531 114.153C64.1778 114.907 46.6933 114.832 29.3758 116.037C29.0879 116.057 29.0861 116.468 29.3758 116.486" fill="#97AABB"/>
<path d="M46.549 31.5731C45.0345 34.8923 44.3231 38.5569 43.6836 42.1289C43.6054 42.5639 44.2694 42.7523 44.3506 42.3128C45.0146 38.7274 46.0695 35.2257 46.7025 31.6374C46.7184 31.5521 46.5916 31.4789 46.549 31.5731" fill="#97AABB"/>
<path d="M33.3717 45.7667C37.2247 45.0714 41.0385 43.962 44.6141 42.3592C45.2839 42.0587 44.8056 40.9029 44.11 41.1631C40.4795 42.5207 36.8748 43.9321 33.228 45.2448C32.898 45.363 33.0282 45.8295 33.3717 45.7667" fill="#97AABB"/>
<path d="M59.0243 60.1918C60.7052 58.9314 62.4316 57.7114 64.0506 56.3717C64.2568 56.2012 63.977 55.8319 63.7614 55.9979C62.0928 57.2778 60.5159 58.6862 58.911 60.0453C58.831 60.1126 58.9389 60.2561 59.0243 60.1918" fill="#97AABB"/>
<path d="M68.794 52.7175C69.3869 51.9864 69.9797 51.2553 70.5725 50.5241C70.7197 50.3432 70.4592 50.0831 70.3143 50.267C69.7309 51.0071 69.1469 51.7472 68.5627 52.4858C68.4343 52.6487 68.661 52.882 68.794 52.7175" fill="#97AABB"/>
<path d="M71.9706 49.2772C75.6315 45.8638 79.3775 42.561 83.0874 39.2044C83.7327 38.6198 82.7412 37.618 82.129 38.246C78.6393 41.8239 75.2033 45.4392 71.66 48.9662C71.4592 49.1666 71.7645 49.4701 71.9706 49.2772" fill="#97AABB"/>
<path d="M118.069 87.1287C118.645 87.323 119.218 87.5204 119.799 87.6983C120.119 87.7955 120.258 87.2662 119.936 87.2019C119.338 87.0838 118.737 86.9866 118.137 86.885C117.978 86.858 117.913 87.0748 118.069 87.1287" fill="#97AABB"/>
<path d="M122.008 87.9808C122.72 88.3247 123.437 88.6522 124.149 88.9961C124.524 89.177 124.763 88.6238 124.372 88.4668C123.641 88.1707 122.915 87.8597 122.184 87.5637C121.945 87.4665 121.775 87.8687 122.008 87.9808Z" fill="#97AABB"/>
<path d="M136.578 58.8732C137.299 59.1947 138.02 59.5116 138.747 59.8196C138.988 59.9213 139.135 59.5804 138.887 59.4862C138.148 59.2066 137.406 58.9405 136.661 58.6758C136.547 58.6355 136.467 58.8224 136.578 58.8732" fill="#97AABB"/>
<path d="M140.917 60.7614C143.607 62.5661 146.029 64.6698 148.543 66.7047C149.372 67.376 150.304 66.1903 149.443 65.537C146.848 63.5678 143.958 61.9994 141.111 60.4295C140.893 60.3099 140.714 60.6239 140.917 60.7614Z" fill="#97AABB"/>
<path d="M128.187 80.7381C135.516 76.9345 142.471 72.5283 149.099 67.6107C149.94 66.9872 149.102 65.5608 148.273 66.1992C141.716 71.2394 134.983 76.012 128.117 80.617C128.042 80.6679 128.107 80.78 128.187 80.7381Z" fill="#97AABB"/>
<path d="M111.721 117.693C113.672 119.469 115.898 120.658 118.436 121.371C119.005 121.531 119.252 120.629 118.68 120.489C116.258 119.892 113.97 118.848 111.891 117.473C111.759 117.385 111.603 117.585 111.721 117.693" fill="#97AABB"/>
<path d="M79.6667 12.6519C87.9875 14.3997 96.3925 15.5959 104.692 17.4947C105.324 17.6397 105.594 16.6754 104.961 16.5214C96.7319 14.5373 88.1832 12.7147 79.7006 12.4037C79.5598 12.3977 79.5266 12.622 79.6667 12.6519" fill="#97AABB"/>
<path d="M16.3784 103.992C21.2144 98.8385 25.9125 93.4978 30.5047 88.1242C30.8219 87.7535 30.2962 87.2137 29.9627 87.583C25.225 92.8355 20.5321 98.1896 16.0414 103.656C15.8505 103.888 16.1646 104.221 16.3784 103.992" fill="#97AABB"/>
<path d="M24.3471 100.326C24.8207 99.0209 25.5315 97.898 26.463 96.8753C26.6774 96.6391 26.3281 96.2877 26.1125 96.524C25.1284 97.605 24.458 98.843 24.0404 100.241C23.9815 100.44 24.2781 100.515 24.3471 100.326" fill="#97AABB"/>
<path d="M28.2503 94.1767C29.4832 91.7097 30.868 89.3235 32.1652 86.8909C32.4759 86.3077 31.5525 85.7979 31.2938 86.381C30.1688 88.9153 29.1339 91.4915 27.9438 93.9973C27.8461 94.2022 28.1475 94.3831 28.2503 94.1767Z" fill="#97AABB"/>
<path d="M43.4173 99.5579C45.2202 96.273 47.4343 93.2035 49.1584 89.8902C49.6496 88.9453 48.2175 88.108 47.7298 89.0544C46.0075 92.3991 44.771 95.9935 43.1189 99.383C43.0224 99.5803 43.3092 99.7553 43.4173 99.5579Z" fill="#97AABB"/>
</svg>
