<svg width="194" height="214" viewBox="0 0 194 214" fill="none" xmlns="http://www.w3.org/2000/svg">
<g filter="url(#filter0_d)">
<path d="M1.1444 26.0298L2.45265 33.7413L6.5179 33.0484C6.96964 32.1782 7.78879 31.4852 8.87313 31.3007C10.6479 30.9989 12.3168 32.1082 12.6 33.7778C12.8833 35.4462 11.6735 37.0441 9.89882 37.3459C8.81459 37.5304 7.8129 37.1482 7.09995 36.4754L3.03406 37.1673L4.92919 48.3337L8.99481 47.6429C9.44572 46.7707 10.2655 46.0787 11.3494 45.8943C13.124 45.5925 14.7932 46.7007 15.076 48.3703C15.3594 50.0387 14.1502 51.6376 12.3755 51.9394C11.2912 52.1239 10.2893 51.7407 9.57637 51.0678L5.51003 51.7598L7.4058 62.9272L11.4708 62.2354C11.9221 61.3631 12.7419 60.6711 13.8258 60.4867C15.6007 60.186 17.2693 61.2931 17.5525 62.9627C17.836 64.6322 16.6267 66.23 14.8515 66.5319C13.7678 66.7174 12.7659 66.3342 12.0528 65.6602L7.98691 66.3521L9.88158 77.5186L13.9472 76.8278C14.3983 75.9567 15.2184 75.2635 16.3018 75.0792C18.077 74.7774 19.7459 75.8866 20.0289 77.5552C20.3125 79.2247 19.1031 80.8224 17.3276 81.1244C16.244 81.3087 15.2425 80.9266 14.5291 80.2538L10.4636 80.9456L12.3585 92.1132L16.4241 91.4224C16.8752 90.549 17.6946 89.8571 18.779 89.6737C20.5536 89.3709 22.2224 90.4791 22.5056 92.1486C22.7892 93.8181 21.5793 95.416 19.8044 95.7189C18.7209 95.9032 17.7191 95.5201 17.0055 94.8462L12.9396 95.5381L14.8343 106.705L18.9003 106.014C19.3519 105.143 20.1712 104.451 21.2554 104.265C23.03 103.963 24.6989 105.071 24.9822 106.742C25.2654 108.409 24.0558 110.009 22.2806 110.31C21.1972 110.494 20.1949 110.112 19.4821 109.44L15.4157 110.131L17.3113 121.298L21.3769 120.607C21.8279 119.735 22.6475 119.042 23.7314 118.858C25.5067 118.557 27.1755 119.665 27.4584 121.333C27.7422 123.004 26.5324 124.602 24.7572 124.904C23.6734 125.088 22.6718 124.706 21.9586 124.032L17.8923 124.724L19.7879 135.891L23.8532 135.199C24.3041 134.328 25.1242 133.636 26.2078 133.452C27.9831 133.149 29.6519 134.258 29.9349 135.928C30.2181 137.596 29.0087 139.193 27.2336 139.495C26.1497 139.679 25.148 139.298 24.4352 138.625L20.3687 139.317L22.264 150.484L26.3294 149.792C26.7804 148.92 27.6006 148.228 28.684 148.043C30.4591 147.742 32.1282 148.851 32.4111 150.519C32.6942 152.189 31.4856 153.788 29.7104 154.09C28.6265 154.274 27.6246 153.891 26.9115 153.217L22.8454 153.91L24.74 165.076L28.8061 164.386C29.2572 163.515 30.0772 162.821 31.1607 162.637C32.9359 162.335 34.6041 163.443 34.8878 165.113C35.1713 166.782 33.9618 168.379 32.1864 168.682C31.1029 168.866 30.1013 168.484 29.3877 167.81L25.3217 168.501L27.2167 179.67L31.2826 178.978C31.7337 178.107 32.5533 177.414 33.6372 177.229C35.4124 176.929 37.0812 178.037 37.3643 179.706C37.6479 181.375 36.4381 182.974 34.6631 183.276C33.5796 183.46 32.5778 183.077 31.8643 182.404L27.7985 183.096L29.6932 194.263L33.7592 193.571C34.2101 192.699 35.0299 192.007 36.1138 191.823C37.8889 191.521 39.5578 192.629 39.8409 194.299C40.1238 195.967 38.9146 197.566 37.1395 197.868C36.056 198.052 35.0537 197.669 34.3408 196.996L30.2745 197.689L31.5837 205.4L109.311 192.178L110.944 191.037L113.256 191.508L116.791 190.521L120.863 190.213L122.977 189.611L125.794 189.375L132.649 187.687L136.237 187.598L143.673 184.541L151.002 185.086L152.294 184.581L153.997 184.577L154.846 183.923L156.545 184.144L163.535 181.363L166.012 181.487L166.601 182.013L168.033 181.589L169.397 181.958L170.759 181.726L173.865 180.822L177.716 180.542L148.417 0.977642L1.1444 26.0298" fill="#E7DED6"/>
<path d="M148.515 11.9096L18.2687 34.0652L18.1982 33.6467L148.445 11.492L148.515 11.9096" fill="#B0DDEC"/>
<path d="M150.136 21.4611L19.89 43.6157L19.8189 43.1995L150.065 21.0438L150.136 21.4611Z" fill="#B0DDEC"/>
<path d="M151.757 31.0127L21.5108 53.1685L21.4398 52.7511L151.686 30.5954L151.757 31.0127Z" fill="#B0DDEC"/>
<path d="M153.379 40.5643L23.1316 62.7201L23.0605 62.3016L153.308 40.148L153.379 40.5643" fill="#B0DDEC"/>
<path d="M154.999 50.1171L24.7526 72.2716L24.6817 71.8543L154.929 49.6985L154.999 50.1171Z" fill="#B0DDEC"/>
<path d="M156.62 59.6687L26.3739 81.8243L26.3023 81.4059L156.549 59.2503L156.62 59.6687Z" fill="#B0DDEC"/>
<path d="M158.241 69.2203L27.9944 91.376L27.9239 90.9585L158.17 68.8029L158.241 69.2203Z" fill="#B0DDEC"/>
<path d="M159.862 78.7708L29.6152 100.927L29.5443 100.509L159.791 78.3534L159.862 78.7708Z" fill="#B0DDEC"/>
<path d="M161.483 88.3221L31.2361 110.478L31.1653 110.061L161.412 87.906L161.483 88.3221Z" fill="#B0DDEC"/>
<path d="M163.104 97.8741L32.8571 120.029L32.7866 119.611L163.033 97.4567L163.104 97.8741" fill="#B0DDEC"/>
<path d="M164.724 107.427L34.4784 129.582L34.4072 129.164L164.653 107.008L164.724 107.427Z" fill="#B0DDEC"/>
<path d="M166.346 116.978L36.0993 139.134L36.0282 138.716L166.274 116.561L166.346 116.978" fill="#B0DDEC"/>
<path d="M167.959 126.483L37.7119 148.637L37.6415 148.22L167.887 126.064L167.959 126.483" fill="#B0DDEC"/>
<path d="M169.58 136.034L39.3336 158.19L39.262 157.771L169.508 135.616L169.58 136.034Z" fill="#B0DDEC"/>
<path d="M171.201 145.585L40.954 167.74L40.883 167.323L171.13 145.168L171.201 145.585" fill="#B0DDEC"/>
<path d="M172.822 155.137L42.5749 177.292L42.5042 176.876L172.751 154.72L172.822 155.137Z" fill="#B0DDEC"/>
<path d="M174.442 164.689L44.1956 186.845L44.125 186.426L174.372 164.271L174.442 164.689" fill="#B0DDEC"/>
<path d="M162.953 175.646L133.487 6.08454L134.057 5.98581L163.523 175.547L162.953 175.646" fill="#F6A3AA"/>
</g>
<defs>
<filter id="filter0_d" x="0.540802" y="0.540131" width="192.918" height="213.294" filterUnits="userSpaceOnUse" color-interpolation-filters="sRGB">
<feFlood flood-opacity="0" result="BackgroundImageFix"/>
<feColorMatrix in="SourceAlpha" type="matrix" values="0 0 0 0 0 0 0 0 0 0 0 0 0 0 0 0 0 0 127 0"/>
<feOffset dx="10" dy="4"/>
<feGaussianBlur stdDeviation="2"/>
<feColorMatrix type="matrix" values="0 0 0 0 0 0 0 0 0 0 0 0 0 0 0 0 0 0 0.25 0"/>
<feBlend mode="normal" in2="BackgroundImageFix" result="effect1_dropShadow"/>
<feBlend mode="normal" in="SourceGraphic" in2="effect1_dropShadow" result="shape"/>
</filter>
</defs>
</svg>
