<svg width="260" height="193" viewBox="0 0 260 193" fill="none" xmlns="http://www.w3.org/2000/svg">
<path d="M254.763 46.5127C254.763 46.5127 250.167 0.600464 205.038 0.600464C159.908 0.600464 47.7765 0.600464 47.7765 0.600464V46.5127H254.763Z" fill="#F16E17"/>
<path d="M36.9183 0.600708V46.512H243.909C243.909 46.512 243.655 44.0155 242.692 40.1961C242.618 39.8471 242.523 39.487 242.417 39.1168C241.624 36.145 240.428 32.5158 238.651 28.6761C238.492 28.3382 238.333 27.9994 238.164 27.6504C231.996 14.9874 219.44 0.600708 194.179 0.600708H119.452C77.3704 0.600708 36.9183 0.600708 36.9183 0.600708Z" fill="#662816"/>
<path d="M57.208 27.0109C68.3052 30.4126 79.8587 29.3262 91.1643 27.6896C102.101 26.1066 112.832 24.5499 123.917 24.6774C147.222 24.9454 170.425 25.4562 193.729 24.4457C206.912 23.8742 220.077 22.9872 233.219 21.8067C233.898 21.745 233.893 22.8041 233.219 22.8637C209.701 24.9768 186.103 26.1289 162.49 26.2776C150.671 26.3534 138.868 26.048 127.052 25.79C115.317 25.5331 104.015 26.8632 92.4286 28.5656C80.6183 30.3013 68.5359 31.589 56.9258 28.0305C56.2774 27.8322 56.5536 26.8106 57.208 27.0109Z" fill="#87331B"/>
<path d="M119.452 0.60022C150.797 9.56014 184.129 8.75598 216.51 7.8254C217.198 7.80416 217.198 6.74613 216.51 6.76737C185.494 7.65648 153.621 8.43939 123.462 0.60022H119.452Z" fill="#87331B"/>
<path d="M42.9031 20.3448C60.6389 20.7038 78.3817 20.7261 96.118 20.3923C104.899 20.2264 113.678 19.9745 122.454 19.6377C126.841 19.4688 131.229 19.2797 135.615 19.0682C140.099 18.8518 144.611 18.7547 148.952 17.5287C147.978 13.8074 143.918 12.3316 140.479 11.5012C136.31 10.4937 132.027 9.82106 127.785 9.21214C118.597 7.89313 109.325 7.23261 100.049 7.00503C81.8076 6.55895 63.5803 7.77579 45.3914 9.00477C44.7117 9.0513 44.7147 7.99327 45.3914 7.94776C65.2705 6.60448 85.2083 5.2713 105.141 6.11692C114.672 6.52152 124.19 7.43188 133.592 9.07254C139.016 10.0193 148.887 10.8133 150.095 17.7654C150.145 18.0537 150.021 18.3268 149.725 18.4158C145.808 19.6054 141.785 19.8188 137.72 20.0221C133.159 20.2497 128.597 20.454 124.033 20.6341C115.082 20.9881 106.128 21.2531 97.172 21.4291C79.0847 21.7851 60.9909 21.769 42.9031 21.4028C42.2234 21.3886 42.2204 20.3306 42.9031 20.3448Z" fill="#87331B"/>
<path d="M53.6427 43.8239C67.9444 44.8607 82.2785 44.9669 96.6021 44.533C145.284 43.0309 194.008 35.5518 242.691 40.1956C242.617 39.8467 242.522 39.4876 242.416 39.1164C230.029 37.9319 217.577 37.5192 205.137 37.6254C154.583 38.0381 104.24 46.4579 53.6427 42.7669C52.965 42.7133 52.9761 43.7713 53.6427 43.8239Z" fill="#87331B"/>
<path d="M53.811 36.24C67.7637 37.6895 81.8014 38.091 95.8188 37.3931C108.016 36.7902 120.086 35.2245 132.124 33.1832C144.797 31.0247 157.395 29.5539 170.26 29.2576C193.056 28.7397 215.906 30.5483 238.649 28.676C238.491 28.3381 238.332 27.9993 238.163 27.6503C226.537 28.6021 214.869 28.6021 203.211 28.4221C190.687 28.2319 178.161 27.8617 165.636 28.3381C153.375 28.8135 141.39 30.5594 129.31 32.5905C104.324 36.7903 79.0197 37.7947 53.811 35.182C53.1242 35.1182 53.1343 36.1763 53.811 36.24Z" fill="#87331B"/>
<path d="M53.9922 16.4692H230.505L226.274 12.9249H53.9922V16.4692Z" fill="#521A14"/>
<path d="M63.0132 34.9016H239.526L235.295 31.3573H63.0132V34.9016Z" fill="#521A14"/>
<path d="M194.179 0.600464C239.309 0.600464 243.904 46.5127 243.904 46.5127H236.009C236.009 46.5127 231.731 3.77458 189.722 3.77458C147.712 3.77458 43.3304 3.77458 43.3304 3.77458V46.5127H36.9175V0.600464C36.9175 0.600464 149.05 0.600464 194.179 0.600464Z" fill="#521A14"/>
<path d="M257.657 65.6586L245.315 192.6H92.4865L81.1101 65.6586H257.657Z" fill="#B9561E"/>
<path d="M81.1094 65.6586H3.06677L17.8772 192.6H92.4858L81.1094 65.6586Z" fill="#A0291F"/>
<path d="M96.6431 80.0774L97.6281 91.2586L97.7131 92.3166L98.2731 98.6214L98.3681 99.6996L98.5481 101.837L98.6431 102.884L99.1611 108.798L99.2461 109.718L99.5111 112.785L99.6061 113.822L100.632 125.565L100.727 126.623L101.087 130.748L101.182 131.806L101.616 136.798L101.711 137.857L102.124 142.585L102.219 143.643L102.409 145.865L102.504 146.912L103.498 158.336L103.593 159.406L103.837 162.113L103.921 163.16L104.366 168.164L104.46 169.222L104.599 170.903L104.705 172.004L105.033 175.738L105.117 176.795L105.329 179.177L138.767 179.124H138.789L144.924 179.113H144.945L166.927 179.07H166.948L173.37 179.059H173.38L206.915 179.008L215.937 178.996L232.419 178.965L232.98 173.39L233.085 172.332L233.657 166.725L233.762 165.689L234.037 162.917L234.142 161.86L234.682 156.602L234.789 155.544L236.417 139.422L236.523 138.364L237.052 133.159L237.158 132.102L237.665 127.056L237.772 125.998L238.935 114.425L239.041 113.378L239.241 111.442L239.348 110.395L239.708 106.809L239.813 105.761L240.671 97.2669L240.786 96.1887L242.489 79.2935L96.6431 80.0774Z" fill="#662816"/>
<path d="M15.7607 79.2944L17.9082 96.1663L18.0457 97.2881L18.7234 102.641L18.861 103.709L19.7066 110.342L19.8442 111.411L21.4838 124.338L21.6214 125.437L22.0028 128.42L22.1403 129.478L22.3618 131.256L22.4994 132.292L22.7644 134.355L22.902 135.509L23.4836 140.089L23.6212 141.136L26.2228 161.584L26.3502 162.642L27.3334 170.332L27.4709 171.401L28.1375 176.7L28.2751 177.77L28.4551 179.177H74.2915L73.9436 174.713L73.8687 173.706L73.0332 162.896L72.9482 161.848L72.6519 158.02L72.5669 156.971L71.7213 146.13L71.6474 145.072L71.3197 140.903L71.2347 139.739L70.5894 131.499L70.5044 130.441L69.1298 112.712L69.056 111.675L68.0293 98.4513L67.9443 97.3933L67.7966 95.5533L67.7228 94.4953L66.5373 79.2944H15.7607Z" fill="#521A14"/>
<path d="M98.274 98.6215L98.369 99.6998C104.78 99.2669 111.158 98.4627 117.517 97.606C127.756 96.2303 138.007 94.7283 148.374 94.5169C159.089 94.2953 169.224 96.3577 179.717 98.4202C200.071 102.397 220.455 99.9749 240.671 97.2671C240.829 97.2459 240.999 97.2247 241.158 97.2044C241.823 97.1195 241.538 96.0927 240.872 96.1777L240.787 96.1889C228.727 97.8063 216.615 99.4146 204.397 99.541C193.597 99.6685 183.219 98.0602 172.63 95.8814C163.088 93.914 153.641 93.0997 143.941 93.6176C128.623 94.443 113.549 97.5848 98.274 98.6215Z" fill="#87331B"/>
<path d="M162.478 83.69C184.93 91.5605 210.396 102.651 233.783 91.6313C234.395 91.343 234.933 92.2544 234.317 92.5447C210.611 103.715 184.98 92.6974 162.198 84.7096C161.559 84.486 161.834 83.4644 162.478 83.69Z" fill="#87331B"/>
<path d="M97.629 91.2585L97.714 92.3165C112.65 91.132 127.26 87.0486 141.625 82.954C142.27 82.774 141.995 81.7483 141.339 81.9385C127.037 86.0108 112.502 90.0841 97.629 91.2585Z" fill="#87331B"/>
<path d="M158.433 104.206C158.169 104.577 156.625 104.809 156.223 104.893C153.959 105.338 151.494 105.275 149.188 105.423C144.47 105.729 139.753 106.036 135.034 106.343C125.418 106.957 115.802 107.58 106.197 108.204C103.902 108.353 101.543 108.585 99.1621 108.798L99.2471 109.718C104.007 109.4 108.778 109.103 113.539 108.787C124.721 108.067 135.902 107.337 147.093 106.618C149.897 106.438 152.754 106.375 155.556 106.048C156.783 105.899 158.497 105.666 159.491 104.788C161.617 102.895 158.91 101.308 157.206 100.63C152.669 98.8213 147.643 98.8436 142.831 98.9063C137.288 98.97 131.745 99.1915 126.212 99.5304C116.977 100.091 107.752 100.937 98.5491 101.837L98.6441 102.884C107.478 102.016 116.31 101.202 125.175 100.652C130.009 100.345 134.865 100.122 139.71 100.017C144.248 99.9107 148.955 99.6791 153.419 100.61C154.615 100.864 156.233 101.149 157.281 101.815C157.778 102.133 159.016 103.37 158.433 104.206Z" fill="#87331B"/>
<path d="M99.511 112.785L99.606 113.822C108.936 112.828 118.329 112.448 127.703 111.907C137.9 111.326 148.098 110.522 158.137 108.544C168.63 106.471 178.828 104.312 189.576 104.101C206.343 103.752 222.994 106.163 239.708 106.809L239.813 105.762C232.006 105.475 224.199 104.799 216.414 104.186C205.814 103.35 195.172 102.63 184.54 103.234C174.449 103.804 164.822 106.322 154.91 108.068C136.609 111.305 117.949 110.849 99.511 112.785Z" fill="#87331B"/>
<path d="M178.669 111.664C193.812 115.024 209.208 114.783 224.615 114.541C229.389 114.468 234.166 114.393 238.935 114.425L239.041 113.378C234.249 113.344 229.45 113.42 224.654 113.496C210.116 113.726 195.592 113.956 181.282 111.125C192.422 108.766 203.857 109.273 215.176 109.961C223.195 110.448 231.223 110.946 239.241 111.442L239.348 110.395C230.959 109.866 222.571 109.347 214.171 108.84C202.302 108.13 190.306 107.74 178.669 110.638C178.183 110.765 178.162 111.547 178.669 111.664Z" fill="#87331B"/>
<path d="M149.262 129.584C153.081 130.938 157.27 131.023 161.279 131.308C165.817 131.637 170.377 131.858 174.926 132.027C183.663 132.346 192.412 132.451 201.15 132.589C213.124 132.779 225.088 132.969 237.053 133.159L237.158 132.102C225.512 131.922 213.854 131.731 202.197 131.552C193.458 131.414 184.711 131.308 175.973 131.012C171.773 130.864 167.574 130.673 163.374 130.399C159.312 130.124 154.975 130.102 150.996 129.013C157.396 126.697 164.284 127.098 171.001 127.405C178.544 127.755 186.086 127.913 193.639 127.934C208.321 127.986 222.994 127.532 237.666 127.056L237.772 125.998C222.359 126.495 206.947 126.971 191.534 126.866C183.769 126.823 176.015 126.548 168.251 126.22C161.735 125.955 155.229 126.019 149.135 128.622C148.68 128.822 148.881 129.457 149.262 129.584Z" fill="#87331B"/>
<path d="M100.632 125.565L100.727 126.623C119.271 126.485 137.233 119.906 155.841 119.968C169.181 121.206 182.52 122.454 195.87 123.692C208.162 124.835 221.534 127.479 233.572 123.597C234.228 123.396 233.942 122.37 233.297 122.581C221.068 126.517 207.305 123.692 194.812 122.539L156.773 118.996C156.699 118.943 156.603 118.9 156.486 118.9C156.265 118.9 156.052 118.911 155.841 118.911L154.35 118.774C154.159 118.752 154.032 118.826 153.947 118.932C135.985 119.292 118.583 125.459 100.632 125.565Z" fill="#87331B"/>
<path d="M101.088 130.748L101.183 131.806C105.869 131.277 110.556 130.738 115.252 130.188C120.911 129.532 126.592 128.686 132.305 128.675C142.449 128.643 151.907 132.854 161.713 134.894C171.298 136.884 181.061 137.815 190.825 138.312C200.949 138.841 211.104 139 221.249 139.189C226.305 139.285 231.362 139.402 236.418 139.423L236.524 138.365C235.308 138.365 234.091 138.344 232.875 138.322C227.057 138.238 221.249 138.142 215.43 138.016C195.458 137.592 175.085 137.518 155.641 132.378C150.849 131.108 146.163 129.469 141.296 128.495C136.844 127.606 132.347 127.469 127.83 127.798C118.903 128.421 109.984 129.68 101.088 130.748Z" fill="#87331B"/>
<path d="M102.41 145.864L102.505 146.911C108.451 146.668 114.395 146.161 120.308 145.399C129.671 144.193 138.906 141.897 148.31 141.093C157.661 140.3 167.087 141.612 176.396 142.385C195.627 143.971 214.965 145.166 234.218 143.209C234.895 143.146 234.895 142.088 234.218 142.151C223.322 143.262 212.362 143.389 201.425 142.965C191.681 142.585 181.95 141.792 172.238 140.977C162.888 140.184 153.684 139.263 144.333 140.469C135.087 141.664 125.979 143.737 116.701 144.775C111.952 145.303 107.181 145.674 102.41 145.864Z" fill="#87331B"/>
<path d="M130.834 135.202C125.788 138.989 118.584 139.941 112.565 141.051C109.106 141.686 105.626 142.204 102.125 142.586L102.22 143.644C106.112 143.21 109.984 142.628 113.835 141.887C120.118 140.671 127.322 139.613 132.357 135.339C132.675 135.064 132.474 134.556 132.125 134.451C125.217 132.346 118.118 133.531 111.191 134.894C107.995 135.529 104.811 136.164 101.617 136.799L101.712 137.857C104.292 137.338 106.885 136.83 109.466 136.312C116.521 134.905 123.746 133.371 130.834 135.202Z" fill="#87331B"/>
<path d="M103.499 158.337L103.594 159.406C112.681 159.543 121.769 159.68 130.855 159.818C149.315 160.103 167.784 160.125 186.181 161.754C202.028 163.161 217.843 164.979 233.657 166.725L233.763 165.69C225.925 164.853 218.097 164.018 210.257 163.171C191.946 161.204 173.72 159.5 155.291 159.152C138.038 158.813 120.763 158.591 103.499 158.337Z" fill="#87331B"/>
<path d="M197.838 159.331C203.127 160.199 208.448 160.907 213.78 161.479C220.508 162.198 227.268 162.663 234.038 162.917L234.143 161.86C228.537 161.658 222.94 161.299 217.356 160.78C212.288 160.294 207.232 159.691 202.186 158.951C199.489 158.548 196.727 158.22 194.072 157.628C193.607 157.521 191.29 157.406 191.893 156.348C192.02 156.115 195.595 156.571 196.008 156.592C208.893 157.279 221.809 157.279 234.683 156.602L234.789 155.544C220.159 156.306 205.486 156.189 190.856 155.216C190.624 155.205 190.422 155.396 190.349 155.608C189.217 158.908 196.134 159.056 197.838 159.331Z" fill="#87331B"/>
<path d="M104.599 170.903L104.705 172.004C110.163 172.015 115.622 171.686 121.121 171.168C140.692 169.296 160.189 168.227 179.843 169.031C189.745 169.434 199.614 170.247 209.452 171.401C217.281 172.332 225.098 173.337 232.98 173.39L233.085 172.332C223.976 172.279 214.921 170.925 205.856 169.93C186.497 167.794 166.969 167.159 147.505 168.048C133.171 168.692 118.901 170.903 104.599 170.903Z" fill="#87331B"/>
<path d="M143.338 163.859C141.402 165.382 138.535 165.424 136.197 165.721C133.468 166.08 130.729 166.398 127.999 166.673C122.858 167.202 117.705 167.592 112.554 167.857C109.825 167.995 107.096 168.1 104.367 168.165L104.461 169.223C108.185 169.138 111.92 168.979 115.643 168.746C121.483 168.387 127.311 167.857 133.13 167.159C136.683 166.736 142.036 166.959 144.681 164.092C144.903 163.848 144.882 163.425 144.575 163.256C141.55 161.669 138.313 161.585 134.971 161.616C130.77 161.669 126.571 161.754 122.382 161.817C116.204 161.913 110.016 162.008 103.838 162.113L103.922 163.161L120.287 162.907C124.308 162.843 128.326 162.78 132.347 162.717C136.039 162.663 139.9 162.346 143.338 163.859Z" fill="#87331B"/>
<path d="M105.034 175.739L105.118 176.796C115.337 175.939 125.567 175.178 135.796 174.533C145.878 173.898 156.012 173.051 166.114 173.57C176.375 174.099 186.52 175.865 196.654 177.484C200.05 178.024 203.478 178.552 206.916 179.008L215.938 178.997C197.553 177.346 179.517 172.512 160.983 172.354C151.008 172.269 141.011 173.125 131.067 173.781C122.382 174.363 113.708 175.018 105.034 175.739Z" fill="#87331B"/>
<path d="M138.79 179.124L144.925 179.113H144.946C146.893 178.816 148.849 178.594 150.818 178.477C156.213 178.171 161.607 178.382 166.928 179.07H166.949L173.37 179.059C166.284 177.631 159.047 177.039 151.801 177.377C147.443 177.568 143.116 178.34 138.79 179.124Z" fill="#87331B"/>
<path d="M134.81 155.015C138.873 156.062 143.242 155.978 147.41 155.999C151.673 156.03 155.947 155.989 160.21 155.861C164.261 155.745 168.324 155.586 172.365 155.311C174.554 155.162 176.754 154.962 178.881 154.412C179.315 154.307 179.749 154.189 180.171 154.042C181.695 154.03 182.117 153.429 181.452 152.222C181.621 151.186 181.218 150.678 180.235 150.699C179.59 150.497 178.933 150.317 178.289 150.138C170.069 147.853 161.638 146.52 153.133 146.076C148.965 146.774 144.818 147.588 140.703 148.541C138.936 148.954 137.107 149.334 135.457 150.106C134.726 150.445 133.52 151.037 133.044 151.672C131.066 154.316 133.33 154.634 134.81 155.015ZM137.973 148.118C142.576 146.849 147.325 145.991 152.043 145.187C152.117 145.06 152.255 144.965 152.466 144.975C161.458 145.399 170.386 146.795 179.061 149.25C180.52 149.673 184.35 150.266 183.906 152.645C183.408 155.226 177.971 155.766 176.024 156.03C167.139 157.216 157.893 157.088 148.944 157.067C144.755 157.056 140.513 157.109 136.366 156.4C134.653 156.104 131.003 155.713 130.961 153.301C130.907 150.308 135.773 148.72 137.973 148.118Z" fill="#87331B"/>
<path d="M229.109 88.6547L222.829 178.983L232.424 178.965L242.494 79.2932L96.6481 80.0721L97.4001 88.6547H229.109Z" fill="#521A14"/>
<path d="M238.821 115.638H100.433L100.944 121.463H238.233L238.821 115.638Z" fill="#521A14"/>
<path d="M235.56 147.903H102.587L103.096 153.727H234.972L235.56 147.903Z" fill="#521A14"/>
<path d="M17.9077 96.1669L18.0453 97.2887C25.3453 99.2035 32.9822 99.5635 40.5664 99.4462C49.7175 99.2985 58.8787 98.8646 68.0288 98.4519L67.9439 97.3939C59.4492 97.7641 50.9445 98.1454 42.4398 98.3457C34.2091 98.548 25.842 98.3143 17.9077 96.1669Z" fill="#662816"/>
<path d="M27.2397 86.7625C40.1455 91.7877 53.9181 96.8968 67.797 95.5535L67.7231 94.4954C53.9707 95.8499 40.3134 90.7084 27.5249 85.7368C26.8897 85.493 26.6156 86.5187 27.2397 86.7625Z" fill="#662816"/>
<path d="M47.8457 108.079C47.4229 108.576 46.5965 108.85 46.026 109.072C40.313 111.336 32.93 110.966 26.8893 110.766C24.488 110.692 22.0978 110.543 19.7066 110.342L19.8442 111.411C24.0439 111.759 28.2548 111.96 32.4748 111.866C36.1355 111.791 39.8487 111.547 43.4446 110.871C45.5071 110.48 48.5224 109.76 49.7078 107.783C51.9605 104.016 39.8265 103.234 37.7326 103.074C31.4178 102.599 25.0585 102.599 18.7234 102.641L18.861 103.709C23.5574 103.698 28.2437 103.731 32.9401 103.889C36.2093 104.006 39.5099 104.154 42.7355 104.746C44.0475 104.99 45.6133 105.17 46.819 105.772C47.9084 106.302 48.8187 106.915 47.8457 108.079Z" fill="#662816"/>
<path d="M21.4845 124.338L21.6221 125.438C27.0488 125.046 32.4017 124.116 37.5321 122.18C43.3826 119.969 48.608 116.393 54.6164 114.553C59.334 113.103 64.2429 112.532 69.1305 112.712L69.0566 111.675C65.1745 111.516 61.2913 111.833 57.4719 112.691C51.4109 114.055 46.2168 117.092 40.6526 119.705C34.5491 122.581 28.0755 123.862 21.4845 124.338Z" fill="#662816"/>
<path d="M22.7644 134.355L22.902 135.509C28.3388 135.35 33.7655 134.64 39.1184 133.413C46.3851 131.753 53.1763 130.345 60.6766 130.821C63.9883 131.023 67.2888 131.266 70.5894 131.499L70.5044 130.441C67.2362 130.198 63.9569 129.965 60.6766 129.763C54.1392 129.352 48.142 130.187 41.7938 131.699C35.4477 133.213 29.1106 134.143 22.7644 134.355Z" fill="#662816"/>
<path d="M50.7657 124.126C51.2725 124.094 51.7803 124.084 52.288 124.094C51.8551 124.592 51.4212 125.089 50.9872 125.585C49.739 126.379 47.7818 126.666 46.3647 127.089C44.6512 127.595 42.9367 128.061 41.2019 128.484C38.0602 129.246 34.876 129.871 31.6715 130.335C28.5824 130.781 25.4821 131.087 22.3616 131.257L22.4992 132.293C26.6241 132.07 30.74 131.605 34.8234 130.896C38.8108 130.199 42.7576 129.267 46.6388 128.103C48.3108 127.606 53.5787 126.887 53.9702 124.602C54.6266 120.836 39.7949 125.036 38.1229 125.417C32.7812 126.623 27.4182 127.786 22.0026 128.421L22.1401 129.479C25.5772 129.076 28.9941 128.474 32.4008 127.764C35.7439 127.067 39.0646 126.284 42.3864 125.533C44.0473 125.163 45.7082 124.781 47.3802 124.507C48.5121 124.327 49.6328 124.19 50.7657 124.126Z" fill="#662816"/>
<path d="M23.4833 140.089L23.6209 141.136C34.1143 138.926 44.8099 136.863 55.5774 137.529C61.0577 137.868 66.178 139.138 71.3194 140.904L71.2345 139.739C70.3454 139.423 69.4684 139.115 68.5793 138.83C63.7453 137.296 58.6989 136.545 53.6424 136.376C43.4757 136.058 33.3951 137.994 23.4833 140.089Z" fill="#662816"/>
<path d="M26.2238 161.585L26.3513 162.643C32.1169 162.366 37.9027 162.304 43.6794 162.451C53.5587 162.705 63.2389 163.605 73.0343 162.896L72.9493 161.849C62.8363 162.6 52.8294 161.595 42.6416 161.372C37.1622 161.257 31.6931 161.32 26.2238 161.585Z" fill="#662816"/>
<path d="M27.3342 170.332L27.4717 171.401C36.5267 169.211 45.9732 169.021 55.1556 171C61.3551 172.332 67.6599 174.384 73.9443 174.713L73.8695 173.706C66.1052 173.305 58.2559 170.174 50.6494 169.137C42.8527 168.068 34.9407 168.502 27.3342 170.332Z" fill="#662816"/>
<path d="M28.1377 176.7L28.2753 177.77C33.4481 176.119 38.8961 175.473 44.3552 175.939C49.2104 176.352 54.0029 177.664 58.7206 179.177H62.1051C56.0017 177.166 49.792 175.209 43.4448 174.818C38.2406 174.49 33.0668 175.157 28.1377 176.7Z" fill="#662816"/>
<path d="M41.625 152.784C44.3976 158.232 53.6003 158.602 58.7943 158.802C63.428 158.982 68.0506 158.612 72.652 158.02L72.567 156.971C69.3099 157.385 66.0296 157.692 62.7301 157.766C57.1233 157.893 49.9821 157.85 45.0642 154.772C44.1538 154.201 43.3072 153.514 42.8318 152.53C42.059 151.821 42.1227 151.059 43.0432 150.276C43.1797 149.367 43.645 148.774 44.4289 148.499C45.6559 147.737 47.507 147.431 48.8826 147.103C51.9394 146.373 55.0609 145.981 58.2016 145.823C62.7078 145.59 67.2252 145.802 71.7214 146.13L71.6475 145.072C65.3742 144.617 59.0593 144.373 52.8173 145.272C49.6756 145.738 38.7483 147.113 41.625 152.784Z" fill="#662816"/>
<path d="M66.5375 79.2946L67.2789 88.6551H24.9434L35.5086 179.174H28.4553L15.7609 79.2946H66.5375Z" fill="#3A1416"/>
<path d="M69.3604 115.638H20.3793L21.1207 121.463H69.8136L69.3604 115.638Z" fill="#3A1416"/>
<path d="M71.8682 147.903H24.4822L25.2226 153.727H71.8682V147.903Z" fill="#3A1416"/>
<path d="M81.1094 65.6582H3.06674L0.699829 46.5125H5.99C5.99 46.5125 6.21254 0.622486 36.9177 0.600232C74.2918 0.572922 72.899 46.5125 72.899 46.5125H79.2462L81.1094 65.6582Z" fill="#DB3422"/>
<path d="M257.656 65.6583L259.595 46.5126H79.246L81.1091 65.6583H257.656Z" fill="#F16E17"/>
<path d="M249.899 71.3C253.983 71.3 253.99 77.6482 249.899 77.6482C245.815 77.6482 245.808 71.3 249.899 71.3Z" fill="#EE9711"/>
<path d="M240.731 182.022C242.449 182.099 243.904 183.416 243.904 185.196V185.9C243.904 187.561 242.444 189.151 240.731 189.074C239.011 188.998 237.557 187.681 237.557 185.9V185.196C237.557 183.535 239.016 181.945 240.731 182.022Z" fill="#EE9711"/>
<path d="M101.8 182.022C105.884 182.022 105.891 188.369 101.8 188.369C97.716 188.369 97.709 182.022 101.8 182.022Z" fill="#EE9711"/>
<path d="M91.2211 70.5942C95.3056 70.5942 95.3126 76.9414 91.2211 76.9414C87.1377 76.9414 87.1306 70.5942 91.2211 70.5942Z" fill="#EE9711"/>
<path d="M73.5911 69.8904C75.3096 69.9673 76.7642 71.2843 76.7642 73.0625V73.7685C76.7642 75.4284 75.3046 77.0195 73.5911 76.9416C71.8715 76.8647 70.417 75.5467 70.417 73.7685V73.0625C70.417 71.4036 71.8776 69.8125 73.5911 69.8904Z" fill="#D57A1A"/>
<path d="M82.7578 182.022H83.4639C85.1227 182.022 86.7138 183.481 86.637 185.196C86.5601 186.915 85.2421 188.369 83.4639 188.369H82.7578C81.098 188.369 79.5079 186.91 79.5848 185.196C79.6616 183.476 80.9796 182.022 82.7578 182.022Z" fill="#D57A1A"/>
<path d="M24.2237 182.727H24.9297C26.5896 182.727 28.1797 184.187 28.1028 185.9C28.0259 187.62 26.7089 189.074 24.9297 189.074H24.2237C22.5648 189.074 20.9737 187.615 21.0516 185.9C21.1285 184.182 22.4444 182.727 24.2237 182.727Z" fill="#D57A1A"/>
<path d="M10.8236 69.8911C14.9081 69.8911 14.9152 76.2373 10.8236 76.2373C6.74024 76.2373 6.73314 69.8911 10.8236 69.8911Z" fill="#D57A1A"/>
<path d="M12.8518 46.5121H64.4214C64.4214 46.5121 64.4861 43.8457 64.0097 39.9211C63.9672 39.5509 63.9247 39.1705 63.862 38.7791C63.7032 37.5724 63.4807 36.2716 63.2055 34.9071C62.9729 33.754 62.6876 32.5695 62.3488 31.3526C61.5548 28.486 60.4654 25.5132 58.9532 22.6891C58.7731 22.3502 58.583 22.0013 58.3817 21.6624C57.8324 20.7106 57.2174 19.7689 56.562 18.8696C56.3394 18.5743 56.1078 18.2779 55.8853 17.9815C55.4625 17.4637 55.0285 16.9559 54.5734 16.4693C53.3565 15.1675 52.0031 13.9719 50.4697 12.925C47.1894 10.7038 43.1282 9.20164 38.1232 8.83042L38.1769 8.82029C37.7642 8.78894 37.3626 8.7677 36.9398 8.74646C36.5261 8.72521 36.1144 8.71509 35.6795 8.71509C31.153 8.71509 27.5247 10.3437 24.6156 12.925C24.3405 13.1688 24.0755 13.4217 23.8115 13.6756L23.6739 13.8242C23.4837 14.0144 23.2926 14.2046 23.1236 14.4059C22.8273 14.7235 22.542 15.0512 22.277 15.3901C22.1607 15.5276 22.0444 15.6652 21.9382 15.8129C21.8218 15.9504 21.7065 16.0981 21.6003 16.2569L21.4415 16.4693C20.5433 17.6963 19.7392 19.0284 19.02 20.4253C18.8389 20.7531 18.6811 21.0808 18.5223 21.4196C18.3311 21.8212 18.142 22.2238 17.9619 22.6254C17.8132 22.9642 17.6656 23.3031 17.5381 23.6409C17.2953 24.2124 17.0728 24.794 16.8614 25.3756C16.6702 25.8834 16.5013 26.3811 16.3324 26.8889C16.2484 27.1215 16.1736 27.3643 16.0997 27.5979C16.0684 27.7031 16.037 27.8194 16.0037 27.9257C15.8459 28.4223 15.6982 28.92 15.5606 29.4277C15.3806 30.0731 15.2106 30.7184 15.0528 31.3526C14.7453 32.5695 14.4914 33.754 14.2689 34.9071C14.1748 35.3835 14.0899 35.8589 14.0049 36.3141C13.9412 36.6742 13.8886 37.0231 13.836 37.361C12.9681 42.6289 12.8518 46.5121 12.8518 46.5121Z" fill="#521A14"/>
<path d="M18.5232 21.419C19.8878 21.6092 21.2412 21.7781 22.6067 21.9268C34.6557 23.3125 46.8312 23.5664 58.9541 22.6884C58.7741 22.3496 58.5839 22.0006 58.3826 21.6617C46.5976 22.4871 34.7933 22.2333 23.0932 20.9224C21.7277 20.7737 20.3743 20.6148 19.0209 20.4247C18.8398 20.7524 18.682 21.0801 18.5232 21.419Z" fill="#662816"/>
<path d="M13.8363 37.3608C17.7286 37.6896 21.6219 37.9222 25.5252 37.996C30.254 38.0911 34.9929 37.9536 39.6894 37.467C43.001 37.1282 47.5073 37.1919 50.3425 35.2882C51.8982 34.2515 52.321 32.5906 51.0304 31.1512C48.9143 28.8035 44.8733 28.8349 42.0168 28.6346C33.4595 28.0418 24.89 27.4703 16.3327 26.8887C16.2487 27.1214 16.1739 27.3641 16.1001 27.5978C16.0687 27.703 16.0373 27.8193 16.004 27.9255C22.6162 28.3807 29.2385 28.8247 35.8497 29.2688C39.6054 29.5227 43.8679 29.3002 47.4759 30.4007C48.2376 30.6333 49.8024 31.1198 50.2788 31.9027C51.5058 33.9025 49.327 34.7592 48.185 35.0971C46.4078 35.616 44.4606 35.8061 42.6409 36.0499C33.1318 37.3507 23.5579 37.1282 14.0052 36.3139C13.9415 36.674 13.8889 37.023 13.8363 37.3608Z" fill="#662816"/>
<path d="M26.4774 46.512H31.3326C32.3795 46.2469 33.4264 45.9506 34.4632 45.6441C40.3977 43.877 46.1532 41.4443 52.2354 40.1961C56.2652 39.3707 60.1372 39.4132 64.0093 39.921C63.9668 39.5508 63.9243 39.1704 63.8616 38.779C60.8564 38.3875 57.832 38.2813 54.7318 38.7051C48.5858 39.5508 42.7889 41.857 36.9171 43.7718C33.48 44.8935 29.9883 45.813 26.4774 46.512Z" fill="#662816"/>
<path d="M21.6005 16.2567C22.7222 16.7331 23.8642 17.1671 25.0072 17.5788C35.1829 21.208 46.089 22.3288 56.5621 18.8694C56.3396 18.5741 56.108 18.2777 55.8854 17.9813C45.8149 21.1767 35.3943 20.1075 25.6313 16.6694C24.4994 16.278 23.3777 15.845 22.2772 15.3898C22.1608 15.5274 22.0445 15.665 21.9383 15.8127C21.822 15.9502 21.7067 16.0979 21.6005 16.2567Z" fill="#662816"/>
<path d="M12.8528 46.5121H17.179C17.179 46.5121 17.3277 41.3817 18.5971 34.9071C18.8196 33.754 19.0725 32.5695 19.38 31.3526C20.1518 28.2321 21.1886 24.9741 22.6067 21.9274C22.7655 21.5886 22.9233 21.2507 23.0933 20.923C23.6648 19.7588 24.299 18.637 25.008 17.579C25.2083 17.2725 25.4096 16.966 25.6321 16.6696L25.7697 16.4693C26.7215 15.1574 27.7684 13.9618 28.9428 12.925C31.4392 10.7139 34.4545 9.20164 38.1242 8.83042L38.1778 8.82029C37.7651 8.78894 37.3636 8.7677 36.9408 8.74646C36.5271 8.72521 36.1154 8.71509 35.6804 8.71509C31.1539 8.71509 27.5257 10.3437 24.6166 12.925C24.3414 13.1688 24.0764 13.4217 23.8124 13.6756L23.6749 13.8242C23.4847 14.0144 23.2935 14.2046 23.1246 14.4059C22.8282 14.7235 22.543 15.0512 22.278 15.3901C22.1617 15.5276 22.0453 15.6652 21.9391 15.8129C21.8228 15.9504 21.7075 16.0981 21.6013 16.2569L21.4425 16.4693C20.5443 17.6963 19.7401 19.0284 19.0209 20.4253C18.8399 20.7531 18.6821 21.0808 18.5233 21.4196C18.3321 21.8212 18.1429 22.2238 17.9629 22.6254C17.8142 22.9642 17.6665 23.3031 17.5391 23.6409C17.2963 24.2124 17.0738 24.794 16.8624 25.3756C16.5862 26.1161 16.3334 26.8565 16.1007 27.5979C15.9106 28.2109 15.7305 28.8137 15.5616 29.4277C15.3815 30.0731 15.2116 30.7184 15.0538 31.3526C14.7463 32.5695 14.4924 33.754 14.2699 34.9071C13.0015 41.3817 12.8528 46.5121 12.8528 46.5121Z" fill="#3A1416"/>
<path d="M21.4414 16.4692H54.5732C53.3564 15.1674 52.003 13.9718 50.4696 12.9249H24.6155C23.4411 13.9617 22.3942 15.1573 21.4414 16.4692Z" fill="#3A1416"/>
<path d="M14.2689 34.907H63.2056C62.9729 33.7539 62.6877 32.5694 62.3488 31.3525H15.0529C14.7454 32.5694 14.4915 33.7539 14.2689 34.907Z" fill="#3A1416"/>
<path d="M188.189 42.472L183.941 83.6575H145.974L140.412 42.472H188.189Z" fill="#F6881C"/>
<path d="M178.825 83.665L183.942 83.657L184.361 79.6039L183.942 83.657H178.818C178.821 83.66 178.822 83.662 178.825 83.665Z" fill="#66271C"/>
<path d="M178.817 83.6575H183.941L184.36 79.6044L188.189 42.472H159.364L162.133 79.138C162.221 79.136 162.308 79.135 162.396 79.135C163.629 79.135 164.782 79.2888 165.858 79.576C166.261 79.4536 166.676 79.3555 167.102 79.2857C167.655 79.1876 168.233 79.138 168.836 79.138C173.025 79.138 176.283 80.9143 178.817 83.6575Z" fill="#F7942C"/>
<path d="M150.108 83.6897L153.706 83.6573H153.707H150.105L150.108 83.6897Z" fill="#66271C"/>
<path d="M150.105 83.6575H153.707C154.214 83.0364 154.751 82.4649 155.322 81.9521L153.547 42.472H145.975L150.105 83.6575Z" fill="#F7942C"/>
<path d="M145.612 43.973C148.334 43.973 148.339 48.2041 145.612 48.2041C142.89 48.2041 142.885 43.973 145.612 43.973Z" fill="#B9561E"/>
<path d="M184.222 44.766C186.945 44.766 186.951 48.9971 184.222 48.9971C181.501 48.9971 181.496 44.766 184.222 44.766Z" fill="#B9561E"/>
<path d="M180.786 77.295C183.508 77.295 183.513 81.5271 180.786 81.5271C178.063 81.5271 178.059 77.295 180.786 77.295Z" fill="#B9561E"/>
<path d="M149.315 77.295C152.037 77.295 152.042 81.5271 149.315 81.5271C146.592 81.5271 146.587 77.295 149.315 77.295Z" fill="#B9561E"/>
<path d="M140.413 42.472L145.975 83.6575H137.061L130.96 42.7168L140.413 42.472Z" fill="#A0291F"/>
<path d="M181.231 113.56C181.231 113.56 180.85 79.1348 162.398 79.1348C146.516 79.1348 145.455 113.56 145.455 113.56H181.231Z" fill="#DB3422"/>
<path d="M151.892 113.564H187.669C187.669 113.564 187.287 79.1381 168.837 79.1381C168.234 79.1381 167.655 79.1877 167.102 79.2858C165.823 79.4973 164.651 79.9524 163.576 80.6038C160.702 82.3305 158.528 85.457 156.891 89.1136V89.1207C152.332 99.2823 151.892 113.564 151.892 113.564Z" fill="#F16E17"/>
<path d="M173.038 113.742L187.669 113.563H173.005L173.038 113.742Z" fill="#76391A"/>
<path d="M173.005 113.564H187.669C187.669 113.564 187.287 79.1381 168.837 79.1381C168.234 79.1381 167.655 79.1877 167.102 79.2858L173.005 113.564Z" fill="#F27D14"/>
<path d="M158.814 113.564H165.304L163.577 80.6038C160.703 82.3305 158.53 85.457 156.892 89.1136V89.1207L158.814 113.564Z" fill="#F27D14"/>
<path d="M165.877 93.5968C165.877 90.3732 168.491 87.7584 171.715 87.7584C174.94 87.7584 177.554 90.3732 177.554 93.5968C177.554 95.7473 176.388 97.6216 174.657 98.6351L176.142 109.444H166.446L168.271 98.3044C166.822 97.2423 165.877 95.5319 165.877 93.5968Z" fill="#371613"/>
<path d="M179.217 84.9537C180.034 77.2369 179.086 67.0531 170.679 63.7707C167.606 62.5701 163.809 62.5933 161.749 65.4326C160.283 67.4506 159.7 70.0451 159.152 72.2816C158.003 76.98 157.413 81.7725 156.602 86.5023C156.33 88.0914 153.238 88.1055 153.512 86.5023C154.574 80.2937 155.083 73.7847 157.407 67.7278C159.2 63.0516 162.823 59.5872 169.305 60.6978C182.79 63.0091 183.467 78.7178 181.887 87.9548C181.121 86.8584 180.237 85.8428 179.217 84.9537Z" fill="#741F18"/>
<path d="M160.272 48.365V48.539C160.272 49.9126 161.385 51.0253 162.758 51.0253H167.563L166.329 76.942L162.757 76.9441C161.385 76.9441 160.272 78.0577 160.272 79.4293C160.272 80.803 161.385 81.9156 162.758 81.9156H170.736L172.852 46.4411L162.897 45.8828C161.472 45.8028 160.272 46.9378 160.272 48.365Z" fill="#371613"/>
</svg>
