<svg width="106" height="163" viewBox="0 0 106 163" fill="none" xmlns="http://www.w3.org/2000/svg">
<path d="M80.9232 72.7812C80.8054 72.8892 79.601 73.8142 73.7101 73.3108C70.3822 73.0239 66.2541 72.3466 61.5373 71.4722C68.7729 66.4768 76.6338 62.5054 79.9 63.1509C79.9772 63.1662 80.0139 63.1808 80.0305 63.1841C80.0263 63.2053 80.4047 63.6078 80.7061 64.8882C82.2414 71.4859 80.9348 72.7689 80.9232 72.7812ZM93.7876 62.4581C89.4783 43.9435 57.5822 70.6905 57.5822 70.6905L58.301 73.8563C85.6413 79.2599 98.2798 81.7578 93.7876 62.4581" fill="#FFA62C"/>
<path d="M33.1767 55.4942C33.9435 54.4249 34.4466 54.1966 34.4506 54.1763C34.4663 54.1794 34.5068 54.18 34.584 54.1953C37.8501 54.8408 43.6083 61.503 48.4005 68.8757C43.7057 67.89 39.6303 66.9459 36.4435 65.9452C30.804 64.1697 30.0421 62.856 29.9732 62.7112C29.968 62.6964 29.2479 61.0119 33.1767 55.4942ZM50.4866 72.3116L52.3547 69.6572C52.3547 69.6572 33.0329 32.7873 22.0043 48.2704C10.5077 64.4101 23.1453 66.9078 50.4866 72.3116Z" fill="#FFA62C"/>
<path d="M59.5353 68.0455L52.312 66.6178C50.8871 66.3362 49.5265 67.1523 49.2721 68.4395L48.5807 71.9378L60.9632 74.3851L61.6546 70.8868C61.909 69.5996 60.9602 68.3271 59.5353 68.0455Z" fill="#FFA62C"/>
<path d="M15.038 138.054L22.2632 139.482L20.9245 146.255L13.6993 144.827L15.038 138.054Z" fill="#F7931E"/>
<path d="M13.6897 124.477L40.9069 129.857L39.5682 136.63L12.3511 131.251L13.6897 124.477Z" fill="#F7931E"/>
<path d="M26.6411 117.275L44.7458 120.853L39.6934 146.417L21.5887 142.839L26.6411 117.275Z" fill="#F7931E"/>
<g opacity="0.300003">
<g opacity="0.300003">
<path opacity="0.300003" d="M44.7458 120.853L36.9312 119.309L32.1951 143.272L21.905 141.238L21.9005 141.261L14.686 139.835L13.6993 144.827L20.9255 146.255L21.6004 142.841L39.6933 146.417L44.7458 120.853Z" fill="#F7931E"/>
</g>
</g>
<path d="M20.1014 112.435L27.3267 113.863L25.988 120.636L18.7628 119.208L20.1014 112.435Z" fill="#F7931E"/>
<path d="M64.7799 47.5248L54.0608 45.4062L33.6323 148.767C33.1035 151.443 35.0741 154.086 38.0344 154.671C40.9947 155.256 43.8226 153.561 44.3515 150.885L64.7799 47.5248Z" fill="#FBB03B"/>
<g opacity="0.300003">
<g opacity="0.300003">
<path opacity="0.300003" d="M54.061 45.4063L48.727 72.3939C48.727 72.3939 51.7105 72.99 52.1682 73.0741C54.5243 73.5094 56.6248 75.3263 56.0819 78.0728L42.1403 148.612C41.3216 152.755 35.7314 152.672 33.5679 150.003C33.7475 152.213 35.5346 154.177 38.0346 154.671C40.9948 155.256 43.8228 153.561 44.3517 150.885L64.7801 47.5248L54.061 45.4063Z" fill="#FBB03B"/>
</g>
</g>
<path d="M65.9064 62.3772C64.9918 67.0046 60.1008 69.9355 54.9816 68.9237C49.8625 67.9119 46.4542 63.3408 47.3688 58.7134C48.2833 54.086 53.1743 51.1552 58.2935 52.1669C63.4127 53.1787 66.821 57.7499 65.9064 62.3772Z" fill="#F7931E"/>
<g opacity="0.300003">
<g opacity="0.300003">
<path opacity="0.300003" d="M65.7686 58.7944C64.2743 62.5581 60.3967 65.3918 54.7312 64.2721C50.862 63.5074 48.4761 61.3523 47.3607 58.7747C46.4879 63.3809 49.8851 67.9159 54.9818 68.9232C60.1009 69.935 64.9919 67.0041 65.9063 62.3776C66.1476 61.1567 66.0809 59.9429 65.7686 58.7944Z" fill="#F7931E"/>
</g>
</g>
<path d="M67.1183 7.51725C46.2478 3.39235 27.422 9.69536 25.0701 21.5951C22.7182 33.4948 37.7307 46.4857 58.6012 50.6106C79.4717 54.7355 98.2975 48.4325 100.649 36.5328C103.001 24.6331 87.9888 11.6422 67.1183 7.51725ZM65.4983 15.7136C81.9367 18.9626 92.8276 28.4383 91.5819 34.7407C90.3363 41.043 76.6595 45.6631 60.2212 42.4142C43.7828 39.1653 32.8919 29.6895 34.1376 23.3872C35.3832 17.0849 49.06 12.4647 65.4983 15.7136Z" fill="#F7931E"/>
<path d="M67.1183 7.51725C46.2478 3.39235 27.422 9.69536 25.0701 21.5951C22.7182 33.4948 37.7307 46.4857 58.6012 50.6106C79.4717 54.7355 98.2975 48.4325 100.649 36.5328C103.001 24.6331 87.9888 11.6422 67.1183 7.51725ZM65.4983 15.7136C81.9367 18.9626 92.8276 28.4383 91.5819 34.7407C90.3363 41.043 76.6595 45.6631 60.2212 42.4142C43.7828 39.1653 32.8919 29.6895 34.1376 23.3872C35.3832 17.0849 49.06 12.4647 65.4983 15.7136Z" fill="#F7931E"/>
<path d="M67.1183 7.51725C46.2478 3.39235 27.422 9.69536 25.0701 21.5951C22.7182 33.4948 37.7307 46.4857 58.6012 50.6106C79.4717 54.7355 98.2975 48.4325 100.649 36.5328C103.001 24.6331 87.9888 11.6422 67.1183 7.51725ZM65.4983 15.7136C81.9367 18.9626 92.8276 28.4383 91.5819 34.7407C90.3363 41.043 76.6595 45.6631 60.2212 42.4142C43.7828 39.1653 32.8919 29.6895 34.1376 23.3872C35.3832 17.0849 49.06 12.4647 65.4983 15.7136Z" fill="#F7931E"/>
<g opacity="0.300003">
<g opacity="0.300003">
<path opacity="0.300003" d="M35.4192 28.6282C34.2876 26.7799 33.8226 24.9815 34.1377 23.3869C35.3832 17.0855 49.0592 12.4643 65.4985 15.7134C76.1727 17.8231 84.503 22.5592 88.6951 27.3468C85.3535 21.8883 76.172 15.9871 63.8931 13.5602C47.4537 10.3111 33.7777 14.9323 32.5323 21.2338C32.0955 23.4441 33.1558 26.043 35.4192 28.6282Z" fill="#F7931E"/>
</g>
<g opacity="0.300003">
<path opacity="0.300003" d="M96.2618 22.8366C98.7412 26.5743 99.8039 30.5331 99.0436 34.3795C96.6918 46.2793 77.8659 52.5823 56.9954 48.4574C44.1829 45.9251 33.5869 40.049 27.8525 33.1381C33.0433 40.965 44.4767 47.819 58.6008 50.6105C79.4713 54.7354 98.2972 48.4324 100.649 36.5327C101.557 31.938 99.8678 27.1834 96.2618 22.8366Z" fill="#F7931E"/>
</g>
</g>
<path d="M63.0059 55.7505L52.5722 53.6884C50.8785 53.3536 49.7497 51.8408 50.0525 50.309C50.3551 48.778 51.9746 47.8075 53.6683 48.1422L64.1021 50.2044C65.7968 50.5393 66.9244 52.0528 66.6218 53.5838C66.319 55.1156 64.7006 56.0855 63.0059 55.7505Z" fill="#FBB03B"/>
<g opacity="0.300003">
<g opacity="0.300003">
<path opacity="0.300003" d="M65.722 51.016C65.8533 52.9365 64.3263 54.9489 61.6348 54.4169L50.4133 52.199C50.8538 52.9296 51.6165 53.4998 52.5723 53.6887L63.0061 55.7509C64.6998 56.0856 66.3193 55.1151 66.6219 53.5841C66.8112 52.6265 66.4406 51.6757 65.722 51.016Z" fill="#FBB03B"/>
</g>
</g>
<path d="M59.607 72.9482L49.1732 70.886C47.4795 70.5512 46.3507 69.0385 46.6535 67.5066C46.9561 65.9756 48.5757 65.0051 50.2693 65.3399L60.7031 67.402C62.3978 67.737 63.5254 69.2504 63.2228 70.7814C62.9201 72.3133 61.3016 73.2831 59.607 72.9482Z" fill="#FBB03B"/>
<g opacity="0.300003">
<g opacity="0.300003">
<path opacity="0.300003" d="M62.3962 68.294C62.295 70.075 60.7979 71.7719 58.3019 71.2786L46.8165 69.0086C47.192 69.9245 48.053 70.6648 49.173 70.8861L59.6068 72.9483C61.3015 73.2832 62.9201 72.3125 63.2227 70.7815C63.4049 69.8593 63.0617 68.9497 62.3962 68.294Z" fill="#FBB03B"/>
</g>
</g>
</svg>
