<svg width="312" height="412" viewBox="0 0 312 412" fill="none" xmlns="http://www.w3.org/2000/svg">
<g filter="url(#filter0_d)">
<g filter="url(#filter1_d)">
<rect x="25" y="25" width="254" height="354" rx="20" fill="#61A1EC"/>
</g>
<rect x="41" y="39" width="222" height="326" rx="20" fill="#FBFBFB"/>
<path d="M77.6126 111L77.5858 118.822L81.7097 118.833C82.3033 118.052 83.2287 117.509 84.3286 117.512C86.1288 117.518 87.584 118.896 87.5781 120.589C87.5727 122.281 86.108 123.649 84.3078 123.644C83.208 123.641 82.2862 123.093 81.6985 122.309L77.5742 122.297L77.5362 133.623L81.6601 133.636C82.2532 132.853 83.179 132.311 84.2785 132.315C86.0786 132.32 87.5342 133.697 87.528 135.39C87.5226 137.082 86.0582 138.451 84.2581 138.446C83.1582 138.443 82.2364 137.894 81.6487 137.11L77.5239 137.098L77.4864 148.425L81.6098 148.437C82.2034 147.654 83.1293 147.112 84.2287 147.115C86.0289 147.122 87.4841 148.498 87.4782 150.191C87.4728 151.884 86.0086 153.252 84.2079 153.247C83.1084 153.245 82.1866 152.696 81.599 151.911L77.4746 151.899L77.4362 163.225L81.5601 163.238C82.1532 162.456 83.0795 161.913 84.1785 161.916C85.9792 161.922 87.4344 163.3 87.4285 164.992C87.423 166.685 85.9588 168.053 84.1578 168.048C83.0587 168.045 82.137 167.497 81.5488 166.713L77.425 166.701L77.3866 178.028L81.5104 178.041C82.1039 177.257 83.0294 176.715 84.1292 176.72C85.9294 176.724 87.3846 178.101 87.3788 179.794C87.3734 181.488 85.9086 182.855 84.108 182.851C83.009 182.848 82.0872 182.299 81.4991 181.514L77.3748 181.502L77.3363 192.828L81.4607 192.841C82.0542 192.059 82.9796 191.517 84.0795 191.52C85.8796 191.525 87.335 192.902 87.3291 194.596C87.3236 196.287 85.8589 197.657 84.0582 197.651C82.9593 197.648 82.037 197.099 81.4493 196.316L77.3246 196.303L77.287 207.63L81.4109 207.643C82.004 206.86 82.9299 206.317 84.0293 206.32C85.83 206.327 87.2852 207.704 87.2793 209.396C87.2738 211.09 85.8091 212.458 84.0085 212.453C82.909 212.45 81.9873 211.902 81.3997 211.117L77.2749 211.105L77.2374 222.431L81.3611 222.443C81.9539 221.662 82.8801 221.12 83.9792 221.124C85.7802 221.128 87.2354 222.505 87.2292 224.199C87.2237 225.891 85.7594 227.259 83.9588 227.253C82.8594 227.25 81.9376 226.703 81.3499 225.919L77.2251 225.906L77.1871 237.233L81.311 237.245C81.9041 236.462 82.8305 235.92 83.9294 235.923C85.73 235.929 87.1853 237.307 87.1794 238.999C87.1735 240.692 85.7097 242.062 83.9091 242.056C82.8096 242.053 81.8878 241.504 81.3001 240.719L77.1755 240.708L77.137 252.034L81.2612 252.047C81.8544 251.266 82.7807 250.722 83.8797 250.726C85.6803 250.731 87.1351 252.108 87.1296 253.801C87.1242 255.495 85.66 256.861 83.859 256.857C82.7599 256.854 81.8382 256.307 81.25 255.521L77.1257 255.508L77.0872 266.836L81.2116 266.848C81.8047 266.067 82.7306 265.523 83.83 265.527C85.6306 265.533 87.0858 266.91 87.08 268.602C87.0746 270.296 85.6097 271.664 83.8092 271.659C82.7102 271.656 81.7884 271.108 81.2003 270.323L77.0759 270.311L77.0375 281.637L81.1618 281.65C81.755 280.867 82.6808 280.325 83.7803 280.329C85.5808 280.334 87.0361 281.711 87.0302 283.404C87.0243 285.097 85.5601 286.465 83.7594 286.46C82.6604 286.457 81.7382 285.909 81.1505 285.124L77.0258 285.112L77 292.933L155.844 293.168L157.647 292.323L159.845 293.181L163.497 292.812L167.561 293.203L169.747 292.97L172.563 293.219L179.606 292.725L183.156 293.249L191.005 291.506L198.133 293.294L199.493 293.016L201.171 293.304L202.119 292.804L203.755 293.311L211.118 291.763L213.537 292.309L214.028 292.927L215.511 292.754L216.792 293.35L218.174 293.354L221.388 292.993L225.23 293.374L227 111.444L77.6126 111" fill="url(#paint0_linear)"/>
<path d="M225.232 122.232L93.1147 121.84L93.1166 121.415L225.234 121.809L225.232 122.232" fill="#B0DDEC"/>
<path d="M225.199 131.921L93.0826 131.527L93.0836 131.104L225.2 131.497L225.199 131.921Z" fill="#B0DDEC"/>
<path d="M225.167 141.609L93.0497 141.216L93.0509 140.792L225.168 141.185L225.167 141.609Z" fill="#B0DDEC"/>
<path d="M225.134 151.297L93.017 150.904L93.0184 150.479L225.136 150.874L225.134 151.297" fill="#B0DDEC"/>
<path d="M225.101 160.986L92.9844 160.592L92.9858 160.169L225.103 160.562L225.101 160.986Z" fill="#B0DDEC"/>
<path d="M225.068 170.674L92.952 170.281L92.9529 169.857L225.07 170.25L225.068 170.674Z" fill="#B0DDEC"/>
<path d="M225.036 180.362L92.919 179.969L92.9207 179.546L225.037 179.939L225.036 180.362Z" fill="#B0DDEC"/>
<path d="M225.004 190.049L92.8864 189.656L92.8878 189.233L225.005 189.626L225.004 190.049Z" fill="#B0DDEC"/>
<path d="M224.971 199.737L92.8539 199.344L92.8552 198.921L224.972 199.315L224.971 199.737Z" fill="#B0DDEC"/>
<path d="M224.939 209.426L92.8213 209.032L92.8231 208.608L224.94 209.002L224.939 209.426" fill="#B0DDEC"/>
<path d="M224.905 219.115L92.7888 218.722L92.79 218.297L224.906 218.69L224.905 219.115Z" fill="#B0DDEC"/>
<path d="M224.873 228.803L92.7562 228.41L92.7576 227.986L224.874 228.379L224.873 228.803" fill="#B0DDEC"/>
<path d="M224.84 238.443L92.7236 238.049L92.7255 237.626L224.842 238.018L224.84 238.443" fill="#B0DDEC"/>
<path d="M224.808 248.131L92.6916 247.738L92.6925 247.314L224.809 247.707L224.808 248.131Z" fill="#B0DDEC"/>
<path d="M224.776 257.818L92.6586 257.425L92.6599 257.002L224.777 257.396L224.776 257.818" fill="#B0DDEC"/>
<path d="M224.743 267.507L92.626 267.113L92.6274 266.691L224.744 267.084L224.743 267.507Z" fill="#B0DDEC"/>
<path d="M224.71 277.195L92.593 276.802L92.5948 276.378L224.712 276.771L224.71 277.195" fill="#B0DDEC"/>
<path d="M211.52 286.031L211.418 113.929H211.997L212.098 286.031H211.52" fill="#F6A3AA"/>
<path d="M235.606 59.7468V52H224.761C221.027 52 218 55.027 218 58.7606V86.789C218 90.5225 221.027 93.5496 224.761 93.5496H241.239C244.974 93.5496 248 90.5225 248 86.789V63.127H238.986C237.12 63.127 235.606 61.6135 235.606 59.7468Z" fill="#B9B0A8"/>
<path d="M237.966 54.4059V58.5713C237.966 59.9209 239.059 61.0144 240.409 61.0144H245.329C246.617 61.0144 247.663 60.013 247.754 58.747L239.499 52.1428C238.6 52.5037 237.966 53.3792 237.966 54.4059Z" fill="#B9B0A8"/>
<path d="M74.6062 59.7468V52H63.7606C60.027 52 57 55.027 57 58.7606V86.789C57 90.5225 60.027 93.5496 63.7606 93.5496H80.2394C83.9738 93.5496 87 90.5225 87 86.789V63.127H77.9865C76.1197 63.127 74.6062 61.6135 74.6062 59.7468Z" fill="#B9B0A8"/>
<path d="M76.9656 54.4059V58.5713C76.9656 59.9209 78.0591 61.0144 79.4087 61.0144H84.3287C85.6174 61.0144 86.6628 60.013 86.7541 58.747L78.4986 52.1428C77.6003 52.5037 76.9656 53.3792 76.9656 54.4059Z" fill="#B9B0A8"/>
</g>
<defs>
<filter id="filter0_d" x="0" y="0" width="312" height="412" filterUnits="userSpaceOnUse" color-interpolation-filters="sRGB">
<feFlood flood-opacity="0" result="BackgroundImageFix"/>
<feColorMatrix in="SourceAlpha" type="matrix" values="0 0 0 0 0 0 0 0 0 0 0 0 0 0 0 0 0 0 127 0"/>
<feOffset dx="4" dy="4"/>
<feGaussianBlur stdDeviation="14.5"/>
<feColorMatrix type="matrix" values="0 0 0 0 0 0 0 0 0 0 0 0 0 0 0 0 0 0 0.25 0"/>
<feBlend mode="normal" in2="BackgroundImageFix" result="effect1_dropShadow"/>
<feBlend mode="normal" in="SourceGraphic" in2="effect1_dropShadow" result="shape"/>
</filter>
<filter id="filter1_d" x="25" y="25" width="262" height="362" filterUnits="userSpaceOnUse" color-interpolation-filters="sRGB">
<feFlood flood-opacity="0" result="BackgroundImageFix"/>
<feColorMatrix in="SourceAlpha" type="matrix" values="0 0 0 0 0 0 0 0 0 0 0 0 0 0 0 0 0 0 127 0"/>
<feOffset dx="4" dy="4"/>
<feGaussianBlur stdDeviation="2"/>
<feColorMatrix type="matrix" values="0 0 0 0 0 0 0 0 0 0 0 0 0 0 0 0 0 0 0.25 0"/>
<feBlend mode="normal" in2="BackgroundImageFix" result="effect1_dropShadow"/>
<feBlend mode="normal" in="SourceGraphic" in2="effect1_dropShadow" result="shape"/>
</filter>
<linearGradient id="paint0_linear" x1="72.2558" y1="109.493" x2="219.819" y2="303.465" gradientUnits="userSpaceOnUse">
<stop stop-color="#B9B0A8"/>
<stop offset="0.566861" stop-color="#B9B0A8"/>
<stop offset="1" stop-color="#B9B0A8"/>
</linearGradient>
</defs>
</svg>
