<svg width="312" height="412" viewBox="0 0 312 412" fill="none" xmlns="http://www.w3.org/2000/svg">
<g filter="url(#filter0_d)">
<g filter="url(#filter1_d)">
<rect x="25" y="25" width="254" height="354" rx="20" fill="#61A1EC"/>
</g>
<rect x="41" y="39" width="222" height="326" rx="20" fill="#FBFBFB"/>
<g style="mix-blend-mode:exclusion">
<path d="M170.443 155.671L167.638 161.777L160.692 169.293L162.063 208.965L160.757 220.632L165.747 239.927C166.514 244.951 167.282 249.975 168.049 254.998C168.364 257.063 168.151 261.876 170.513 262.012C172.329 262.118 175.621 258.474 176.955 257.446C179.38 255.574 181.805 253.703 184.23 251.833C185.396 250.934 186.579 250.018 187.437 248.82C189.55 245.872 189.491 240.367 190.022 236.855C190.342 234.736 190.152 230.902 191.207 229.006C191.207 229.006 203.9 206.196 203.9 206.196L214.142 195.18C214.142 195.18 211.808 177.095 208.546 167.907C205.283 158.719 204.238 156.038 204.238 156.038L189.147 157.088L170.443 155.671" fill="#444D56"/>
<path d="M198.603 232.855L198.165 245.183C198.165 245.183 195.815 262.453 196.158 261.756C196.5 261.06 218.817 244.525 218.817 244.525C218.817 244.525 223.302 229.775 224.947 221.327C226.592 212.88 226.822 205.727 226.822 205.727C226.822 205.727 216.808 213.778 211.392 218.987C205.975 224.197 198.603 232.855 198.603 232.855" fill="#444D56"/>
<path d="M176.955 257.446C176.963 257.163 196.157 261.756 196.157 261.756L198.165 245.183L198.492 231.849L191.084 229.85L188.359 248.061L176.955 257.446Z" fill="#505C66"/>
<path d="M198.603 232.855C198.981 231.456 212.539 217.865 212.907 217.117C213.275 216.369 223.106 208.659 223.106 208.659L226.822 205.727L214.142 195.18C214.142 195.18 207.214 202.239 201.231 211.005C195.249 219.771 191.207 229.006 191.207 229.006L198.603 232.855" fill="#697783"/>
<path d="M161.428 167.922L167.638 161.777L170.443 155.671L189.147 157.088L204.238 156.038C204.238 156.038 198.289 151.402 188.299 148.504C178.31 145.607 163.841 141.715 163.841 141.715L145.134 140.707L126.976 141.314L152.637 150.574L158.095 152.854L161.428 167.922" fill="#8C9DAC"/>
<path d="M126.976 141.314L118.877 147.133L112.89 154.395L108.592 188.808L93.473 192.519L83.4064 218.454L77.1489 241.83L92.7377 260.104L105.902 262.28L153.167 262.558L170.513 262.012L162.905 227.733C162.905 227.733 162.379 218.43 162.063 208.965C161.747 199.501 159.317 166.481 159.849 165.4C160.381 164.319 158.095 152.854 158.095 152.854C158.095 152.854 133.223 140.625 126.976 141.314Z" fill="#8595A3"/>
<path d="M93.473 192.519L113.164 211.734L125.005 209.499L114.618 195.395L107.082 188.601L93.473 192.519" fill="#97AABB"/>
<path d="M158.095 152.854L170.443 155.671L166.147 164.333L160.692 169.293L158.095 152.854" fill="#97AABB"/>
<path d="M78.8292 235.137L93.3364 252.878L105.213 256.033L160.562 256.257L161.652 225.639L165.861 242.748L170.513 262.012L155.913 262.162C155.913 262.162 106.76 261.626 105.902 262.28C105.044 262.932 92.7377 260.104 92.7377 260.104L80.36 246.497L77.1489 241.83L78.8292 235.137" fill="#697783"/>
<path d="M214.028 195.356L226.964 205.571L227 205.601V205.646C226.978 207.321 226.91 208.994 226.74 210.659C226.688 211.495 226.547 212.321 226.454 213.152C226.36 213.983 226.24 214.811 226.1 215.637C225.598 218.944 224.925 222.223 224.189 225.484C222.714 232.01 220.939 238.459 218.951 244.852L218.922 244.945L218.839 245.009L195.969 262.565L195.319 261.849L195.423 261.735L195.656 262.534L176.572 257.547L176.88 256.392L195.906 261.595L196.685 261.807L196.139 262.393L196.033 262.507L195.382 261.792L218.451 244.496L218.34 244.652C220.392 238.308 222.24 231.883 223.785 225.391C224.556 222.144 225.265 218.881 225.803 215.589C225.951 214.767 226.08 213.943 226.184 213.116C226.285 212.289 226.436 211.465 226.496 210.634C226.686 208.976 226.771 207.313 226.812 205.646L226.848 205.719L214.028 195.356" fill="#444D56"/>
<path d="M214.241 194.865C211.808 197.382 209.624 200.102 207.456 202.828C205.31 205.571 203.323 208.432 201.391 211.322C199.474 214.224 197.714 217.225 196.076 220.287C194.422 223.338 192.928 226.48 191.697 229.718L191.724 229.613C191.258 232.704 190.716 235.784 190.217 238.872C189.709 241.956 189.108 245.029 188.558 248.107C188.893 244.997 189.177 241.88 189.554 238.776C189.94 235.673 190.283 232.565 190.703 229.467L190.71 229.416L190.729 229.361C191.934 226.049 193.403 222.845 195.033 219.731C196.685 216.625 198.544 213.639 200.509 210.731C202.465 207.816 204.632 205.047 206.903 202.376C209.156 199.691 211.654 197.209 214.241 194.865" fill="#97AABB"/>
<path d="M169.395 262.917C169.395 262.917 168.491 256.987 166.9 248.149C166.076 243.743 165.082 238.58 163.61 233.211C162.129 227.861 159.96 222.103 159.757 215.819C159.677 214.257 159.827 212.673 159.84 211.268C159.866 209.806 159.843 208.342 159.797 206.886C159.661 203.94 159.529 201.044 159.4 198.241C159.158 192.626 158.931 187.386 158.738 182.894C158.349 173.911 158.091 167.923 158.091 167.923L162.876 167.862C162.876 167.862 162.836 173.853 162.775 182.842C162.745 187.335 162.709 192.577 162.671 198.194C162.66 201.007 162.648 203.912 162.636 206.865C162.609 208.355 162.557 209.865 162.454 211.385C162.356 212.959 162.146 214.36 162.15 215.795C162.029 221.579 163.833 227.338 165.078 232.839C166.302 238.377 167.031 243.569 167.639 248.031C168.789 256.957 169.395 262.917 169.395 262.917" fill="#97AABB"/>
<path d="M158.223 168.634C157.906 167.484 157.574 166.108 157.344 164.882C157.101 163.614 156.909 162.34 156.77 161.062C156.493 158.507 156.423 155.938 156.563 153.39L156.703 154.075L156.646 153.926L157.428 154.751C152.653 152.043 147.879 149.382 142.938 147.055C138 144.725 132.868 142.775 127.591 141.218C132.995 142.232 138.348 143.661 143.571 145.508C148.797 147.349 153.887 149.545 158.929 151.762L159.405 151.973L159.711 152.588L159.782 152.731L159.903 152.978L159.922 153.417C160.021 155.784 160.315 158.135 160.795 160.436C161.034 161.587 161.319 162.725 161.65 163.848C161.994 165.011 162.334 166.004 162.784 167.188L158.223 168.634" fill="#97AABB"/>
<path d="M161.49 168.388C162.373 167.434 163.247 166.497 164.06 165.515C164.871 164.529 165.598 163.492 166.281 162.444C167.619 160.322 168.626 158.039 169.47 155.668L169.741 154.902L170.617 155.017C176.108 155.738 181.689 155.802 187.308 155.802C190.118 155.798 192.941 155.795 195.773 155.866C198.602 155.931 201.444 156.101 204.265 156.444L195.825 157.335C193.014 157.605 190.196 157.846 187.362 157.981C184.529 158.142 181.678 158.156 178.821 158.055C177.391 157.982 175.963 157.876 174.535 157.735C173.106 157.58 171.687 157.341 170.271 157.082L171.418 156.432C170.388 158.846 169.092 161.215 167.387 163.25C165.685 165.286 163.655 166.977 161.49 168.388" fill="#97AABB"/>
<path d="M127.459 141.067C127.459 141.067 129.321 140.809 132.603 140.507C135.883 140.22 140.591 139.903 146.248 140.028C151.9 140.172 158.506 140.658 165.482 141.888C172.455 143.096 179.801 144.976 186.928 147.488C190.476 148.836 193.968 150.059 197.458 151.471C199.178 152.205 200.871 153.056 202.391 154.111C203.952 155.203 205.258 156.656 206.046 158.333C206.844 159.998 207.28 161.701 207.755 163.321C208.228 164.952 208.691 166.548 209.142 168.1C210.02 171.217 210.79 174.184 211.422 176.939C212.703 182.45 213.324 187.136 213.622 190.415C213.915 193.698 213.937 195.581 213.937 195.581C213.937 195.581 213.842 193.7 213.421 190.437C213.024 187.174 212.141 182.555 210.768 177.098C210.078 174.369 209.248 171.433 208.305 168.347C207.821 166.805 207.323 165.222 206.815 163.604C206.292 161.988 205.867 160.306 205.115 158.792C203.695 155.684 200.36 153.911 197.024 152.499C193.639 151.157 190.019 149.917 186.528 148.613C172.429 143.472 157.457 141.181 146.226 140.7C140.603 140.469 135.902 140.522 132.617 140.706C129.333 140.88 127.459 141.067 127.459 141.067" fill="#97AABB"/>
<path d="M194.72 261.415C195.413 259.007 195.88 256.722 196.264 254.27C196.639 251.854 196.899 249.409 197.095 246.954C197.489 242.043 197.622 237.088 197.886 232.124L197.908 231.689L198.288 231.527L199.037 231.21L198.8 231.388C207.179 221.771 216.621 213.108 226.906 205.646C216.886 213.463 207.794 222.416 199.815 232.245L199.727 232.354L199.577 232.423L198.839 232.767L199.241 232.172C199.151 237.118 199.191 242.083 198.966 247.071C198.853 249.565 198.677 252.063 198.377 254.56C198.087 257.02 197.64 259.618 197.04 261.999L194.72 261.415" fill="#97AABB"/>
<path d="M198.82 232.717L191 229.887L191.408 228.764L199.227 231.595L198.82 232.717Z" fill="#97AABB"/>
<path d="M108.798 187.429C108.798 187.429 113.189 192.728 117.158 198.324C119.152 201.117 121.072 203.96 122.448 206.132C123.831 208.302 124.691 209.783 124.691 209.783C124.691 209.783 123.766 208.34 122.293 206.237C120.825 204.129 118.787 201.377 116.679 198.683C112.475 193.272 107.89 188.207 107.89 188.207L108.798 187.429" fill="#97AABB"/>
<path d="M189.364 247.73C189.241 247.425 188.908 247.573 188.737 247.744C188.542 247.916 188.367 248.112 188.198 248.312L187.213 249.559C186.885 249.997 186.419 250.342 186.027 250.664L184.798 251.67L179.882 255.693L169.933 263.583L169.339 261.951L170.198 261.883L170.259 263.742C167.07 263.818 163.881 263.812 160.691 263.838L151.121 263.844C144.74 263.845 138.36 263.752 131.981 263.666C125.601 263.564 119.224 263.382 112.85 263.151C109.667 263.021 106.46 262.852 103.278 262.42C100.099 261.999 96.9236 261.384 93.9238 260.273C97.0345 261.001 100.191 261.38 103.358 261.525C106.527 261.644 109.698 261.682 112.888 261.647C119.266 261.508 125.639 261.417 132.011 261.408C138.381 261.412 144.752 261.411 151.122 261.504L160.678 261.649C163.865 261.719 167.05 261.759 170.236 261.88L170.298 263.74L169.436 263.764L166.426 263.85L168.842 262.132L179.19 254.772L184.423 251.171L185.731 250.272C186.184 249.96 186.599 249.702 186.951 249.321L188.068 248.191C188.263 248.007 188.462 247.827 188.684 247.673C188.866 247.506 189.29 247.407 189.364 247.73" fill="#444D56"/>
<path d="M93.9607 259.974C90.5347 257.589 87.3948 254.781 84.5628 251.682C81.7168 248.593 79.2135 245.174 77.125 241.507L77 241.288L77.0502 241.026C77.2395 240.035 77.3627 238.952 77.5227 237.919L78.0297 234.775C78.3912 232.682 78.7959 230.6 79.2404 228.522C80.1112 224.366 81.2629 220.27 82.5373 216.217C83.8205 212.167 85.2718 208.167 86.8867 204.235C88.515 200.308 90.252 196.42 92.2476 192.664L92.1296 193.021L92.201 192.59L92.3224 191.853L93.0572 191.638L107.507 187.405L106.97 187.742L107.527 187.108L107.269 187.686C108.189 182.041 109.037 176.383 110.042 170.752L112.958 153.854L113.712 154.555L113.626 154.576L112.259 154.908L112.933 153.707C114.545 150.835 116.797 148.459 119.23 146.381C121.675 144.306 124.371 142.546 127.24 141.171C124.502 142.787 121.962 144.71 119.671 146.872C117.402 149.046 115.372 151.507 114.01 154.268L113.317 153.401L113.402 153.377L114.284 153.129L114.156 154.077L111.859 171.032C111.126 176.684 110.236 182.311 109.418 187.948L109.369 188.284L109.161 188.528L108.611 189.168L108.411 189.401L108.073 189.504L93.6704 193.912L94.5267 192.961L94.4606 193.392L94.4332 193.573L94.342 193.752C92.4485 197.484 90.61 201.249 88.9858 205.112C87.3487 208.967 85.8711 212.892 84.5575 216.87C83.2353 220.849 82.1227 224.892 81.0702 228.951C80.558 230.985 80.0832 233.031 79.6533 235.081L79.0406 238.167C78.8397 239.214 78.6908 240.225 78.4473 241.301L78.3725 240.82C80.3074 244.456 82.5963 247.913 85.193 251.139C87.8037 254.355 90.7583 257.301 93.9607 259.974" fill="#697783"/>
<path d="M125.763 230.947C126.764 223.787 126.535 216.335 124.795 209.303C124.562 208.358 123.084 208.761 123.335 209.706C125.222 216.782 126.025 223.6 125.506 230.913C125.496 231.058 125.743 231.094 125.763 230.947" fill="#97AABB"/>
<path d="M149.349 234.467C150.34 231.613 150.999 228.855 151.314 225.841C151.361 225.39 150.64 225.385 150.603 225.841C150.374 228.698 149.943 231.651 149.259 234.441C149.245 234.501 149.329 234.524 149.349 234.467" fill="#97AABB"/>
<path d="M151.033 226.314C154.662 224.73 157.972 222.34 161.054 219.882C161.952 219.165 160.674 217.878 159.785 218.612C156.799 221.076 153.639 223.373 150.756 225.953C150.546 226.14 150.813 226.409 151.033 226.314" fill="#97AABB"/>
<path d="M146.535 186.955C147.168 185.339 147.776 183.706 148.248 182.035C148.371 181.601 147.731 181.438 147.581 181.851C146.987 183.479 146.525 185.155 146.094 186.834C146.018 187.126 146.43 187.224 146.535 186.955" fill="#97AABB"/>
<path d="M148.454 182.287C152.928 178.774 156.921 174.634 160.562 170.274C161.415 169.254 159.961 167.774 159.089 168.801C155.398 173.144 151.591 177.403 147.979 181.812C147.7 182.151 148.115 182.555 148.454 182.287" fill="#97AABB"/>
<path d="M152.06 155.138C153.751 155.572 155.61 155.578 157.314 155.235C158.31 155.035 157.889 153.513 156.894 153.712C155.282 154.036 153.616 154.474 152.06 155.004C151.998 155.025 151.99 155.12 152.06 155.138Z" fill="#97AABB"/>
<path d="M109.235 241.697C109.025 237.095 108.41 232.534 108.257 227.922C108.242 227.46 107.532 227.457 107.537 227.922C107.594 232.505 107.817 237.284 109.024 241.726C109.055 241.841 109.241 241.821 109.235 241.697Z" fill="#97AABB"/>
<path d="M108.388 228.319C110.854 222.363 113.146 216.336 114.712 210.073C115.009 208.888 113.18 208.382 112.883 209.568C111.318 215.803 109.885 222.061 108.027 228.218C107.956 228.456 108.299 228.534 108.388 228.319Z" fill="#97AABB"/>
<path d="M93.4736 252.675C97.5461 253.919 101.561 255.272 105.605 256.598C106.168 256.783 106.574 255.865 106.015 255.625C102.082 253.923 97.7646 252.868 93.5046 252.445C93.3689 252.431 93.3521 252.637 93.4736 252.675" fill="#97AABB"/>
<path d="M106.376 256.486C123.629 257.53 141.28 256.541 158.531 255.64C159.481 255.59 159.491 254.112 158.531 254.153C141.178 254.907 123.693 254.832 106.376 256.037C106.088 256.057 106.086 256.468 106.376 256.486" fill="#97AABB"/>
<path d="M123.549 171.573C122.035 174.892 121.323 178.557 120.684 182.129C120.605 182.564 121.269 182.752 121.351 182.313C122.015 178.727 123.069 175.226 123.703 171.637C123.718 171.552 123.592 171.479 123.549 171.573" fill="#97AABB"/>
<path d="M110.372 185.767C114.225 185.071 118.039 183.962 121.614 182.359C122.284 182.059 121.806 180.903 121.11 181.163C117.48 182.521 113.875 183.932 110.228 185.245C109.898 185.363 110.028 185.829 110.372 185.767" fill="#97AABB"/>
<path d="M136.024 200.192C137.705 198.931 139.432 197.711 141.051 196.372C141.257 196.201 140.977 195.832 140.761 195.998C139.093 197.278 137.516 198.686 135.911 200.045C135.831 200.113 135.939 200.256 136.024 200.192" fill="#97AABB"/>
<path d="M145.794 192.718C146.387 191.986 146.98 191.255 147.573 190.524C147.72 190.343 147.459 190.083 147.314 190.267C146.731 191.007 146.147 191.747 145.563 192.486C145.434 192.649 145.661 192.882 145.794 192.718" fill="#97AABB"/>
<path d="M148.971 189.277C152.632 185.864 156.378 182.561 160.087 179.204C160.733 178.62 159.741 177.618 159.129 178.246C155.639 181.824 152.203 185.439 148.66 188.966C148.459 189.167 148.764 189.47 148.971 189.277" fill="#97AABB"/>
<path d="M195.069 227.129C195.645 227.323 196.218 227.52 196.799 227.698C197.119 227.795 197.258 227.266 196.936 227.202C196.338 227.084 195.738 226.987 195.137 226.885C194.978 226.858 194.914 227.075 195.069 227.129" fill="#97AABB"/>
<path d="M199.008 227.981C199.72 228.325 200.437 228.652 201.149 228.996C201.524 229.177 201.763 228.624 201.372 228.467C200.641 228.171 199.915 227.86 199.184 227.564C198.945 227.466 198.775 227.869 199.008 227.981Z" fill="#97AABB"/>
<path d="M213.578 198.873C214.299 199.195 215.02 199.512 215.747 199.82C215.988 199.921 216.135 199.58 215.887 199.486C215.148 199.207 214.406 198.94 213.661 198.676C213.547 198.635 213.467 198.822 213.578 198.873" fill="#97AABB"/>
<path d="M217.917 200.761C220.607 202.566 223.029 204.67 225.543 206.705C226.372 207.376 227.304 206.19 226.443 205.537C223.848 203.568 220.958 201.999 218.111 200.43C217.893 200.31 217.714 200.624 217.917 200.761Z" fill="#97AABB"/>
<path d="M205.187 220.738C212.516 216.935 219.471 212.528 226.099 207.611C226.94 206.987 226.102 205.561 225.273 206.199C218.716 211.24 211.983 216.012 205.117 220.617C205.042 220.668 205.107 220.78 205.187 220.738Z" fill="#97AABB"/>
<path d="M188.721 257.693C190.672 259.469 192.898 260.657 195.436 261.371C196.005 261.531 196.252 260.629 195.68 260.488C193.258 259.892 190.97 258.848 188.891 257.473C188.759 257.385 188.603 257.585 188.721 257.693" fill="#97AABB"/>
<path d="M156.667 152.652C164.988 154.4 173.393 155.596 181.692 157.495C182.324 157.64 182.594 156.675 181.961 156.521C173.732 154.537 165.183 152.715 156.701 152.404C156.56 152.398 156.527 152.622 156.667 152.652" fill="#97AABB"/>
<path d="M93.3784 243.992C98.2143 238.839 102.912 233.498 107.505 228.124C107.822 227.754 107.296 227.214 106.963 227.583C102.225 232.836 97.5321 238.19 93.0414 243.656C92.8504 243.888 93.1646 244.221 93.3784 243.992" fill="#97AABB"/>
<path d="M101.347 240.326C101.821 239.021 102.532 237.898 103.463 236.875C103.677 236.639 103.328 236.288 103.113 236.524C102.128 237.605 101.458 238.843 101.04 240.241C100.982 240.44 101.278 240.515 101.347 240.326" fill="#97AABB"/>
<path d="M105.25 234.177C106.483 231.71 107.868 229.323 109.165 226.891C109.476 226.308 108.552 225.798 108.294 226.381C107.169 228.915 106.134 231.491 104.944 233.997C104.846 234.202 105.148 234.383 105.25 234.177Z" fill="#97AABB"/>
<path d="M120.417 239.558C122.22 236.273 124.434 233.203 126.158 229.89C126.65 228.945 125.218 228.108 124.73 229.054C123.008 232.399 121.771 235.993 120.119 239.383C120.023 239.58 120.309 239.755 120.417 239.558Z" fill="#97AABB"/>
</g>
<g style="mix-blend-mode:exclusion">
<path d="M75.1422 79.6488L74.7839 78.3535L74.8772 76.3088L69.5536 70.419L68.2494 68.4666L64.9991 66.1593C64.2343 65.4899 63.4694 64.8206 62.7045 64.1513C62.3901 63.8762 61.8022 63.1128 61.4235 63.3964C61.1322 63.6143 61.0984 64.5958 61.0271 64.925C60.8975 65.5239 60.7678 66.1226 60.6381 66.7212C60.5757 67.0088 60.5129 67.3015 60.5361 67.5952C60.593 68.3185 61.3117 69.1527 61.6833 69.7582C61.9074 70.1234 62.4305 70.6852 62.5137 71.111C62.5136 71.1111 63.513 76.2353 63.513 76.2353L63.3668 79.2401C63.3668 79.2401 66.055 81.7049 67.7382 82.6893C69.4215 83.6737 69.9269 83.9489 69.9269 83.9489L72.0993 81.8431L75.1422 79.6488" fill="#444D56"/>
<path d="M60.8865 71.476L59.3645 69.5344C59.3645 69.5344 57.4976 66.5905 57.535 66.7412C57.5725 66.8919 56.2912 72.2972 56.2912 72.2972C56.2912 72.2972 57.5067 75.1308 58.3441 76.6346C59.1815 78.1384 60.0683 79.2619 60.0683 79.2619C60.0683 79.2619 60.5618 76.7398 60.7185 75.2451C60.8753 73.7503 60.8865 71.476 60.8865 71.476" fill="#444D56"/>
<path d="M61.0271 64.925C61.0623 64.9693 57.535 66.7412 57.535 66.7412L59.3645 69.5344L61.0332 71.6156L62.4237 70.9663L60.4929 67.8303L61.0271 64.925Z" fill="#505C66"/>
<path d="M60.8865 71.476C61.0092 71.7387 60.6878 75.5647 60.7279 75.7264C60.7681 75.8881 60.2586 78.3345 60.2586 78.3345L60.0683 79.2619L63.3668 79.2401C63.3668 79.2401 63.5164 77.2677 63.3013 75.156C63.0861 73.0444 62.5137 71.111 62.5137 71.111L60.8865 71.476" fill="#697783"/>
<path d="M74.9413 76.6134L74.7839 78.3536L75.1422 79.6488L72.0993 81.8431L69.9269 83.9489C69.9269 83.9489 71.4342 83.8911 73.3353 83.0465C75.2364 82.2019 77.9506 80.9319 77.9506 80.9319L80.9412 78.6746L83.6395 76.2412L78.522 78.133L77.3935 78.4879L74.9413 76.6134" fill="#8C9DAC"/>
<path d="M83.6396 76.2412L84.1279 74.3074L84.1074 72.425L80.3287 66.6088L82.1623 64.0924L80.3585 58.8289L78.3021 54.4476L73.5627 53.6626L71.2692 55.0269L64.0057 61.077L61.4235 63.3965L67.0057 67.6577C67.0057 67.6577 68.2853 69.0125 69.5536 70.419C70.822 71.8255 75.45 76.5617 75.508 76.7956C75.5661 77.0294 77.3935 78.4879 77.3935 78.4879C77.3935 78.4879 82.7731 77.1518 83.6396 76.2412Z" fill="#8595A3"/>
<path d="M82.1623 64.0924L76.6742 63.6922L75.1516 65.5604L78.5581 66.3782L80.5862 66.4457L82.1623 64.0924" fill="#97AABB"/>
<path d="M77.3935 78.4879L75.1422 79.6488L74.6823 77.7704L74.8772 76.3088L77.3935 78.4879" fill="#97AABB"/>
<path d="M78.908 55.6877L74.4026 54.8448L72.1797 55.8934L63.687 62.9938L67.4672 67.8162L64.618 65.7425L61.4235 63.3964L63.6369 61.4915C63.6369 61.4915 71.2222 55.2374 71.2692 55.0269C71.3164 54.8166 73.5627 53.6626 73.5627 53.6626L77.2095 54.1479L78.302 54.4475L78.908 55.6877" fill="#697783"/>
<path d="M63.3616 79.1984L60.0666 79.304L60.0573 79.304L60.0515 79.2972C59.8391 79.0382 59.6337 78.7737 59.445 78.497C59.3453 78.3625 59.2604 78.2181 59.1674 78.0791C59.0747 77.9397 58.9863 77.7976 58.9012 77.6534C58.5517 77.0829 58.232 76.4947 57.9241 75.9013C57.3085 74.7131 56.7487 73.4982 56.2285 72.2643L56.2209 72.2465L56.2253 72.2259L57.4595 66.5933L57.6512 66.619L57.65 66.6498L57.5115 66.5576L61.0726 64.8601L61.1743 65.0767L57.5942 66.7335L57.4478 66.8014L57.4558 66.6414L57.4573 66.6104L57.6489 66.6358L56.3508 72.2543L56.3478 72.2162C56.8518 73.4508 57.3974 74.6714 57.998 75.8633C58.2987 76.4593 58.6107 77.0496 58.9529 77.6224C59.0362 77.7673 59.1226 77.9099 59.2134 78.0497C59.3045 78.1891 59.3877 78.3346 59.4856 78.4695C59.6703 78.7475 59.8716 79.0127 60.0803 79.2729L60.0654 79.2663L63.3616 79.1984" fill="#444D56"/>
<path d="M63.3923 79.3012C63.4399 78.6024 63.4233 77.9051 63.4034 77.2089C63.3779 76.5127 63.313 75.8192 63.236 75.1281C63.1549 74.4373 63.0373 73.7515 62.893 73.0722C62.7526 72.3923 62.5762 71.7193 62.3469 71.0654L62.3563 71.0849C62.0292 70.5522 61.715 70.0114 61.3934 69.4749C61.0734 68.9378 60.7694 68.3904 60.4566 67.8488C60.8062 68.3676 61.1646 68.8809 61.507 69.4041C61.848 69.9282 62.1962 70.4478 62.5313 70.9757L62.5369 70.9843L62.541 70.9953C62.7836 71.6571 62.9721 72.3364 63.1242 73.0228C63.272 73.7105 63.3726 74.4068 63.447 75.1047C63.5236 75.8028 63.5492 76.5055 63.5462 77.2065C63.5478 77.9076 63.4857 78.6092 63.3923 79.3012" fill="#97AABB"/>
<path d="M61.4779 63.114C61.4779 63.114 62.3805 63.9043 63.763 65.0506C64.4571 65.6181 65.2745 66.2796 66.1918 66.9108C67.1078 67.538 68.1817 68.1389 69.0227 69.0737C69.2363 69.3023 69.4176 69.5637 69.5968 69.7803C69.7813 70.0073 69.9734 70.2282 70.1683 70.4448C70.5687 70.8778 70.9623 71.3036 71.3433 71.7157C72.1041 72.543 72.8143 73.3151 73.4228 73.977C74.6401 75.3006 75.4516 76.1829 75.4516 76.1829L74.7278 76.8091C74.7278 76.8091 73.9615 75.8879 72.8121 74.5055C72.2376 73.8145 71.5674 73.0083 70.8492 72.1444C70.4883 71.7129 70.1156 71.2671 69.7369 70.814C69.5487 70.5827 69.362 70.345 69.182 70.0994C68.9941 69.846 68.8456 69.6048 68.6599 69.3858C67.9329 68.4858 66.9147 67.8376 66.0153 67.1569C65.1142 66.4679 64.3333 65.7678 63.6653 65.164C62.3388 63.9472 61.4779 63.114 61.4779 63.114" fill="#97AABB"/>
<path d="M75.3398 76.0913C75.5365 76.2264 75.7645 76.3939 75.9578 76.5517C76.1584 76.7142 76.3519 76.8843 76.538 77.0619C76.9098 77.4169 77.2516 77.8006 77.5586 78.2083L77.4489 78.1217L77.4769 78.1371L77.2509 78.1118C78.3301 77.9103 79.4031 77.7019 80.4587 77.4207C81.5142 77.1407 82.5503 76.7773 83.5579 76.3351C82.6008 76.8767 81.598 77.3481 80.5614 77.7389C79.525 78.1312 78.4635 78.4514 77.4066 78.7623L77.3066 78.7915L77.1807 78.7369L77.1513 78.7241L77.1009 78.702L77.0414 78.6372C76.7211 78.2881 76.3732 77.9666 76.0033 77.6765C75.8183 77.5312 75.628 77.3941 75.4326 77.265C75.2301 77.1315 75.0502 77.0234 74.8287 76.9004L75.3398 76.0913" fill="#97AABB"/>
<path d="M74.8717 76.5501C74.8598 76.8097 74.8469 77.0658 74.8492 77.3208C74.8523 77.5759 74.8747 77.8284 74.9055 78.0766C74.9744 78.5735 75.1146 79.0525 75.2913 79.5239L75.3485 79.6759L75.1998 79.7712C74.2672 80.3688 73.4054 81.0784 72.5462 81.8027C72.1171 82.1656 71.6857 82.53 71.2435 82.884C70.8025 83.239 70.346 83.5792 69.8705 83.8904L71.0463 82.6662C71.4413 82.2625 71.8412 81.8624 72.2571 81.4765C72.6696 81.0866 73.1037 80.7172 73.5536 80.3641C73.7816 80.1911 74.0137 80.0232 74.2502 79.8606C74.4887 79.7002 74.7366 79.5539 74.9864 79.4109L74.8949 79.6582C74.7411 79.1562 74.634 78.627 74.6325 78.096C74.6302 77.5652 74.7226 77.045 74.8717 76.5501" fill="#97AABB"/>
<path d="M83.5975 76.3412C83.5975 76.3412 83.3461 76.6208 82.8831 77.09C82.4186 77.5567 81.7395 78.2121 80.8582 78.9221C79.9755 79.6287 78.9026 80.406 77.6773 81.117C76.4553 81.8311 75.0896 82.4907 73.676 83.0252C72.9596 83.2764 72.268 83.5394 71.5525 83.7734C71.1947 83.8829 70.8263 83.971 70.4577 84.0056C70.0783 84.0399 69.6913 83.986 69.3545 83.8311C69.018 83.6794 68.7318 83.4752 68.4503 83.2886C68.1676 83.1002 67.8912 82.9159 67.6222 82.7367C67.086 82.3732 66.586 82.0188 66.1341 81.6789C65.2278 81.0013 64.5288 80.3648 64.0606 79.9018C63.5925 79.4375 63.3465 79.1525 63.3465 79.1525C63.3465 79.1525 63.6035 79.4278 64.0884 79.8725C64.5699 80.3203 65.3002 80.9128 66.2137 81.5704C66.6709 81.8987 67.1764 82.2407 67.7183 82.5911C67.9911 82.7644 68.2713 82.9424 68.5575 83.1243C68.8458 83.304 69.1277 83.5064 69.4377 83.6409C70.0556 83.9331 70.7941 83.7744 71.4861 83.5603C72.1769 83.3292 72.8902 83.0521 73.592 82.8015C76.4109 81.7703 78.9957 80.1906 80.7751 78.8166C81.6646 78.127 82.3768 77.5129 82.8554 77.0614C83.335 76.6114 83.5975 76.3412 83.5975 76.3412" fill="#97AABB"/>
<path d="M57.7989 66.608C58.0033 67.0657 58.2265 67.4752 58.4838 67.8997C58.7378 68.3176 59.0133 68.7248 59.2997 69.1256C59.8726 69.9274 60.4909 70.7023 61.0905 71.4953L61.1431 71.5648L61.1059 71.6384L61.0321 71.7835L61.0456 71.7256C61.0039 74.2763 60.6768 76.8181 60.0659 79.285C60.5904 76.7982 60.8268 74.257 60.7798 71.7255L60.7793 71.6974L60.7933 71.6676L60.8619 71.5198L60.8771 71.6626C60.2533 70.8947 59.6071 70.1406 58.9986 69.3489C58.6943 68.953 58.3993 68.5481 58.1232 68.1278C57.8505 67.7142 57.5839 67.2593 57.3689 66.8179L57.7989 66.608" fill="#97AABB"/>
<path d="M60.8712 71.5249L62.4317 70.9498L62.5141 71.174L60.9536 71.7492L60.8712 71.5249Z" fill="#97AABB"/>
<path d="M80.4749 66.8461C80.4749 66.8461 79.1204 66.6019 77.7921 66.2577C77.1272 66.0876 76.4671 65.9005 75.9767 65.7457C75.4856 65.5921 75.1631 65.4764 75.1631 65.4764C75.1631 65.4764 75.4904 65.5779 75.9869 65.7096C76.4831 65.8428 77.1495 66.0008 77.8191 66.1411C79.1594 66.4266 80.5136 66.6101 80.5136 66.6101L80.4749 66.8461" fill="#97AABB"/>
<path d="M60.3818 68.0104C60.4401 68.041 60.4718 67.9756 60.476 67.9275C60.4838 67.8759 60.4851 67.8235 60.4852 67.7711L60.475 67.4535C60.4688 67.3441 60.4955 67.2313 60.5141 67.1315L60.5723 66.8192L60.8053 65.5704L61.3096 63.0814L61.6109 63.2545L61.4883 63.3754L61.2394 63.0992C61.7172 62.6764 62.2057 62.2662 62.6902 61.8511L64.1529 60.6166C65.1284 59.7939 66.116 58.9856 67.1026 58.1766C68.0913 57.3698 69.09 56.5756 70.0944 55.7892C70.5978 55.3988 71.11 55.0113 71.6524 54.6671C72.1928 54.3218 72.7576 54.0065 73.3595 53.7897C72.79 54.0793 72.2586 54.4283 71.7556 54.8144C71.2556 55.2046 70.7659 55.6076 70.2824 56.0242C69.3251 56.8675 68.3622 57.703 67.3891 58.5257C66.4143 59.3462 65.4403 60.1677 64.4543 60.9746L62.9743 62.1843C62.478 62.5842 61.9857 62.9886 61.4828 63.3809L61.2337 63.1044L61.3624 62.9896L61.8117 62.5885L61.6636 63.1628L61.0299 65.6219L60.694 66.8473L60.6098 67.1533C60.5808 67.2595 60.5505 67.3523 60.5459 67.4559L60.5207 67.7729C60.5146 67.8261 60.5073 67.8792 60.4932 67.9314C60.487 67.9804 60.4349 68.0501 60.3818 68.0104" fill="#444D56"/>
<path d="M73.3924 53.8401C74.2237 53.7632 75.0658 53.7878 75.8984 53.8967C76.7318 54.0022 77.5554 54.2024 78.3473 54.4938L78.3948 54.5113L78.4208 54.5578C78.5197 54.7338 78.6404 54.9152 78.7491 55.0938L79.0769 55.64C79.2914 56.0067 79.4978 56.3771 79.6977 56.7522C80.1004 57.5001 80.4521 58.2748 80.7797 59.0589C81.1056 59.8436 81.3993 60.6423 81.6592 61.4518C81.9163 62.2621 82.152 63.0807 82.331 63.9123L82.303 63.8424L82.3476 63.9174L82.424 64.0458L82.3394 64.1735L80.6754 66.6834L80.7142 66.5627L80.7107 66.7314L80.6755 66.6097C81.2626 67.5917 81.8622 68.5661 82.4343 69.5567L84.1667 72.5167L83.9611 72.5066L83.9715 72.4923L84.1378 72.2653L84.1895 72.5358C84.3131 73.1828 84.275 73.8364 84.1709 74.4678C84.0646 75.1003 83.8792 75.7169 83.6178 76.2971C83.828 75.697 83.9686 75.0756 84.0402 74.4497C84.107 73.8247 84.1001 73.1868 83.9524 72.5889L84.1702 72.6322L84.1603 72.6468L84.0574 72.7985L83.9548 72.6369L82.1205 69.7481C81.5041 68.7894 80.9147 67.8141 80.3132 66.8467L80.2773 66.7889L80.2778 66.7248L80.2794 66.5561L80.2799 66.4946L80.3183 66.4353L81.9525 63.9047L81.9441 64.1605L81.8987 64.0862L81.8796 64.055L81.8704 64.0158C81.6789 63.201 81.4747 62.3883 81.2251 61.5882C80.9786 60.7877 80.6986 59.9971 80.3866 59.2194C80.0759 58.4405 79.7249 57.6789 79.3626 56.9225C79.1788 56.5455 78.9876 56.1713 78.7891 55.8024L78.485 55.2515C78.3808 55.0656 78.2733 54.8918 78.1717 54.6958L78.2452 54.7598C77.4806 54.4532 76.685 54.2196 75.872 54.061C75.0582 53.9057 74.2267 53.8361 73.3924 53.8401" fill="#697783"/>
<path d="M72.271 62.3783C73.0409 63.6023 74.0365 64.7123 75.209 65.5633C75.3665 65.6777 75.5407 65.4256 75.3804 65.3136C74.1796 64.4747 73.178 63.5357 72.3147 62.3505C72.2976 62.327 72.2552 62.3533 72.271 62.3783" fill="#97AABB"/>
<path d="M68.2106 64.8805C68.427 65.4446 68.6817 65.9512 69.022 66.4527C69.073 66.5279 69.1839 66.4356 69.1307 66.3611C68.7975 65.8946 68.4827 65.3876 68.2277 64.8727C68.2221 64.8617 68.2063 64.8692 68.2106 64.8805" fill="#97AABB"/>
<path d="M69.0041 66.3443C68.6533 67.0542 68.4553 67.8464 68.3008 68.6196C68.2558 68.8449 68.6171 68.8771 68.6585 68.6501C68.7975 67.8884 68.9847 67.1299 69.0929 66.3636C69.1009 66.308 69.0254 66.3013 69.0041 66.3443" fill="#97AABB"/>
<path d="M74.7653 71.7831C74.8768 72.1119 74.9943 72.4399 75.1376 72.7563C75.1748 72.8385 75.2936 72.7809 75.2633 72.6985C75.1444 72.3729 74.999 72.057 74.8484 71.7447C74.8224 71.6904 74.7468 71.7283 74.7653 71.7831" fill="#97AABB"/>
<path d="M75.0736 72.7442C74.8424 73.8582 74.7654 75.0061 74.7706 76.1421C74.7717 76.408 75.1849 76.4468 75.1858 76.1774C75.1904 75.0374 75.2235 73.8956 75.2076 72.7556C75.2065 72.6678 75.091 72.6595 75.0736 72.7442" fill="#97AABB"/>
<path d="M78.0217 77.3607C77.7074 77.5122 77.4222 77.751 77.2058 78.0231C77.0793 78.1821 77.34 78.3605 77.4664 78.2019C77.6712 77.9444 77.8695 77.6627 78.0391 77.3812C78.046 77.37 78.0348 77.3544 78.0217 77.3607Z" fill="#97AABB"/>
<path d="M73.4126 58.6039C74.038 59.2806 74.7201 59.8989 75.3379 60.5843C75.3998 60.6529 75.5088 60.5619 75.4479 60.4915C74.8485 59.798 74.1985 59.096 73.4412 58.5724C73.4217 58.5588 73.3958 58.5857 73.4126 58.6039Z" fill="#97AABB"/>
<path d="M75.2668 60.5405C75.6573 61.7691 76.0837 62.9862 76.6516 64.1458C76.7591 64.3653 77.1039 64.2069 76.9965 63.9872C76.432 62.8322 75.8445 61.6903 75.3348 60.5094C75.3151 60.4639 75.2526 60.4962 75.2668 60.5405Z" fill="#97AABB"/>
<path d="M74.4078 54.8936C73.6247 55.2283 72.8364 55.5389 72.047 55.8574C71.9369 55.9017 71.9932 56.0944 72.1097 56.0592C72.9305 55.8124 73.7268 55.4172 74.4328 54.9328C74.4552 54.9173 74.4312 54.8836 74.4078 54.8936" fill="#97AABB"/>
<path d="M71.9436 55.9739C69.1707 58.0383 66.599 60.4648 64.0772 62.8264C63.9383 62.9564 64.1275 63.1837 64.2688 63.0536C66.8253 60.7015 69.5086 58.4591 72.0014 56.0425C72.0429 56.0024 71.9902 55.9393 71.9436 55.9739" fill="#97AABB"/>
<path d="M80.2631 71.1723C80.0668 70.4695 79.7032 69.8174 79.3406 69.1888C79.2965 69.1122 79.1707 69.1689 79.2149 69.2466C79.5755 69.8805 79.8656 70.5519 80.2314 71.1822C80.2399 71.1973 80.2688 71.1922 80.2631 71.1723" fill="#97AABB"/>
<path d="M80.4485 67.3032C79.949 67.9062 79.5088 68.5675 79.1686 69.2735C79.1049 69.4058 79.3271 69.5209 79.3999 69.3914C79.7801 68.7158 80.1493 68.0353 80.5378 67.3645C80.573 67.3039 80.493 67.2494 80.4485 67.3032" fill="#97AABB"/>
<path d="M74.6663 68.4041C74.5718 68.8135 74.4651 69.2226 74.3902 69.6362C74.3806 69.6888 74.471 69.7092 74.4826 69.656C74.5728 69.2452 74.6323 68.8266 74.7026 68.4119C74.7061 68.3913 74.6711 68.3833 74.6663 68.4041" fill="#97AABB"/>
<path d="M74.1358 70.8064C74.1394 70.9946 74.143 71.1828 74.1466 71.3711C74.1474 71.4177 74.2208 71.4239 74.2193 71.3771C74.2131 71.1887 74.207 71.0003 74.2011 70.812C74.1997 70.7706 74.135 70.7641 74.1358 70.8064" fill="#97AABB"/>
<path d="M74.0936 71.742C73.9738 72.7358 73.8267 73.7238 73.692 74.7153C73.6687 74.8878 73.9495 74.9132 73.9621 74.7383C74.0346 73.7413 74.094 72.7456 74.1812 71.7495C74.186 71.6929 74.1002 71.6859 74.0936 71.742" fill="#97AABB"/>
<path d="M62.1651 71.8962C62.0521 71.9406 61.9389 71.9843 61.8271 72.032C61.7657 72.0584 61.8126 72.1573 61.8702 72.1256C61.9769 72.0665 62.0812 72.004 62.1862 71.9421C62.2139 71.9258 62.1958 71.8843 62.1651 71.8962" fill="#97AABB"/>
<path d="M61.453 72.2735C61.2998 72.3127 61.1478 72.3551 60.9947 72.3942C60.914 72.4149 60.9487 72.5304 61.0288 72.5039C61.1788 72.4549 61.3298 72.409 61.4798 72.36C61.5288 72.3441 61.5031 72.2606 61.453 72.2735Z" fill="#97AABB"/>
<path d="M62.977 78.6028C62.8253 78.6465 62.6743 78.6909 62.5234 78.7376C62.4734 78.7531 62.4948 78.8242 62.5449 78.8066C62.6939 78.7542 62.8417 78.6992 62.9897 78.6436C63.0123 78.6351 63.0006 78.5962 62.977 78.6028" fill="#97AABB"/>
<path d="M62.0701 78.8733C61.4261 78.9441 60.7845 78.9347 60.1379 78.9474C59.9245 78.9517 59.9349 79.2531 60.1507 79.2421C60.8014 79.2086 61.4454 79.076 62.0833 78.949C62.132 78.9392 62.1189 78.8682 62.0701 78.8733Z" fill="#97AABB"/>
<path d="M61.4416 74.1776C60.8112 75.7039 60.3157 77.2742 59.9361 78.8805C59.8878 79.0843 60.1998 79.1944 60.2443 78.9899C60.5972 77.374 61.0117 75.7762 61.468 74.187C61.4729 74.1696 61.4485 74.1608 61.4416 74.1776Z" fill="#97AABB"/>
<path d="M59.196 66.4041C58.6688 66.3839 58.175 66.4891 57.6951 66.7072C57.5874 66.7561 57.666 66.9257 57.7715 66.8735C58.2187 66.6526 58.7031 66.5172 59.1983 66.4596C59.2299 66.4561 59.2279 66.4054 59.196 66.4041" fill="#97AABB"/>
<path d="M77.6379 78.3347C76.1402 79.14 74.7007 80.0405 73.1868 80.82C73.0715 80.8792 73.1546 81.0615 73.2712 81.0034C74.7853 80.2461 76.3274 79.4229 77.6647 78.377C77.687 78.3598 77.6632 78.3212 77.6379 78.3347" fill="#97AABB"/>
<path d="M75.5416 56.209C75.4664 57.6205 75.4365 59.0427 75.4269 60.4564C75.4262 60.554 75.5762 60.5688 75.5796 60.4693C75.627 59.0554 75.6544 57.6317 75.6365 56.217C75.6358 56.1569 75.5448 56.1464 75.5416 56.209" fill="#97AABB"/>
<path d="M74.7956 57.7968C74.8914 58.0574 74.9275 58.3208 74.9169 58.5972C74.9145 58.661 75.0132 58.6697 75.0158 58.6058C75.0269 58.3136 74.9698 58.0379 74.8535 57.7703C74.8369 57.7323 74.7819 57.7591 74.7956 57.7968" fill="#97AABB"/>
<path d="M74.9915 59.2403C75.1209 59.7765 75.2168 60.3199 75.332 60.8591C75.3597 60.9883 75.5666 60.9472 75.531 60.8247C75.3763 60.2922 75.2025 59.7648 75.0615 59.2282C75.05 59.1843 74.9806 59.1955 74.9915 59.2403Z" fill="#97AABB"/>
<path d="M71.9785 60.3726C72.1263 61.1073 72.1833 61.8621 72.3468 62.591C72.3935 62.7988 72.7204 62.7422 72.673 62.5346C72.5052 61.8012 72.231 61.0921 72.0467 60.3608C72.036 60.3182 71.9696 60.3284 71.9785 60.3726Z" fill="#97AABB"/>
</g>
<g style="mix-blend-mode:exclusion">
<path d="M221.669 74.5585L222.885 73.9863L224.916 73.7323L229.82 67.489L231.523 65.8733L233.248 62.2795C233.778 61.4125 234.308 60.5453 234.838 59.6783C235.056 59.3219 235.709 58.6133 235.366 58.288C235.102 58.0377 234.129 58.1705 233.792 58.1559C233.18 58.1295 232.568 58.1029 231.956 58.0764C231.662 58.0635 231.363 58.0512 231.077 58.1238C230.374 58.3022 229.674 59.1517 229.14 59.6203C228.818 59.903 228.352 60.5136 227.947 60.6677C227.947 60.6676 223.065 62.5195 223.065 62.5195L220.079 62.8838C220.079 62.8838 218.105 65.9502 217.419 67.7757C216.734 69.6012 216.548 70.1459 216.548 70.1459L218.991 71.9307L221.669 74.5585" fill="#444D56"/>
<path d="M227.312 59.1256L228.968 57.2971C228.968 57.2971 231.553 54.959 231.411 55.0214C231.269 55.0839 225.725 54.7355 225.725 54.7355C225.725 54.7355 223.138 56.4128 221.797 57.4926C220.457 58.5723 219.5 59.6365 219.5 59.6365C219.5 59.6365 222.069 59.6962 223.569 59.5977C225.068 59.4994 227.312 59.1256 227.312 59.1256" fill="#444D56"/>
<path d="M233.792 58.1559C233.754 58.1981 231.411 55.0214 231.411 55.0214L228.968 57.2971L227.199 59.2938L228.074 60.5544L230.838 58.1209L233.792 58.1559Z" fill="#505C66"/>
<path d="M227.312 59.1256C227.074 59.291 223.248 59.6215 223.096 59.6884C222.943 59.7554 220.446 59.6671 220.446 59.6671L219.5 59.6365L220.079 62.8838C220.079 62.8838 222.048 62.6974 224.093 62.1282C226.138 61.5589 227.947 60.6676 227.947 60.6676L227.312 59.1256" fill="#697783"/>
<path d="M224.626 73.8471L222.885 73.9863L221.669 74.5585L218.991 71.9307L216.548 70.1459C216.548 70.1459 216.86 71.6218 218.014 73.3526C219.168 75.0834 220.879 77.5436 220.879 77.5436L223.61 80.1092L226.465 82.3569L223.734 77.6332L223.194 76.581L224.626 73.8471" fill="#8C9DAC"/>
<path d="M226.465 82.3569L228.453 82.511L230.305 82.1724L235.398 77.4641L238.188 78.8456L243.071 76.1773L247.041 73.4092L247.013 68.6054L245.28 66.5758L238.089 60.4405L235.366 58.288L232.11 64.5106C232.11 64.5106 230.992 66.001 229.82 67.489C228.648 68.977 224.763 74.3396 224.543 74.4363C224.322 74.5331 223.194 76.581 223.194 76.581C223.194 76.581 225.421 81.657 226.465 82.3569Z" fill="#8595A3"/>
<path d="M238.188 78.8456L237.654 73.3689L235.556 72.1844L235.326 75.68L235.602 77.6904L238.188 78.8456" fill="#97AABB"/>
<path d="M223.194 76.5809L221.669 74.5585L223.442 73.7874L224.916 73.7323L223.194 76.5809" fill="#97AABB"/>
<path d="M245.921 74.2162L245.99 69.6332L244.58 67.6198L236.146 60.4508L232.032 64.9923L233.594 61.8334L235.366 58.288L237.618 60.1472C237.618 60.1472 245.065 66.5651 245.28 66.5758C245.496 66.5867 247.013 68.6054 247.013 68.6054L247.152 72.2817L247.041 73.4092L245.921 74.2162" fill="#697783"/>
<path d="M220.119 62.8715L219.458 59.6419L219.456 59.6327L219.462 59.6259C219.681 59.3727 219.907 59.1255 220.148 58.8928C220.264 58.7717 220.392 58.6636 220.513 58.5485C220.635 58.4335 220.76 58.3223 220.887 58.2141C221.391 57.7731 221.916 57.3585 222.449 56.9547C223.516 56.1468 224.619 55.3896 225.747 54.6682L225.763 54.6577L225.784 54.6585L231.544 54.922L231.551 55.1153L231.521 55.1193L231.588 54.9672L233.864 58.1898L233.668 58.3267L231.429 55.0785L231.337 54.9457L231.496 54.9264L231.527 54.9227L231.534 55.1158L225.777 54.787L225.814 54.7776C224.683 55.4832 223.572 56.2274 222.499 57.021C221.962 57.4182 221.433 57.8256 220.927 58.2597C220.798 58.3664 220.672 58.4757 220.55 58.5888C220.428 58.7022 220.299 58.8088 220.182 58.9281C219.939 59.1572 219.712 59.4004 219.491 59.6502L219.495 59.6343L220.119 62.8715" fill="#444D56"/>
<path d="M220.023 62.9192C220.72 62.8479 221.405 62.7135 222.087 62.5761C222.769 62.4332 223.442 62.252 224.11 62.0592C224.777 61.8624 225.433 61.6304 226.078 61.3733C226.724 61.1199 227.358 60.8322 227.964 60.4956L227.946 60.5081C228.416 60.0956 228.895 59.6944 229.37 59.2867C229.845 58.8805 230.333 58.4882 230.814 58.0883C230.362 58.5206 229.917 58.9607 229.459 59.3867C229 59.8115 228.547 60.2425 228.083 60.6621L228.076 60.6691L228.065 60.675C227.454 61.0261 226.817 61.3267 226.166 61.5928C225.513 61.8548 224.844 62.0717 224.169 62.2631C223.494 62.4568 222.805 62.6009 222.114 62.7165C221.423 62.8367 220.721 62.8942 220.023 62.9192" fill="#97AABB"/>
<path d="M235.653 58.2938C235.653 58.2938 235.027 59.3171 234.131 60.8736C233.689 61.6537 233.176 62.5713 232.709 63.5821C232.246 64.591 231.835 65.7511 231.056 66.7381C230.867 66.9874 230.64 67.2102 230.457 67.4235C230.264 67.6437 230.079 67.8705 229.898 68.0992C229.539 68.5671 229.186 69.027 228.845 69.4723C228.158 70.362 227.517 71.1926 226.968 71.9043C225.869 73.3281 225.137 74.2771 225.137 74.2771L224.397 73.6696C224.397 73.6696 225.176 72.7586 226.344 71.3919C226.927 70.7088 227.609 69.9118 228.339 69.0578C228.703 68.6291 229.079 68.1864 229.462 67.7364C229.658 67.5119 229.86 67.2877 230.072 67.0687C230.29 66.8406 230.503 66.6534 230.687 66.4334C231.451 65.5646 231.918 64.4514 232.436 63.4498C232.963 62.4451 233.521 61.5571 234.003 60.7965C234.978 59.2833 235.653 58.2938 235.653 58.2938" fill="#97AABB"/>
<path d="M225.208 74.1515C225.108 74.3681 224.982 74.6212 224.859 74.8384C224.733 75.0636 224.598 75.2831 224.454 75.4965C224.167 75.923 223.847 76.3248 223.497 76.6964L223.564 76.5736L223.553 76.6038L223.54 76.3768C223.921 77.4063 224.308 78.4287 224.764 79.4214C225.219 80.4144 225.752 81.374 226.358 82.2922C225.663 81.4406 225.028 80.532 224.468 79.5765C223.906 78.6214 223.411 77.6294 222.925 76.6404L222.88 76.5467L222.912 76.4133L222.92 76.3822L222.933 76.3288L222.987 76.2592C223.277 75.8845 223.535 75.4872 223.758 75.0735C223.87 74.8667 223.973 74.6559 224.067 74.4415C224.164 74.2192 224.241 74.0237 224.324 73.7846L225.208 74.1515" fill="#97AABB"/>
<path d="M224.677 73.7677C224.419 73.7998 224.164 73.8305 223.914 73.8759C223.663 73.9221 223.418 73.987 223.178 74.0593C222.7 74.2112 222.252 74.4305 221.817 74.6844L221.677 74.7665L221.558 74.636C220.811 73.818 219.966 73.0887 219.107 72.3643C218.676 72.0028 218.244 71.6394 217.82 71.2634C217.396 70.8888 216.983 70.4964 216.596 70.0805L218.002 71.0322C218.467 71.3531 218.928 71.6796 219.379 72.0243C219.833 72.3648 220.271 72.7302 220.695 73.1139C220.904 73.3093 221.109 73.5097 221.309 73.7152C221.507 73.9232 221.694 74.1427 221.877 74.3647L221.618 74.3164C222.086 74.0799 222.59 73.8848 223.113 73.7935C223.636 73.7015 224.164 73.7045 224.677 73.7677" fill="#97AABB"/>
<path d="M226.359 82.3323C226.359 82.3323 226.041 82.1319 225.5 81.755C224.962 81.3761 224.201 80.8176 223.352 80.0692C222.506 79.3187 221.559 78.3928 220.65 77.3055C219.74 76.2219 218.859 74.9875 218.093 73.6847C217.724 73.0211 217.348 72.384 216.996 71.7184C216.828 71.3843 216.679 71.0361 216.582 70.6787C216.484 70.3105 216.472 69.92 216.567 69.5619C216.66 69.2045 216.813 68.8879 216.949 68.5789C217.087 68.2684 217.222 67.9648 217.353 67.6693C217.621 67.0794 217.885 66.5266 218.144 66.0237C218.658 65.0159 219.167 64.2192 219.545 63.6795C219.923 63.1395 220.162 62.8489 220.162 62.8489C220.162 62.8489 219.934 63.1488 219.578 63.7019C219.218 64.2523 218.758 65.0723 218.264 66.0838C218.018 66.59 217.766 67.1461 217.513 67.7395C217.388 68.0376 217.26 68.3439 217.129 68.6568C217.001 68.9713 216.849 69.2834 216.769 69.6117C216.586 70.2701 216.867 70.9711 217.195 71.6169C217.54 72.2586 217.933 72.9148 218.299 73.5641C219.792 76.1679 221.787 78.4481 223.442 79.9694C224.272 80.7295 224.998 81.3275 225.524 81.7228C226.048 82.1193 226.359 82.3323 226.359 82.3323" fill="#97AABB"/>
<path d="M231.587 55.2589C231.171 55.5378 230.805 55.8271 230.43 56.1525C230.061 56.4736 229.706 56.814 229.36 57.164C228.667 57.8643 228.007 58.6048 227.327 59.33L227.268 59.3936L227.189 59.3693L227.033 59.3212L227.093 59.3246C224.572 59.7151 222.011 59.8227 219.477 59.638C222.016 59.7343 224.561 59.5373 227.048 59.0627L227.075 59.0575L227.107 59.0662L227.264 59.1088L227.126 59.148C227.778 58.4032 228.411 57.6388 229.089 56.905C229.428 56.5382 229.777 56.1789 230.144 55.8357C230.506 55.497 230.909 55.1572 231.308 54.8706L231.587 55.2589" fill="#97AABB"/>
<path d="M227.261 59.1188L228.092 60.5595L227.885 60.6787L227.054 59.238L227.261 59.1188Z" fill="#97AABB"/>
<path d="M235.189 77.6484C235.189 77.6484 235.2 76.272 235.315 74.9047C235.37 74.2206 235.443 73.5384 235.512 73.0288C235.581 72.5189 235.64 72.1814 235.64 72.1814C235.64 72.1814 235.596 72.5212 235.55 73.0328C235.502 73.5444 235.46 74.2278 235.435 74.9115C235.38 76.2809 235.428 77.6466 235.428 77.6466L235.189 77.6484" fill="#97AABB"/>
<path d="M230.642 58.0419C230.622 58.1045 230.692 58.1247 230.74 58.1207C230.792 58.1196 230.844 58.1121 230.895 58.1033L231.207 58.0396C231.313 58.015 231.429 58.0222 231.531 58.0236L231.848 58.0281L233.119 58.0465L235.657 58.1225L235.537 58.4487L235.397 58.3483L235.628 58.0562C236.125 58.4556 236.612 58.8677 237.103 59.275L238.567 60.5077C239.543 61.3299 240.507 62.1666 241.471 63.0021C242.434 63.84 243.385 64.69 244.33 65.5469C244.8 65.977 245.269 66.4162 245.7 66.8925C246.132 67.3668 246.538 67.8701 246.853 68.4267C246.472 67.9143 246.038 67.4496 245.572 67.0192C245.103 66.5924 244.623 66.178 244.13 65.7719C243.137 64.9711 242.151 64.1635 241.176 63.3435C240.202 62.5216 239.228 61.7006 238.265 60.8653L236.823 59.6113C236.345 59.1899 235.863 58.7731 235.391 58.3438L235.621 58.0515L235.756 58.1589L236.228 58.5339L235.637 58.4851L233.106 58.2766L231.841 58.1528L231.525 58.1216C231.416 58.111 231.319 58.0968 231.216 58.1098L230.9 58.1386C230.846 58.1416 230.793 58.1434 230.739 58.1383C230.689 58.1405 230.612 58.1009 230.642 58.0419" fill="#444D56"/>
<path d="M246.809 68.4676C247.026 69.2739 247.144 70.108 247.177 70.9471C247.214 71.7863 247.156 72.6318 247.003 73.4617L246.994 73.5114L246.953 73.5449C246.796 73.6721 246.637 73.8218 246.48 73.9591L245.997 74.3746C245.672 74.6481 245.342 74.9142 245.006 75.1747C244.337 75.698 243.633 76.1758 242.915 76.6314C242.197 77.0853 241.46 77.5098 240.706 77.903C239.951 78.2935 239.184 78.6642 238.395 78.9813L238.459 78.9419L238.392 78.9986L238.279 79.0956L238.138 79.0338L235.383 77.8184L235.509 77.8363L235.342 77.8614L235.456 77.8061C234.587 78.5508 233.728 79.3067 232.849 80.0381L230.225 82.2463L230.2 82.0419L230.216 82.0498L230.468 82.1753L230.21 82.272C229.593 82.5033 228.942 82.5763 228.302 82.5806C227.661 82.5828 227.022 82.5043 226.406 82.3449C227.033 82.4506 227.669 82.484 228.298 82.4487C228.925 82.4088 229.553 82.2941 230.117 82.0473L230.111 82.2693L230.095 82.262L229.928 82.1863L230.07 82.0579L232.607 79.7612C233.448 78.9915 234.309 78.2456 235.161 77.4891L235.212 77.444L235.275 77.4336L235.442 77.4066L235.502 77.3967L235.567 77.4245L238.338 78.607L238.084 78.6421L238.15 78.5847L238.177 78.5606L238.215 78.5449C238.985 78.2183 239.752 77.8796 240.498 77.4982C241.245 77.1198 241.977 76.7101 242.691 76.271C243.406 75.8331 244.097 75.3583 244.781 74.8732C245.122 74.6283 245.458 74.3765 245.788 74.1184L246.28 73.7255C246.445 73.5914 246.598 73.456 246.774 73.3228L246.724 73.406C246.897 72.6006 246.992 71.7769 247.011 70.9488C247.026 70.1205 246.954 69.2892 246.809 68.4676" fill="#697783"/>
<path d="M238.204 68.8068C237.128 69.7727 236.203 70.9418 235.562 72.2413C235.476 72.4159 235.754 72.545 235.837 72.368C236.461 71.0427 237.217 69.8965 238.239 68.8452C238.259 68.8243 238.226 68.7871 238.204 68.8068" fill="#97AABB"/>
<path d="M235.051 65.2283C234.532 65.5371 234.076 65.8737 233.639 66.294C233.574 66.357 233.683 66.4506 233.748 66.3856C234.151 65.9783 234.598 65.5822 235.062 65.2438C235.072 65.2365 235.062 65.2222 235.051 65.2283" fill="#97AABB"/>
<path d="M233.743 66.258C232.984 66.0323 232.17 65.9713 231.381 65.9498C231.152 65.9436 231.181 66.3051 231.412 66.3075C232.186 66.3156 232.965 66.3718 233.739 66.3488C233.795 66.3473 233.789 66.2717 233.743 66.258" fill="#97AABB"/>
<path d="M229.357 72.8563C229.052 73.0219 228.749 73.1932 228.461 73.388C228.386 73.4384 228.463 73.5458 228.539 73.502C228.84 73.3297 229.127 73.133 229.409 72.9318C229.458 72.8969 229.408 72.8288 229.357 72.8563" fill="#97AABB"/>
<path d="M228.462 73.3228C227.325 73.2834 226.181 73.4017 225.062 73.599C224.8 73.6451 224.832 74.0589 225.097 74.0142C226.222 73.8258 227.353 73.6653 228.473 73.4568C228.56 73.4408 228.548 73.3256 228.462 73.3228" fill="#97AABB"/>
<path d="M224.411 77.0095C224.208 76.7253 223.925 76.4846 223.62 76.3173C223.442 76.2196 223.31 76.5067 223.488 76.6044C223.776 76.7627 224.088 76.9105 224.394 77.03C224.406 77.0349 224.419 77.0212 224.411 77.0095Z" fill="#97AABB"/>
<path d="M242.117 69.2935C241.556 70.0243 241.062 70.8012 240.491 71.526C240.434 71.5986 240.542 71.6906 240.601 71.6188C241.184 70.9107 241.765 70.1513 242.153 69.3163C242.163 69.2947 242.133 69.2738 242.117 69.2935Z" fill="#97AABB"/>
<path d="M240.522 71.4486C239.378 72.0413 238.25 72.6675 237.204 73.4234C237.005 73.5665 237.22 73.8795 237.418 73.7365C238.461 72.9847 239.487 72.2125 240.565 71.5103C240.606 71.4832 240.564 71.4271 240.522 71.4486Z" fill="#97AABB"/>
<path d="M245.943 69.6466C245.48 68.9314 245.041 68.207 244.593 67.4829C244.531 67.3819 244.351 67.47 244.405 67.5788C244.787 68.346 245.311 69.064 245.908 69.6778C245.927 69.6974 245.957 69.668 245.943 69.6466" fill="#97AABB"/>
<path d="M244.461 67.4007C241.957 65.017 239.131 62.8929 236.377 60.807C236.225 60.6921 236.033 60.917 236.185 61.0343C238.936 63.1559 241.6 65.4212 244.403 67.4692C244.45 67.5034 244.503 67.4407 244.461 67.4007" fill="#97AABB"/>
<path d="M230.889 78.1716C231.549 77.8592 232.13 77.3905 232.688 76.9267C232.756 76.8703 232.679 76.7559 232.61 76.8126C232.046 77.2753 231.433 77.6748 230.874 78.1419C230.861 78.1529 230.871 78.1805 230.889 78.1716" fill="#97AABB"/>
<path d="M234.734 77.6998C234.055 77.3094 233.329 76.9874 232.576 76.7716C232.434 76.7312 232.359 76.9696 232.498 77.0195C233.229 77.2799 233.962 77.5287 234.689 77.7981C234.754 77.8226 234.795 77.7344 234.734 77.6998" fill="#97AABB"/>
<path d="M232.671 72.1872C232.251 72.1632 231.83 72.1272 231.41 72.1234C231.356 72.1229 231.351 72.2154 231.406 72.2178C231.826 72.2372 232.249 72.2251 232.669 72.2242C232.69 72.2242 232.692 72.1883 232.671 72.1872" fill="#97AABB"/>
<path d="M230.213 72.0707C230.028 72.1061 229.843 72.1415 229.659 72.1769C229.613 72.1856 229.619 72.2589 229.665 72.2495C229.85 72.2115 230.034 72.1736 230.219 72.136C230.259 72.1276 230.255 72.0627 230.213 72.0707" fill="#97AABB"/>
<path d="M229.284 72.1873C228.284 72.2374 227.286 72.2596 226.286 72.2946C226.112 72.3008 226.134 72.5819 226.309 72.5647C227.304 72.4674 228.295 72.3575 229.291 72.2749C229.348 72.2702 229.34 72.1844 229.284 72.1873" fill="#97AABB"/>
<path d="M227.114 60.4569C227.051 60.353 226.989 60.2489 226.923 60.1468C226.887 60.0907 226.797 60.1537 226.838 60.2051C226.914 60.3002 226.994 60.3925 227.072 60.4855C227.093 60.51 227.131 60.4852 227.114 60.4569" fill="#97AABB"/>
<path d="M226.622 59.8189C226.557 59.6745 226.49 59.5319 226.425 59.3877C226.391 59.3116 226.283 59.3654 226.323 59.4398C226.396 59.5794 226.467 59.7204 226.541 59.86C226.565 59.9056 226.643 59.8661 226.622 59.8189Z" fill="#97AABB"/>
<path d="M220.641 62.3917C220.573 62.2496 220.503 62.1083 220.432 61.9674C220.408 61.9208 220.342 61.954 220.367 62.0003C220.444 62.1383 220.524 62.2747 220.603 62.4112C220.615 62.432 220.652 62.4138 220.641 62.3917" fill="#97AABB"/>
<path d="M220.221 61.5436C220.043 60.9209 219.943 60.287 219.821 59.6519C219.781 59.4423 219.486 59.5035 219.533 59.7143C219.676 60.35 219.916 60.9623 220.149 61.5695C220.167 61.6159 220.235 61.5909 220.221 61.5436Z" fill="#97AABB"/>
<path d="M224.743 60.1298C223.132 59.7668 221.501 59.544 219.853 59.4417C219.644 59.4285 219.588 59.7547 219.798 59.7639C221.45 59.8384 223.095 59.9766 224.738 60.1574C224.756 60.1593 224.761 60.1338 224.743 60.1298Z" fill="#97AABB"/>
<path d="M232.025 56.6014C231.955 56.0784 231.768 55.6096 231.472 55.1734C231.406 55.0756 231.252 55.1817 231.321 55.2769C231.614 55.6803 231.83 56.1348 231.97 56.6131C231.979 56.6436 232.029 56.6331 232.025 56.6014" fill="#97AABB"/>
<path d="M223.386 76.7959C222.339 75.456 221.208 74.1897 220.184 72.8295C220.106 72.7258 219.94 72.8385 220.017 72.9437C221.019 74.3078 222.092 75.6885 223.349 76.8295C223.37 76.8485 223.404 76.8185 223.386 76.7959" fill="#97AABB"/>
<path d="M244.838 70.9866C243.434 71.1513 242.027 71.3624 240.632 71.5921C240.536 71.6079 240.547 71.7582 240.646 71.7447C242.047 71.5523 243.455 71.3385 244.846 71.0814C244.905 71.0706 244.9 70.9791 244.838 70.9866" fill="#97AABB"/>
<path d="M243.147 70.52C242.906 70.6585 242.653 70.7386 242.379 70.7749C242.315 70.7834 242.323 70.8821 242.387 70.8738C242.677 70.8354 242.939 70.7325 243.183 70.5725C243.218 70.5497 243.182 70.5001 243.147 70.52" fill="#97AABB"/>
<path d="M241.757 70.9572C241.251 71.1755 240.732 71.3619 240.22 71.5667C240.097 71.6158 240.172 71.8128 240.287 71.757C240.786 71.5145 241.276 71.2539 241.781 71.0241C241.822 71.0054 241.8 70.9389 241.757 70.9572Z" fill="#97AABB"/>
<path d="M240.132 68.1792C239.433 68.4491 238.698 68.6331 238.008 68.9175C237.811 68.9987 237.922 69.3113 238.118 69.2295C238.813 68.94 239.465 68.5498 240.155 68.2445C240.195 68.2267 240.174 68.163 240.132 68.1792Z" fill="#97AABB"/>
</g>
</g>
<defs>
<filter id="filter0_d" x="0" y="0" width="312" height="412" filterUnits="userSpaceOnUse" color-interpolation-filters="sRGB">
<feFlood flood-opacity="0" result="BackgroundImageFix"/>
<feColorMatrix in="SourceAlpha" type="matrix" values="0 0 0 0 0 0 0 0 0 0 0 0 0 0 0 0 0 0 127 0"/>
<feOffset dx="4" dy="4"/>
<feGaussianBlur stdDeviation="14.5"/>
<feColorMatrix type="matrix" values="0 0 0 0 0 0 0 0 0 0 0 0 0 0 0 0 0 0 0.25 0"/>
<feBlend mode="normal" in2="BackgroundImageFix" result="effect1_dropShadow"/>
<feBlend mode="normal" in="SourceGraphic" in2="effect1_dropShadow" result="shape"/>
</filter>
<filter id="filter1_d" x="25" y="25" width="262" height="362" filterUnits="userSpaceOnUse" color-interpolation-filters="sRGB">
<feFlood flood-opacity="0" result="BackgroundImageFix"/>
<feColorMatrix in="SourceAlpha" type="matrix" values="0 0 0 0 0 0 0 0 0 0 0 0 0 0 0 0 0 0 127 0"/>
<feOffset dx="4" dy="4"/>
<feGaussianBlur stdDeviation="2"/>
<feColorMatrix type="matrix" values="0 0 0 0 0 0 0 0 0 0 0 0 0 0 0 0 0 0 0.25 0"/>
<feBlend mode="normal" in2="BackgroundImageFix" result="effect1_dropShadow"/>
<feBlend mode="normal" in="SourceGraphic" in2="effect1_dropShadow" result="shape"/>
</filter>
</defs>
</svg>
