<svg width="312" height="412" viewBox="0 0 312 412" fill="none" xmlns="http://www.w3.org/2000/svg">
<g filter="url(#filter0_d)">
<g filter="url(#filter1_d)">
<rect x="25" y="25" width="254" height="354" rx="20" fill="#61A1EC"/>
</g>
<rect x="41" y="39" width="222" height="326" rx="20" fill="#FBFBFB"/>
<path d="M181.326 255.069C180.279 249.785 183.419 244.906 188.35 243.265C194.337 241.27 200.91 244.419 205.451 248.316C212.512 254.377 221.503 267.92 213.065 276.511C211.245 278.365 207.868 279.959 205.241 280.07C198.757 280.344 193.521 276.095 189.842 271.236C186.407 266.703 182.443 260.724 181.326 255.069ZM174.699 263.372C179.771 276.162 190.573 296.6 207.759 291.681C214.753 289.681 222.068 283.081 225.32 276.753C234.934 258.058 210.729 239.852 196.751 231.359C190.76 227.718 183.993 224.551 179.582 218.903C176.973 215.567 174.063 211.149 171.278 206.587L155.201 216.637C158.123 221.654 161.091 226.652 163.305 232.026C167.544 242.309 170.601 253.037 174.699 263.372" fill="#695646"/>
<path d="M191.424 288.512C183.489 282.707 177.993 271.638 174.767 263.543C177.99 271.638 183.489 282.707 191.424 288.512Z" fill="#FABFAA"/>
<path d="M201.064 292.36C197.522 292.04 194.311 290.626 191.424 288.512C194.311 290.623 197.522 292.04 201.064 292.36Z" fill="#D3A18F"/>
<path d="M174.74 263.476C174.725 263.442 174.713 263.408 174.699 263.372C172.042 256.674 169.819 249.815 167.438 243.017L167.44 243.017C169.824 249.816 172.042 256.677 174.699 263.372C174.713 263.408 174.725 263.442 174.74 263.476Z" fill="#FABFAA"/>
<path d="M201.069 292.36L201.064 292.36C197.523 292.04 194.311 290.623 191.424 288.512C183.489 282.707 177.99 271.638 174.767 263.543C174.759 263.52 174.748 263.497 174.74 263.476C174.725 263.442 174.713 263.408 174.699 263.372C172.042 256.677 169.824 249.816 167.44 243.017C167.595 243.189 167.761 243.355 167.916 243.527C171.341 247.336 174.616 251.915 176.488 256.709C178.064 260.748 179.169 264.814 181.215 268.675C183.258 272.527 185.648 276.231 188.503 279.536C190.796 282.194 193.328 284.828 196.672 286.111C198.166 286.688 199.73 287.055 201.316 287.198C202.579 287.312 203.855 287.284 205.119 287.104C218.824 285.16 226.659 270.763 220.861 258.402C219.17 254.794 216.6 250.746 213.746 247.938C210.289 244.537 206.553 241.34 202.576 238.561C194.432 232.875 185.13 228.588 177.802 221.79C173.715 218.004 170.711 213.432 167.97 208.668L169.074 207.979L169.067 207.969L171.278 206.587C174.063 211.149 176.973 215.567 179.582 218.903C183.993 224.551 190.76 227.718 196.751 231.359C208.935 238.763 228.887 253.542 227.443 269.594C227.232 271.96 226.554 274.352 225.32 276.753C222.068 283.081 214.753 289.681 207.759 291.681C205.411 292.353 203.183 292.551 201.071 292.361L201.069 292.36" fill="#695646"/>
<path d="M169.074 207.979L108.71 111.437C108.71 111.437 98.0332 118.796 104.376 134.451L146.591 201.963L153.156 207.976L157.608 215.119L169.074 207.979" fill="#AEACAC"/>
<path d="M107.577 112.397C107.577 112.397 107.577 112.397 107.574 112.396C107.934 112.055 108.23 111.805 108.433 111.648C108.23 111.805 107.934 112.055 107.577 112.397Z" fill="#E7E6E7"/>
<path d="M157.608 215.119L156.325 213.058L153.156 207.976L151.54 206.495L152.453 205.638C153.712 206.513 154.855 207.562 155.824 208.875C156.69 210.05 157.763 212.181 159.429 212.331C159.591 212.346 159.757 212.341 159.93 212.316C160.772 212.194 161.57 211.59 162.243 211.114C163.178 210.455 164.305 209.791 165.019 208.866C166.511 206.937 164.797 204.93 163.726 203.218C162.416 201.124 161.109 199.03 159.799 196.934L160.967 195.015L169.074 207.979L167.969 208.668L163.021 211.749L159.278 214.08L157.608 215.119V215.119ZM150.402 181.85C146.193 175.158 141.926 168.503 137.603 161.879C131.616 152.707 125.484 143.627 119.636 134.367C115.165 127.295 111.667 119.678 107.577 112.397C107.934 112.055 108.23 111.805 108.433 111.648C108.606 111.508 108.707 111.439 108.71 111.437L151.555 179.96L150.402 181.85" fill="#9E9D9D"/>
<path d="M177.35 250.859C176.299 250.764 175.186 245.989 174.693 244.94C173.094 241.542 170.614 238.453 168.818 235.173C167.37 232.526 166.504 229.829 165.128 227.184C163.446 223.954 160.989 221.076 159.132 217.931C158.905 217.554 165.433 213.016 166.349 212.875C166.568 212.843 166.775 212.836 166.974 212.854C168.927 213.03 169.938 215.534 171.118 216.929C172.881 219.009 174.595 221.024 176.295 223.186C179.614 227.395 182.793 231.224 187.595 233.689C189.07 234.447 197.167 236.865 195.732 239.081C195.143 239.992 193.173 239.924 191.442 239.768C191.183 239.745 190.929 239.719 190.685 239.695C190.442 239.67 190.21 239.647 189.994 239.627C189.605 239.592 189.27 239.572 189.021 239.58C187.181 239.637 185.728 239.709 184.144 240.626C180.472 242.75 179.3 245.941 178.219 249.609C177.944 250.533 177.649 250.886 177.35 250.859" fill="#695646"/>
<path d="M114.78 270.946C111.162 275.847 105.975 280.157 99.4872 279.958C96.8583 279.876 93.4635 278.322 91.6202 276.491C83.0869 268 91.9164 254.35 98.9033 248.207C103.402 244.26 109.935 241.033 115.948 242.957C120.894 244.543 124.088 249.383 123.105 254.677C122.054 260.347 118.163 266.371 114.78 270.946ZM140.858 231.426C143.01 226.026 145.918 220.991 148.781 215.945L132.586 206.082C129.859 210.676 126.994 215.128 124.431 218.492C120.082 224.195 113.357 227.437 107.408 231.149C93.5278 239.808 69.5414 258.294 79.3682 276.876C82.6947 283.165 90.0908 289.68 97.1058 291.598C114.351 296.313 124.909 275.752 129.835 262.902C133.812 252.52 136.74 241.758 140.858 231.426" fill="#695646"/>
<path d="M131.72 257.76C133.506 252.691 135.131 247.563 136.851 242.468C136.854 242.466 136.854 242.466 136.854 242.463C135.136 247.561 133.506 252.689 131.72 257.76Z" fill="#D3A18F"/>
<path d="M100.482 292.217C99.3863 292.118 98.2599 291.913 97.1058 291.598C90.0908 289.68 82.6947 283.165 79.3682 276.876C77.4638 273.275 76.8296 269.675 77.1452 266.151C78.4604 251.496 96.2176 238.13 107.408 231.149C113.357 227.437 120.082 224.195 124.431 218.492C126.994 215.128 129.859 210.676 132.586 206.082L134.816 207.441L134.81 207.45L135.919 208.123C133.237 212.92 130.285 217.526 126.243 221.362C118.993 228.245 109.741 232.64 101.665 238.421C97.7242 241.244 94.0243 244.488 90.6055 247.928C87.7831 250.769 85.2658 254.847 83.615 258.477C77.9617 270.902 85.9676 285.207 99.6909 286.991C99.8995 287.017 100.111 287.041 100.32 287.06C102.975 287.3 105.651 286.884 108.125 285.899C111.453 284.575 113.959 281.909 116.222 279.229C119.036 275.89 121.379 272.157 123.376 268.282C125.381 264.396 126.437 260.318 127.966 256.261C129.779 251.443 133.005 246.831 136.383 242.981C136.537 242.806 136.695 242.637 136.851 242.468C135.131 247.563 133.506 252.691 131.72 257.76C131.113 259.483 130.486 261.199 129.835 262.902C125.237 274.893 115.741 293.594 100.482 292.217" fill="#695646"/>
<path d="M134.81 207.45L194.038 110.205C194.038 110.205 204.799 117.439 198.639 133.165L157.22 201.167L150.725 207.26L146.357 214.455L134.81 207.45" fill="#AEACAC"/>
<path d="M146.357 214.455L141.48 211.497L146.357 214.455L150.725 207.26L151.54 206.495L150.725 207.26L146.357 214.455Z" fill="#C3C2C3"/>
<path d="M152.453 205.638L155.744 202.553C155.747 202.551 155.747 202.551 155.75 202.551L152.453 205.638Z" fill="#9E9D9D"/>
<path d="M151.54 206.495L152.453 205.638L151.54 206.495Z" fill="#918F8F"/>
<path d="M146.357 214.455L141.48 211.497L135.919 208.123L134.81 207.45L194.038 110.205C194.038 110.205 194.501 110.521 195.178 111.152C191.177 118.479 187.767 126.137 183.383 133.261C177.642 142.59 171.619 151.743 165.738 160.984C159.86 170.223 154.098 179.512 148.442 188.884C145.673 193.472 142.884 198.051 140.099 202.625C139.047 204.35 137.358 206.372 138.874 208.291C139.595 209.205 140.737 209.853 141.677 210.503C142.356 210.968 143.161 211.566 144.004 211.68C144.036 211.682 144.066 211.685 144.099 211.688C145.999 211.86 147.146 209.467 148.067 208.19C150.037 205.455 152.772 203.829 155.744 202.553L152.453 205.638L151.54 206.495L150.725 207.26L146.357 214.455" fill="#9E9D9D"/>
<path d="M126.969 250.421C126.693 250.397 126.417 250.035 126.152 249.18C125.023 245.528 123.819 242.349 120.125 240.27C119.076 239.679 118.09 239.454 117.016 239.357C116.453 239.306 115.865 239.291 115.233 239.277C114.233 239.259 111.898 239.734 110.222 239.582C109.447 239.513 108.813 239.31 108.514 238.861C107.058 236.661 115.126 234.148 116.59 233.373C121.359 230.854 124.497 226.987 127.763 222.74C129.442 220.556 131.132 218.519 132.868 216.421C134.127 214.903 135.169 212.09 137.451 212.296C137.495 212.3 137.543 212.304 137.59 212.311C138.507 212.444 145.087 216.902 144.867 217.283C143.044 220.451 140.622 223.358 138.978 226.607C137.634 229.267 136.802 231.974 135.384 234.638C133.625 237.939 131.179 241.055 129.623 244.472C129.131 245.55 128.04 250.518 126.969 250.421" fill="#695646"/>
<path d="M100.636 284.894C99.9934 284.836 99.3533 284.696 98.7199 284.453C95.311 283.138 92.7825 281.805 90.0566 279.433C86.3927 276.242 83.4595 270.826 84.2378 265.874C84.4572 264.473 84.7696 263.098 85.1883 261.742C85.6853 260.13 86.7517 258.83 87.282 257.239C87.8692 255.461 88.3514 253.68 89.4813 252.15C90.0567 251.365 91.4956 249.527 92.7532 249.64C92.8031 249.645 92.8526 249.652 92.9018 249.664C94.359 249.986 92.4443 251.784 91.9077 252.499C90.7765 254.016 89.5525 255.533 88.9684 257.358C88.4865 258.859 88.0379 260.38 87.5319 261.868C87.1254 263.062 86.36 264.088 86.1351 265.328C85.9399 266.432 85.9893 267.888 86.1193 268.952C86.374 271.081 87.2718 273.123 88.5486 274.833C89.9727 276.746 91.6006 278.126 93.5883 279.47C95.2186 280.574 96.4771 281.012 97.9465 281.144C98.7758 281.219 99.6716 281.197 100.739 281.14C103.95 280.973 106.889 279.513 109.841 278.299C110.43 278.056 111.419 277.751 112.121 277.814C112.736 277.87 113.13 278.206 112.848 279.11C112.489 280.25 111.342 280.445 110.484 281.041C109.758 281.55 109.269 282.237 108.466 282.656C106.042 283.916 103.323 285.14 100.636 284.894" fill="#695646"/>
<path d="M154.814 196.371C153.841 197.968 151.759 198.475 150.162 197.502C148.563 196.53 148.058 194.448 149.03 192.851C150.001 191.251 152.087 190.747 153.682 191.719C155.281 192.692 155.786 194.776 154.814 196.371Z" fill="#444547"/>
<path d="M154.753 196.041C153.91 197.429 152.102 197.868 150.712 197.022C149.327 196.179 148.891 194.37 149.731 192.984C150.577 191.597 152.384 191.158 153.772 192.001C155.159 192.847 155.598 194.656 154.753 196.041Z" fill="#AEACAC"/>
<path d="M152.563 196.404C152.22 196.373 151.876 196.236 151.627 196.038C150.973 195.522 150.35 194.67 150.709 193.776C150.877 193.367 151.392 192.946 151.754 192.71C152.011 192.542 152.487 192.38 152.836 192.411C152.881 192.415 152.925 192.422 152.965 192.433C153.369 192.544 153.5 193.066 153.616 193.418C153.86 194.143 154.105 195.127 153.728 195.848C153.495 196.297 153.029 196.446 152.563 196.404" fill="#BDBBBC"/>
<path d="M236.511 57.6421C236.043 58.6125 234.955 59.0148 233.969 58.6843C232.772 58.2834 232.101 56.9898 231.843 55.8209C231.443 54.0034 231.635 50.7577 234.016 50.3992C234.53 50.3216 235.261 50.473 235.695 50.7709C236.764 51.5069 237.09 52.8154 237.094 54.0343C237.098 55.1718 237.012 56.6041 236.511 57.6421ZM238.568 57.1119C239.296 54.4578 240.026 49.8925 236.688 48.6125C235.33 48.0912 233.367 48.2668 232.087 48.887C228.302 50.7192 229.982 56.5391 231.195 59.5771C231.715 60.8794 232.416 62.1991 232.442 63.6322C232.457 64.4791 232.391 65.5351 232.288 66.599L236.066 66.9256C236.202 65.7726 236.328 64.6168 236.621 63.4917C237.18 61.3386 237.981 59.2565 238.568 57.1119" fill="#695646"/>
<path d="M238.918 51.083C239.488 52.9648 239.036 55.3947 238.578 57.0763C239.036 55.3951 239.488 52.9648 238.918 51.083Z" fill="#FABFAA"/>
<path d="M237.84 49.3089C238.367 49.7858 238.711 50.398 238.918 51.083C238.71 50.3984 238.367 49.7858 237.84 49.3089Z" fill="#D3A18F"/>
<path d="M238.574 57.0904C238.573 57.0975 238.57 57.1044 238.568 57.1119C238.188 58.5018 237.718 59.8653 237.282 61.2382L237.281 61.2379C237.718 59.8646 238.188 58.5014 238.568 57.1119C238.57 57.1044 238.573 57.0975 238.574 57.0904Z" fill="#FABFAA"/>
<path d="M237.839 49.3083L237.84 49.3089C238.367 49.7858 238.71 50.3984 238.918 51.083C239.488 52.9648 239.036 55.3951 238.578 57.0764C238.577 57.081 238.576 57.086 238.574 57.0904C238.573 57.0975 238.57 57.1044 238.568 57.1119C238.188 58.5014 237.718 59.8646 237.281 61.2379C237.277 61.1917 237.271 61.1453 237.267 61.0991C237.177 60.0785 237.204 58.953 237.481 57.9617C237.715 57.1267 238.028 56.3439 238.165 55.4809C238.301 54.6195 238.365 53.7403 238.306 52.8687C238.259 52.1683 238.171 51.4429 237.79 50.8358C237.621 50.5639 237.415 50.3172 237.179 50.1036C236.991 49.9336 236.784 49.7847 236.56 49.6614C234.136 48.3243 231.152 49.6834 230.593 52.3563C230.429 53.1361 230.353 54.092 230.472 54.8842C230.616 55.8432 230.828 56.8034 231.13 57.7257C231.748 59.6137 232.719 61.4172 233.073 63.3847C233.271 64.4812 233.202 65.5731 233.067 66.6641L232.808 66.6415L232.807 66.644L232.288 66.599C232.391 65.5351 232.457 64.4791 232.442 63.6322C232.416 62.1991 231.715 60.8794 231.195 59.5771C230.138 56.9289 228.726 52.168 230.887 49.7761C231.205 49.4233 231.601 49.1225 232.087 48.887C233.367 48.2668 235.33 48.0912 236.688 48.6125C237.144 48.7874 237.524 49.0236 237.839 49.3079L237.839 49.3083" fill="#695646"/>
<path d="M232.808 66.6415L230.848 89.3291C230.848 89.3291 233.439 89.4366 234.308 86.172L235.678 70.3062L235.351 68.5558L235.499 66.8788L232.808 66.6415" fill="#AEACAC"/>
<path d="M231.145 89.312C231.145 89.312 231.145 89.312 231.145 89.3123C231.047 89.3237 230.969 89.328 230.918 89.3288C230.969 89.328 231.047 89.3237 231.145 89.312Z" fill="#E7E6E7"/>
<path d="M235.499 66.8788L235.456 67.3625L235.351 68.5558L235.432 68.9869L235.183 69.014C235.087 68.7228 235.03 68.4176 235.033 68.0914C235.036 67.7994 235.121 67.3299 234.872 67.1055C234.848 67.0838 234.821 67.0646 234.791 67.0477C234.641 66.966 234.441 66.9666 234.276 66.9618C234.048 66.9546 233.788 66.9252 233.562 66.9872C233.092 67.1161 233.125 67.6431 233.09 68.0453C233.048 68.5375 233.005 69.0294 232.962 69.5219L232.545 69.6882L232.808 66.6415L233.067 66.6642L234.228 66.7666L235.107 66.8441L235.499 66.8788V66.8788ZM232.65 73.0626C232.519 74.6382 232.401 76.2148 232.295 77.7934C232.149 79.979 232.038 82.1676 231.859 84.3507C231.723 86.0185 231.366 87.6565 231.145 89.312C231.047 89.3237 230.969 89.328 230.918 89.3288C230.873 89.3303 230.849 89.3291 230.848 89.3291L232.239 73.226L232.65 73.0626" fill="#9E9D9D"/>
<path d="M236.64 58.7931C236.797 58.9346 236.401 59.8316 236.353 60.0585C236.2 60.7939 236.225 61.5858 236.118 62.3259C236.031 62.923 235.845 63.4582 235.747 64.0463C235.628 64.7648 235.674 65.5202 235.593 66.2463C235.584 66.3338 233.995 66.2742 233.832 66.1865C233.793 66.1654 233.759 66.1416 233.729 66.1148C233.438 65.8519 233.578 65.33 233.557 64.9653C233.525 64.4209 233.494 63.8928 233.482 63.3428C233.457 62.2712 233.41 61.2768 232.939 60.3056C232.794 60.007 231.79 58.647 232.286 58.4655C232.49 58.3907 232.797 58.6383 233.055 58.8714C233.093 58.9063 233.131 58.9409 233.167 58.9741C233.203 59.0073 233.237 59.0389 233.269 59.0681C233.327 59.1204 233.378 59.1638 233.419 59.1926C233.72 59.4047 233.961 59.5678 234.324 59.6118C235.166 59.7137 235.737 59.3446 236.351 58.8884C236.506 58.7736 236.596 58.7528 236.64 58.7931" fill="#695646"/>
<path d="M249.056 63.1054C250.223 62.7571 251.571 62.6919 252.583 63.5037C252.994 63.8328 253.35 64.4894 253.424 65.0037C253.767 67.3867 250.715 68.5067 248.859 68.6485C247.666 68.7385 246.234 68.4688 245.504 67.4384C244.904 66.5902 244.976 65.4327 245.769 64.7046C246.619 63.9249 247.965 63.4299 249.056 63.1054ZM240.136 66.2864C239.143 66.8906 238.073 67.3458 237.009 67.8082L238.411 71.3317C239.4 70.9252 240.393 70.5582 241.207 70.3287C242.588 69.94 244.052 70.2304 245.449 70.3525C248.709 70.6372 254.765 70.5666 255.429 66.4151C255.653 65.0101 255.254 63.0796 254.364 61.9295C252.174 59.1026 248.015 61.1195 245.683 62.581C243.799 63.762 242.037 65.1303 240.136 66.2864" fill="#695646"/>
<path d="M244.763 63.1762C243.868 63.7716 242.992 64.3959 242.104 65.0033C242.104 65.0033 242.104 65.0033 242.103 65.0037C242.991 64.3956 243.868 63.772 244.763 63.1762Z" fill="#D3A18F"/>
<path d="M253.898 61.4247C254.062 61.5723 254.217 61.7404 254.364 61.9295C255.254 63.0796 255.653 65.0101 255.429 66.4151C255.3 67.2197 254.968 67.8713 254.494 68.3966C252.522 70.5806 248.077 70.582 245.449 70.3524C244.052 70.2304 242.588 69.9399 241.207 70.3287C240.393 70.5582 239.4 70.9252 238.411 71.3317L238.218 70.8464L238.22 70.8456L238.124 70.6047C239.129 70.1606 240.155 69.7791 241.262 69.6521C243.248 69.4236 245.256 69.8336 247.241 69.8806C248.211 69.9032 249.192 69.8296 250.152 69.6908C250.945 69.5761 251.837 69.2269 252.538 68.8452C254.935 67.5391 255.375 64.2901 253.397 62.3551C253.366 62.3258 253.335 62.2965 253.304 62.2684C252.909 61.9109 252.431 61.6556 251.917 61.5155C251.226 61.327 250.505 61.4519 249.821 61.6082C248.97 61.8035 248.147 62.1184 247.362 62.4976C246.574 62.8776 245.915 63.4024 245.183 63.8671C244.314 64.419 243.244 64.7684 242.241 64.9776C242.195 64.987 242.15 64.995 242.104 65.0033C242.992 64.3958 243.868 63.7716 244.763 63.1762C245.067 62.9739 245.374 62.775 245.683 62.5809C247.859 61.2173 251.625 59.37 253.898 61.4247" fill="#695646"/>
<path d="M238.22 70.8456L217.062 79.267C217.062 79.267 216.212 76.8172 219.087 75.0443L233.883 69.1553L235.654 68.9625L237.217 68.3376L238.22 70.8456" fill="#AEACAC"/>
<path d="M237.217 68.3376L237.641 69.3969L237.217 68.3376L235.654 68.9626L235.432 68.9869L235.654 68.9626L237.217 68.3376Z" fill="#C3C2C3"/>
<path d="M235.183 69.014L234.286 69.1113C234.285 69.1113 234.285 69.1113 234.285 69.111L235.183 69.014Z" fill="#9E9D9D"/>
<path d="M235.432 68.9869L235.183 69.014L235.432 68.9869Z" fill="#918F8F"/>
<path d="M237.217 68.3376L237.641 69.3969L238.124 70.6047L238.22 70.8456L217.062 79.267C217.062 79.267 217.026 79.1608 216.994 78.9787C218.514 78.2887 219.98 77.4746 221.537 76.8631C223.577 76.0623 225.64 75.3236 227.691 74.5537C229.741 73.7838 231.779 72.9918 233.809 72.1741C234.804 71.7737 235.8 71.3771 236.795 70.9809C237.171 70.8317 237.684 70.7116 237.672 70.2225C237.667 69.9897 237.562 69.7489 237.49 69.532C237.437 69.376 237.381 69.1838 237.259 69.0642C237.255 69.0598 237.25 69.0558 237.245 69.0514C236.962 68.7956 236.491 69.0399 236.19 69.1334C235.547 69.3337 234.914 69.2647 234.286 69.1113L235.183 69.0139L235.432 68.9869L235.654 68.9625L237.217 68.3376" fill="#9E9D9D"/>
<path d="M244.64 64.9202C244.681 64.9575 244.682 65.0484 244.621 65.2168C244.363 65.9363 244.173 66.5892 244.513 67.3656C244.61 67.5862 244.741 67.7407 244.9 67.8853C244.984 67.9611 245.077 68.0343 245.176 68.1125C245.333 68.2356 245.764 68.4404 246.013 68.6661C246.129 68.7704 246.206 68.8791 246.2 68.9867C246.168 69.5135 244.576 68.9451 244.249 68.8929C243.184 68.7222 242.217 68.9629 241.185 69.2491C240.654 69.3963 240.139 69.5186 239.609 69.6452C239.226 69.7365 238.721 70.0608 238.381 69.7536C238.374 69.7476 238.367 69.7412 238.36 69.7345C238.23 69.603 237.714 68.0994 237.795 68.0648C238.467 67.7777 239.204 67.6042 239.857 67.2827C240.392 67.0191 240.85 66.6865 241.397 66.4312C242.075 66.1151 242.841 65.9111 243.501 65.5521C243.709 65.4389 244.48 64.776 244.64 64.9202" fill="#695646"/>
<path d="M252.993 62.5766C253.089 62.6631 253.175 62.7625 253.247 62.8775C253.633 63.4974 253.877 64.0145 254.028 64.7214C254.23 65.6719 254.047 66.8903 253.328 67.588C253.124 67.7856 252.909 67.9678 252.679 68.1342C252.406 68.3321 252.079 68.4116 251.803 68.6023C251.495 68.8157 251.204 69.0425 250.839 69.1512C250.653 69.2074 250.202 69.3282 250.015 69.1589C250.007 69.1521 250 69.1451 249.994 69.1372C249.8 68.9105 250.322 68.8534 250.494 68.8036C250.857 68.6971 251.235 68.6019 251.548 68.3804C251.805 68.1985 252.06 68.0093 252.319 67.8322C252.528 67.6904 252.774 67.6185 252.959 67.4473C253.123 67.2942 253.29 67.0556 253.397 66.87C253.612 66.499 253.714 66.0647 253.716 65.638C253.718 65.1609 253.624 64.7446 253.468 64.2908C253.34 63.9184 253.191 63.6971 252.972 63.4993C252.849 63.3876 252.703 63.2834 252.526 63.1642C251.992 62.8048 251.347 62.6848 250.729 62.5241C250.606 62.4921 250.411 62.4219 250.306 62.3273C250.215 62.2445 250.192 62.1433 250.346 62.0328C250.541 61.8938 250.747 62.0005 250.956 62.0084C251.133 62.0143 251.294 61.9634 251.473 61.993C252.012 62.083 252.593 62.2143 252.993 62.5766" fill="#695646"/>
<path d="M233.691 70.2113C234.039 70.0731 234.432 70.2423 234.571 70.5897C234.709 70.9375 234.54 71.331 234.192 71.4692C233.845 71.6082 233.451 71.438 233.313 71.0909C233.174 70.7431 233.344 70.3493 233.691 70.2113Z" fill="#444547"/>
<path d="M233.661 70.2713C233.963 70.1509 234.305 70.2979 234.425 70.6003C234.545 70.9015 234.397 71.2433 234.096 71.3636C233.794 71.4837 233.453 71.3366 233.332 71.035C233.212 70.733 233.36 70.391 233.661 70.2713Z" fill="#AEACAC"/>
<path d="M234.055 70.4766C234.106 70.5229 234.145 70.5861 234.16 70.6476C234.203 70.8087 234.2 71.0199 234.035 71.1196C233.959 71.1648 233.826 71.1701 233.74 71.1642C233.679 71.1602 233.583 71.1289 233.531 71.082C233.524 71.0759 233.518 71.0695 233.513 71.0631C233.462 70.9966 233.504 70.8975 233.528 70.8272C233.576 70.6821 233.655 70.4954 233.802 70.4253C233.893 70.3817 233.985 70.4139 234.055 70.4766" fill="#BDBBBC"/>
<path d="M58.9451 65.3493C59.8634 65.9126 60.1541 67.036 59.726 67.9831C59.2065 69.1335 57.8519 69.6717 56.663 69.8099C54.8145 70.0247 51.6046 69.5075 51.4878 67.102C51.4623 66.583 51.6866 65.8706 52.0266 65.4696C52.8665 64.4798 54.2012 64.2873 55.4143 64.4063C56.5464 64.5169 57.9628 64.746 58.9451 65.3493ZM58.6248 63.249C56.0574 62.2583 51.589 61.0714 49.9793 64.2636C49.3238 65.5626 49.3008 67.5329 49.7889 68.8695C51.2307 72.8191 57.1901 71.7341 60.3349 70.8331C61.6829 70.4472 63.0665 69.8829 64.4949 70.0014C65.339 70.0709 66.383 70.2429 67.4311 70.453L68.1365 66.7272C67.0031 66.4756 65.8659 66.2334 64.7759 65.8292C62.6901 65.0565 60.6993 64.0495 58.6248 63.249" fill="#695646"/>
<path d="M52.6617 62.294C54.5914 61.9162 56.9634 62.611 58.5904 63.2356C56.9638 62.6107 54.5914 61.9162 52.6617 62.294Z" fill="#FABFAA"/>
<path d="M50.7881 63.188C51.3157 62.7112 51.9594 62.4314 52.6617 62.294C51.9597 62.4317 51.3157 62.7112 50.7881 63.188Z" fill="#D3A18F"/>
<path d="M58.6039 63.2409C58.6109 63.2434 58.6175 63.2462 58.6248 63.249C59.9692 63.7676 61.2786 64.3719 62.6005 64.9447L62.6001 64.945C61.2778 64.3726 59.9689 63.7673 58.6248 63.249C58.6175 63.2462 58.6109 63.2434 58.6039 63.2409Z" fill="#FABFAA"/>
<path d="M50.7874 63.1887L50.7881 63.188C51.3157 62.7112 51.9597 62.4317 52.6617 62.294C54.5914 61.9163 56.9638 62.6107 58.5904 63.2356C58.5949 63.2376 58.5998 63.2393 58.6039 63.2409C58.6109 63.2434 58.6175 63.2462 58.6248 63.249C59.9689 63.7673 61.2778 64.3726 62.6001 64.945C62.5538 64.9445 62.5069 64.9463 62.4606 64.9458C61.4362 64.9319 60.3191 64.7916 59.3608 64.4161C58.5535 64.0995 57.8062 63.7098 56.9613 63.4866C56.1182 63.2638 55.2498 63.1123 54.3767 63.0831C53.6751 63.0594 52.9446 63.0738 52.3022 63.3909C52.0146 63.5322 51.7485 63.7121 51.5121 63.9257C51.324 64.0957 51.1551 64.2869 51.0099 64.4969C49.4354 66.7742 50.4871 69.8792 53.0901 70.7049C53.8495 70.9461 54.7929 71.1181 55.593 71.0798C56.5616 71.0335 57.5383 70.9185 58.4864 70.7114C60.4269 70.2868 62.3191 69.502 64.3122 69.3481C65.4231 69.2615 66.5025 69.4406 67.5744 69.6845L67.5257 69.9402L67.5282 69.9406L67.4311 70.453C66.383 70.2429 65.339 70.0709 64.4949 70.0014C63.0665 69.8829 61.6829 70.4472 60.3349 70.8331C57.5936 71.6181 52.7147 72.5435 50.5526 70.153C50.2337 69.8009 49.9743 69.3767 49.7889 68.8695C49.3008 67.533 49.3238 65.5626 49.9793 64.2636C50.1992 63.8275 50.4724 63.4734 50.787 63.189L50.7874 63.1887" fill="#695646"/>
<path d="M67.5257 69.9402L89.9007 74.1747C89.9007 74.1747 90.2686 71.6074 87.108 70.4146L71.4608 67.4538L69.6864 67.6022L68.0329 67.2868L67.5257 69.9402" fill="#AEACAC"/>
<path d="M89.9135 73.8779C89.9135 73.8779 89.9135 73.8779 89.9139 73.8775C89.9152 73.9767 89.9117 74.0541 89.9073 74.1052C89.9117 74.0541 89.9152 73.9767 89.9135 73.8779Z" fill="#E7E6E7"/>
<path d="M68.0329 67.2868L68.5098 67.3781L69.6864 67.6022L70.1234 67.5658L70.1253 67.8162C69.826 67.8826 69.5166 67.908 69.1923 67.8722C68.9022 67.8398 68.4436 67.7083 68.1954 67.9327C68.1712 67.9545 68.1494 67.9796 68.1296 68.0083C68.0333 68.1486 68.0137 68.3477 67.9923 68.5113C67.9621 68.7381 67.9067 68.9938 67.9457 69.2241C68.0266 69.7052 68.5542 69.7258 68.9509 69.8007C69.4363 69.8925 69.9213 69.9846 70.4071 70.0768L70.5304 70.5086L67.5257 69.9401L67.5744 69.6845L67.7933 68.5394L67.9588 67.6732L68.0329 67.2868V67.2868ZM73.8983 70.7434C75.4526 71.0333 77.0094 71.3094 78.5692 71.5734C80.7291 71.9387 82.8953 72.2701 85.0493 72.6678C86.695 72.9708 88.2887 73.4906 89.9135 73.8779C89.9152 73.9767 89.9117 74.0541 89.9073 74.1052C89.9044 74.1497 89.9007 74.1739 89.9006 74.1746L74.0195 71.1691L73.8983 70.7434" fill="#9E9D9D"/>
<path d="M60.1032 65.3366C60.2598 65.1951 61.1124 65.6797 61.3333 65.7496C62.0495 65.9759 62.8399 66.0307 63.5655 66.2121C64.1508 66.3585 64.6646 66.5973 65.2398 66.7541C65.9426 66.9454 66.6988 66.9751 67.413 67.1291C67.4992 67.1469 67.2799 68.7217 67.1762 68.8755C67.1513 68.9121 67.1242 68.9433 67.0945 68.9701C66.8037 69.2331 66.2985 69.0418 65.9335 69.0259C65.3887 69.0026 64.8601 68.9809 64.3117 68.9373C63.2431 68.8536 62.249 68.8009 61.2353 69.1718C60.9236 69.2857 59.4694 70.1471 59.3388 69.6355C59.2849 69.4253 59.5622 69.1451 59.82 68.912C59.8586 68.8771 59.8968 68.8433 59.9335 68.8108C59.9702 68.7783 60.005 68.7475 60.0373 68.7183C60.0952 68.666 60.1435 68.6196 60.1762 68.5819C60.4176 68.3038 60.6041 68.0806 60.6845 67.7235C60.8707 66.8958 60.561 66.2906 60.1689 65.6338C60.0704 65.4681 60.0587 65.3769 60.1032 65.3366" fill="#695646"/>
<path d="M65.644 53.4186C65.4151 52.2219 65.4859 50.875 66.3956 49.949C66.7643 49.5738 67.4534 49.286 67.9725 49.2637C70.378 49.1625 71.1849 52.312 71.1392 54.1722C71.1085 55.3689 70.6959 56.7665 69.5973 57.3888C68.693 57.9001 67.5485 57.7123 66.9041 56.8495C66.2139 55.9255 65.857 54.5365 65.644 53.4186ZM67.9105 62.6131C68.4117 63.662 68.7568 64.7725 69.1096 65.8781L72.7564 64.8374C72.4515 63.8132 72.1864 62.7882 72.0401 61.9551C71.7924 60.5422 72.2288 59.1143 72.491 57.7367C73.1026 54.5224 73.6422 48.4898 69.5787 47.4115C68.2034 47.0468 66.2426 47.2491 65.0087 48.0193C61.9756 49.9128 63.5633 54.2543 64.7825 56.7219C65.7678 58.7152 66.9517 60.6059 67.9105 62.6131" fill="#695646"/>
<path d="M65.2821 57.6967C65.7844 58.6469 66.3172 59.5817 66.8321 60.5258C66.8321 60.5265 66.8321 60.5265 66.8324 60.5269C66.3168 59.5827 65.7847 58.6473 65.2821 57.6967Z" fill="#D3A18F"/>
<path d="M64.4596 48.4313C64.6228 48.2838 64.8057 48.1461 65.0087 48.0193C66.2426 47.2491 68.2034 47.0468 69.5787 47.4115C70.3662 47.6205 70.9811 48.0159 71.456 48.5406C73.4304 50.7226 72.984 55.1452 72.491 57.7367C72.2288 59.1143 71.7924 60.5422 72.0401 61.9551C72.1864 62.7882 72.4516 63.8132 72.7564 64.8374L72.2542 64.9806L72.2536 64.9784L72.0042 65.0501C71.6636 64.005 71.3874 62.9461 71.3725 61.8318C71.3452 59.8327 71.9552 57.8771 72.202 55.906C72.3221 54.944 72.3477 53.9602 72.3064 52.9911C72.272 52.1909 72.0145 51.2676 71.7053 50.5325C70.6473 48.0157 67.4591 47.2503 65.3347 49.0243C65.3025 49.0514 65.2703 49.0792 65.2391 49.1073C64.8436 49.4648 64.5416 49.9145 64.3504 50.4115C64.0932 51.0801 64.1449 51.81 64.2315 52.5063C64.3401 53.3729 64.5705 54.2237 64.8687 55.0429C65.1674 55.8649 65.6231 56.5734 66.0117 57.3487C66.4734 58.2689 66.7132 59.3687 66.8204 60.3875C66.8251 60.4338 66.8284 60.48 66.8321 60.5258C66.3172 59.5817 65.7844 58.6469 65.2821 57.6967C65.1115 57.3737 64.9444 57.0487 64.7825 56.7218C63.6449 54.4192 62.1864 50.486 64.4596 48.4313" fill="#695646"/>
<path d="M72.2536 64.9784L78.5013 86.8769C78.5013 86.8769 75.9783 87.4761 74.504 84.437L70.1351 69.1233L70.1216 67.3423L69.6573 65.7241L72.2536 64.9784" fill="#AEACAC"/>
<path d="M69.6573 65.7241L70.7539 65.4091L69.6573 65.7241L70.1216 67.3423L70.1234 67.5658L70.1216 67.3423L69.6573 65.7241Z" fill="#C3C2C3"/>
<path d="M70.1253 67.8163L70.1318 68.7184C70.1318 68.7191 70.1318 68.7191 70.1314 68.7195L70.1253 67.8163Z" fill="#9E9D9D"/>
<path d="M70.1234 67.5658L70.1253 67.8162L70.1234 67.5658Z" fill="#918F8F"/>
<path d="M69.6573 65.7241L70.7539 65.409L72.0042 65.0501L72.2536 64.9784L78.5013 86.8769C78.5013 86.8769 78.392 86.9022 78.2076 86.9159C77.6742 85.3339 77.0119 83.7934 76.5603 82.1826C75.9689 80.0732 75.4418 77.9462 74.8823 75.8281C74.3228 73.7108 73.7402 71.6036 73.1311 69.5008C72.8328 68.4713 72.5386 67.4402 72.2447 66.4102C72.134 66.0215 72.0662 65.499 71.5784 65.4613C71.3463 65.4432 71.0962 65.523 70.8731 65.573C70.7126 65.6095 70.5156 65.6466 70.3845 65.7551C70.3796 65.7595 70.3752 65.7635 70.3704 65.7678C70.0873 66.0237 70.283 66.5169 70.3456 66.8257C70.4801 67.4861 70.3478 68.1086 70.1318 68.7184L70.1253 67.8162L70.1234 67.5658L70.1216 67.3423L69.6573 65.7241" fill="#9E9D9D"/>
<path d="M67.0049 57.9947C67.0461 57.9575 67.1366 57.966 67.2981 58.0432C67.9878 58.373 68.6184 58.6275 69.425 58.3669C69.6543 58.2931 69.8212 58.1787 69.9811 58.0342C70.0649 57.9584 70.1471 57.874 70.2349 57.7832C70.3732 57.6386 70.6204 57.2312 70.8701 57.0055C70.9855 56.9012 71.1014 56.8355 71.2078 56.8526C71.7286 56.9373 71.0029 58.4636 70.918 58.7836C70.6409 59.8262 70.7831 60.8121 70.9638 61.8682C71.0568 62.4111 71.1266 62.9358 71.1992 63.4756C71.2513 63.8667 71.5232 64.4016 71.1833 64.7088C71.1767 64.7148 71.1696 64.7212 71.1622 64.7272C71.0182 64.8438 69.4703 65.2055 69.4441 65.1213C69.2262 64.4237 69.1277 63.6734 68.8736 62.991C68.6653 62.4324 68.3805 61.9428 68.1816 61.373C67.9354 60.6665 67.8096 59.8844 67.5188 59.192C67.4271 58.9735 66.8453 58.139 67.0049 57.9947" fill="#695646"/>
<path d="M65.5144 49.4477C65.6101 49.3612 65.7177 49.2862 65.8393 49.2261C66.4951 48.9038 67.034 48.7132 67.7525 48.6347C68.7185 48.5295 69.9123 48.8337 70.534 49.62C70.7101 49.8424 70.8698 50.075 71.0121 50.3204C71.1815 50.6123 71.2277 50.9453 71.3896 51.2392C71.571 51.5667 71.7673 51.8793 71.8387 52.253C71.8758 52.4439 71.9506 52.9048 71.7632 53.0742C71.7558 53.0809 71.7481 53.0872 71.7396 53.0928C71.4945 53.2631 71.4902 52.7378 71.458 52.562C71.3887 52.1899 71.332 51.8043 71.1431 51.4707C70.9881 51.1963 70.8255 50.9239 70.6755 50.6476C70.5553 50.4259 70.5085 50.1743 70.3569 49.9729C70.2211 49.7943 70.0005 49.6041 69.8266 49.4788C69.4792 49.2272 69.0574 49.082 68.633 49.0375C68.1586 48.987 67.735 49.0389 67.2677 49.1485C66.8843 49.2382 66.6492 49.3637 66.4303 49.5616C66.3068 49.6732 66.1885 49.8078 66.052 49.9723C65.6407 50.4667 65.4563 51.0966 65.2342 51.6951C65.1899 51.8146 65.1005 52.0013 64.9958 52.0959C64.9042 52.1787 64.8013 52.1909 64.7069 52.0268C64.5881 51.8193 64.7151 51.6243 64.744 51.4175C64.7677 51.2417 64.7332 51.0767 64.7806 50.9017C64.9245 50.3746 65.1138 49.8092 65.5144 49.4477" fill="#695646"/>
<path d="M71.1664 69.4207C71.0638 69.0611 71.2718 68.6864 71.6314 68.5838C71.9914 68.4809 72.3658 68.6892 72.4684 69.0488C72.5717 69.4085 72.3626 69.7835 72.0034 69.8858C71.6434 69.9887 71.2687 69.78 71.1664 69.4207Z" fill="#444547"/>
<path d="M71.223 69.4565C71.1336 69.1443 71.3143 68.8192 71.6273 68.7298C71.9391 68.6407 72.2642 68.8222 72.3536 69.1337C72.4427 69.4462 72.2619 69.7713 71.9497 69.8607C71.6372 69.9498 71.3117 69.7687 71.223 69.4565Z" fill="#AEACAC"/>
<path d="M71.4669 69.0857C71.5181 69.0394 71.5849 69.0074 71.6477 68.9978C71.8123 68.9718 72.0221 68.9958 72.1046 69.17C72.142 69.2501 72.1339 69.3828 72.1193 69.4681C72.1092 69.5285 72.0684 69.6207 72.0165 69.6676C72.0098 69.6736 72.0028 69.6793 71.9959 69.6836C71.9246 69.7278 71.8302 69.6763 71.7627 69.6456C71.6231 69.583 71.4453 69.4855 71.3904 69.3322C71.3563 69.237 71.3976 69.1484 71.4669 69.0857" fill="#BDBBBC"/>
</g>
<defs>
<filter id="filter0_d" x="0" y="0" width="312" height="412" filterUnits="userSpaceOnUse" color-interpolation-filters="sRGB">
<feFlood flood-opacity="0" result="BackgroundImageFix"/>
<feColorMatrix in="SourceAlpha" type="matrix" values="0 0 0 0 0 0 0 0 0 0 0 0 0 0 0 0 0 0 127 0"/>
<feOffset dx="4" dy="4"/>
<feGaussianBlur stdDeviation="14.5"/>
<feColorMatrix type="matrix" values="0 0 0 0 0 0 0 0 0 0 0 0 0 0 0 0 0 0 0.25 0"/>
<feBlend mode="normal" in2="BackgroundImageFix" result="effect1_dropShadow"/>
<feBlend mode="normal" in="SourceGraphic" in2="effect1_dropShadow" result="shape"/>
</filter>
<filter id="filter1_d" x="25" y="25" width="262" height="362" filterUnits="userSpaceOnUse" color-interpolation-filters="sRGB">
<feFlood flood-opacity="0" result="BackgroundImageFix"/>
<feColorMatrix in="SourceAlpha" type="matrix" values="0 0 0 0 0 0 0 0 0 0 0 0 0 0 0 0 0 0 127 0"/>
<feOffset dx="4" dy="4"/>
<feGaussianBlur stdDeviation="2"/>
<feColorMatrix type="matrix" values="0 0 0 0 0 0 0 0 0 0 0 0 0 0 0 0 0 0 0.25 0"/>
<feBlend mode="normal" in2="BackgroundImageFix" result="effect1_dropShadow"/>
<feBlend mode="normal" in="SourceGraphic" in2="effect1_dropShadow" result="shape"/>
</filter>
</defs>
</svg>
